<svg width="82" height="84" viewBox="0 0 82 84" fill="none" xmlns="http://www.w3.org/2000/svg">
<path d="M45.9258 54.2695H49.7016V56.9528H45.9258V54.2695Z" fill="white"/>
<path d="M42.5352 54.2695H46.3109V56.9528H42.5352V54.2695Z" fill="white"/>
<path d="M39.1484 54.2695H42.9242V56.9528H39.1484V54.2695Z" fill="white"/>
<path d="M49.3125 54.2689H61.2532V52.2181C61.2532 51.8347 61.2085 51.5025 61.119 51.2214C61.0423 50.9275 60.9146 50.672 60.7357 50.4548C60.5696 50.2375 60.3396 50.0586 60.0457 49.9181C59.7646 49.7775 59.4515 49.7073 59.1065 49.7073H51.095C50.8522 49.3878 50.6414 49.0109 50.4625 48.5764C50.2964 48.1292 50.2005 47.6181 50.175 47.0431L53.28 41.4082H56.1549L53.1841 47.0431H58.8382C59.7071 47.0431 60.4674 47.1581 61.119 47.3881C61.7707 47.6053 62.3393 47.9695 62.8248 48.4806C63.2337 48.9151 63.5212 49.4709 63.6873 50.1481C63.8534 50.8125 63.9365 51.5409 63.9365 52.3331V56.9522H49.3125V54.2689Z" fill="white"/>
<path d="M34.3984 41.4082H37.0817V54.2689H39.535V56.9522H34.3984V41.4082Z" fill="white"/>
<path d="M18.6602 54.2692H24.1226C24.557 54.2692 24.9595 54.2181 25.3301 54.1159C25.7006 54.0009 26.0201 53.8348 26.2884 53.6176C26.5439 53.4003 26.742 53.132 26.8826 52.8126C27.0231 52.4931 27.0934 52.097 27.0934 51.6243V39.9902H31.0225V42.6735H29.7767V51.5284C29.7767 52.3206 29.6553 53.0809 29.4125 53.8092C29.1825 54.5375 28.8247 55.1253 28.3392 55.5725C27.7898 56.0709 27.1125 56.4286 26.3076 56.6459C25.5153 56.8503 24.6017 56.9525 23.5668 56.9525H18.986L18.6602 54.2692ZM21.3818 43.2102H24.0651V53.3109H21.3818V43.2102Z" fill="white"/>
<path d="M80.0905 62.085H1.87986C0.866959 62.085 0.046875 62.8934 0.046875 63.8954C0.046875 64.8974 0.866959 65.7082 1.87986 65.7082H6.75887L4.87951 76.2584C4.55734 78.0495 5.0528 79.8841 6.239 81.2903C7.42763 82.6965 9.17519 83.4855 11.0301 83.4855H70.9622C72.7952 83.4855 74.5452 82.6747 75.7313 81.2903C76.9175 79.8841 77.4154 78.0495 77.0908 76.2584L75.2139 65.7082H80.1124C81.1254 65.7082 81.9454 64.8974 81.9454 63.8954C81.9454 62.8934 81.1058 62.085 80.0905 62.085ZM72.905 78.9668C72.4071 79.5428 71.7164 79.8623 70.9622 79.8623H11.0082C10.254 79.8623 9.51933 79.5428 9.04583 78.9668C8.54792 78.3907 8.35511 77.6453 8.48446 76.8998L10.4688 65.7082H71.4796L73.4664 76.8998C73.5957 77.6453 73.3785 78.3907 72.905 78.9668Z" fill="#00C2CB"/>
<path d="M1.89401 36.8422H80.1266C81.1395 36.8422 81.9596 36.0338 81.9596 35.0317C81.9596 34.0297 81.1395 33.2189 80.1266 33.2189H69.4875L67.674 22.9446C67.1566 20.0039 64.567 17.8716 61.5234 17.8716H52.6758V11.9902C52.6758 5.61505 47.4306 0.435547 40.9774 0.435547C34.5265 0.435547 29.2814 5.61505 29.2814 11.9902V17.8716H20.4338C17.3902 17.8716 14.8006 20.0039 14.2831 22.9446L12.4697 33.2189H1.87205C0.859146 33.2189 0.0390625 34.0297 0.0390625 35.0317C0.0390625 36.0338 0.881113 36.8422 1.89401 36.8422ZM17.9076 23.586C18.1248 22.371 19.1817 21.4948 20.4338 21.4948H29.2814V24.1596C29.2814 25.1616 30.1015 25.9725 31.1144 25.9725C32.1297 25.9725 32.9498 25.1616 32.9498 24.1596V11.9684C32.9498 7.5973 36.5548 4.03942 40.9774 4.03942C45.4024 4.03942 49.0074 7.5973 49.0074 11.9684V17.8498H39.0565C38.0436 17.8498 37.2235 18.6606 37.2235 19.6627C37.2235 20.6647 38.0436 21.4755 39.0565 21.4755H61.5234C62.7755 21.4755 63.8323 22.3492 64.0495 23.5642L65.7532 33.1971H16.2235L17.9076 23.586Z" fill="#FF66C4"/>
</svg>
