<svg width="73" height="144" viewBox="0 0 73 144" fill="none" xmlns="http://www.w3.org/2000/svg">
<path d="M68.3638 8.44115V130.41C68.3638 132.018 67.7251 133.56 66.5881 134.697C65.4512 135.834 63.9091 136.473 62.3012 136.473H9.59776C7.98985 136.473 6.44781 135.834 5.31085 134.697C4.17389 133.56 3.53516 132.018 3.53516 130.41V8.4376C3.53516 6.83064 4.17352 5.2895 5.30981 4.15321C6.44611 3.01691 7.98725 2.37855 9.59421 2.37855H32.2154L32.2367 2.44599C32.8046 4.47632 34.0966 5.7932 35.5378 5.7932H36.3541C37.7953 5.7932 39.0908 4.47277 39.6552 2.44244L39.6801 2.375H62.3012C63.0977 2.375 63.8863 2.53193 64.6221 2.83683C65.3579 3.14172 66.0264 3.58861 66.5894 4.15195C67.1524 4.71529 67.5989 5.38405 67.9034 6.12001C68.2078 6.85596 68.3643 7.6447 68.3638 8.44115Z" fill="white"/>
<path d="M62.3015 136.65H9.59803C8.77763 136.651 7.9651 136.491 7.2068 136.178C6.4485 135.864 5.75929 135.405 5.17853 134.826C4.59776 134.246 4.13682 133.558 3.822 132.8C3.50719 132.043 3.34468 131.231 3.34375 130.41V8.4377C3.34563 6.78425 4.00329 5.19905 5.17246 4.02988C6.34163 2.86071 7.92683 2.20305 9.58028 2.20117H32.3363L32.3931 2.39994C32.9362 4.35574 34.1679 5.61937 35.5238 5.61937H36.3544C37.7139 5.61937 38.942 4.35574 39.4851 2.39994L39.549 2.20117H62.3015C63.9559 2.20305 65.542 2.86109 66.7118 4.03092C67.8817 5.20076 68.5397 6.78686 68.5416 8.44125V130.41C68.5397 132.065 67.8817 133.651 66.7118 134.821C65.542 135.99 63.9559 136.649 62.3015 136.65ZM9.59448 2.55613C8.82117 2.55519 8.05524 2.70658 7.34044 3.00166C6.62563 3.29673 5.97595 3.7297 5.42848 4.27586C4.881 4.82201 4.44646 5.47065 4.14967 6.18474C3.85287 6.89883 3.69964 7.66439 3.6987 8.4377V130.41C3.70058 131.971 4.32122 133.466 5.42449 134.57C6.52776 135.673 8.02357 136.294 9.58383 136.295H62.3015C63.8618 136.294 65.3576 135.673 66.4608 134.57C67.5641 133.466 68.1847 131.971 68.1866 130.41V8.44125C68.1847 6.88099 67.5641 5.38518 66.4608 4.28191C65.3576 3.17865 63.8618 2.558 62.3015 2.55613H39.8188C39.2224 4.6326 37.8701 5.97432 36.3615 5.97432H35.538C34.0295 5.97432 32.6771 4.6326 32.0808 2.55613H9.59448Z" fill="#272727"/>
<path d="M3.53516 98.5283V130.41C3.53516 132.018 4.17389 133.56 5.31085 134.697C6.44781 135.834 7.98985 136.473 9.59776 136.473H62.3012C63.9091 136.473 65.4512 135.834 66.5881 134.697C67.7251 133.56 68.3638 132.018 68.3638 130.41V98.5283H3.53516Z" fill="#DBDBDB"/>
<path d="M62.3015 136.65H9.59803C8.77763 136.651 7.9651 136.49 7.2068 136.177C6.4485 135.864 5.75929 135.405 5.17853 134.825C4.59776 134.246 4.13682 133.558 3.822 132.8C3.50719 132.043 3.34468 131.23 3.34375 130.41V98.5281C3.34375 98.481 3.36245 98.4358 3.39573 98.4026C3.42901 98.3693 3.47416 98.3506 3.52123 98.3506H68.3641C68.4112 98.3506 68.4563 98.3693 68.4896 98.4026C68.5229 98.4358 68.5416 98.481 68.5416 98.5281V130.41C68.5397 132.064 67.8817 133.65 66.7118 134.82C65.542 135.99 63.9559 136.648 62.3015 136.65ZM3.6987 98.7055V130.41C3.70058 131.97 4.32122 133.466 5.42449 134.569C6.52776 135.673 8.02357 136.293 9.58383 136.295H62.3015C63.8618 136.293 65.3576 135.673 66.4608 134.569C67.5641 133.466 68.1847 131.97 68.1866 130.41V98.7055H3.6987Z" fill="#272727"/>
<path d="M23.2754 102.376H7.11434C6.66934 102.376 6.30859 102.737 6.30859 103.182V107.541C6.30859 107.986 6.66934 108.346 7.11434 108.346H23.2754C23.7204 108.346 24.0811 107.986 24.0811 107.541V103.182C24.0811 102.737 23.7204 102.376 23.2754 102.376Z" fill="white"/>
<path d="M43.1699 102.376H27.0089C26.5639 102.376 26.2031 102.737 26.2031 103.182V107.541C26.2031 107.986 26.5639 108.346 27.0089 108.346H43.1699C43.6149 108.346 43.9756 107.986 43.9756 107.541V103.182C43.9756 102.737 43.6149 102.376 43.1699 102.376Z" fill="white"/>
<path d="M63.0566 102.376H46.8956C46.4506 102.376 46.0898 102.737 46.0898 103.182V107.541C46.0898 107.986 46.4506 108.346 46.8956 108.346H63.0566C63.5016 108.346 63.8624 107.986 63.8624 107.541V103.182C63.8624 102.737 63.5016 102.376 63.0566 102.376Z" fill="white"/>
<path d="M23.2754 110.007H7.11434C6.66934 110.007 6.30859 110.368 6.30859 110.813V115.171C6.30859 115.616 6.66934 115.977 7.11434 115.977H23.2754C23.7204 115.977 24.0811 115.616 24.0811 115.171V110.813C24.0811 110.368 23.7204 110.007 23.2754 110.007Z" fill="white"/>
<path d="M43.1699 110.007H27.0089C26.5639 110.007 26.2031 110.368 26.2031 110.813V115.171C26.2031 115.616 26.5639 115.977 27.0089 115.977H43.1699C43.6149 115.977 43.9756 115.616 43.9756 115.171V110.813C43.9756 110.368 43.6149 110.007 43.1699 110.007Z" fill="white"/>
<path d="M63.0566 110.007H46.8956C46.4506 110.007 46.0898 110.368 46.0898 110.813V115.171C46.0898 115.616 46.4506 115.977 46.8956 115.977H63.0566C63.5016 115.977 63.8624 115.616 63.8624 115.171V110.813C63.8624 110.368 63.5016 110.007 63.0566 110.007Z" fill="white"/>
<path d="M23.2754 117.635H7.11434C6.66934 117.635 6.30859 117.996 6.30859 118.441V122.799C6.30859 123.244 6.66934 123.605 7.11434 123.605H23.2754C23.7204 123.605 24.0811 123.244 24.0811 122.799V118.441C24.0811 117.996 23.7204 117.635 23.2754 117.635Z" fill="white"/>
<path d="M43.1699 117.635H27.0089C26.5639 117.635 26.2031 117.996 26.2031 118.441V122.799C26.2031 123.244 26.5639 123.605 27.0089 123.605H43.1699C43.6149 123.605 43.9756 123.244 43.9756 122.799V118.441C43.9756 117.996 43.6149 117.635 43.1699 117.635Z" fill="white"/>
<path d="M63.0566 117.635H46.8956C46.4506 117.635 46.0898 117.996 46.0898 118.441V122.799C46.0898 123.244 46.4506 123.605 46.8956 123.605H63.0566C63.5016 123.605 63.8624 123.244 63.8624 122.799V118.441C63.8624 117.996 63.5016 117.635 63.0566 117.635Z" fill="white"/>
<path d="M43.1699 125.267H27.0089C26.5639 125.267 26.2031 125.627 26.2031 126.072V130.431C26.2031 130.876 26.5639 131.237 27.0089 131.237H43.1699C43.6149 131.237 43.9756 130.876 43.9756 130.431V126.072C43.9756 125.627 43.6149 125.267 43.1699 125.267Z" fill="white"/>
<path d="M61.7194 131.237H50.6307L48.2383 128.458L50.6307 125.267H61.7194V131.237Z" fill="white"/>
<path d="M36.9718 30.2143L36.6481 29.9707L36.3245 30.2143C36.3245 30.2143 19.7839 39.5928 12.3047 43.1536C12.3047 43.1536 15.9005 63.2145 18.4679 72.2562C21.0353 81.298 31.1322 86.1628 36.6481 89.394C42.1713 86.1628 52.2323 81.3123 54.8284 72.2562C57.4246 63.2002 60.9988 43.1536 60.9988 43.1536C53.5267 39.5928 36.9718 30.2143 36.9718 30.2143Z" fill="#00C2CB"/>
<path d="M29.6966 51.541C29.6966 47.675 32.8306 44.541 36.6966 44.541C39.957 44.541 42.699 46.7709 43.4761 49.7903C43.6138 50.3251 44.159 50.6471 44.6938 50.5095C45.2287 50.3718 45.5507 49.8266 45.413 49.2918C44.414 45.4102 40.8916 42.541 36.6966 42.541C31.7261 42.541 27.6966 46.5705 27.6966 51.541V54.2805C26.2103 54.3915 25.2424 54.6717 24.5349 55.3793C23.3633 56.5508 23.3633 58.4364 23.3633 62.2077C23.3633 65.9789 23.3633 67.8645 24.5349 69.0361C25.7064 70.2077 27.592 70.2077 31.3633 70.2077H42.0299C45.8012 70.2077 47.6868 70.2077 48.8584 69.0361C50.0299 67.8645 50.0299 65.9789 50.0299 62.2077C50.0299 58.4364 50.0299 56.5508 48.8584 55.3793C47.6868 54.2077 45.8012 54.2077 42.0299 54.2077H31.3633C30.7613 54.2077 30.2073 54.2077 29.6966 54.2124V51.541Z" fill="white"/>
<path d="M68.3638 14.1133V8.43405C68.3619 6.82738 67.7224 5.28716 66.5856 4.15173C65.4489 3.01631 63.9079 2.37855 62.3012 2.37855H39.6836L39.6623 2.44599C39.0979 4.47632 37.8024 5.7932 36.3541 5.7932H35.5378C34.0966 5.7932 32.7975 4.47277 32.2367 2.44244L32.2154 2.375H9.59421C7.98725 2.375 6.44611 3.01336 5.30981 4.14966C4.17352 5.28595 3.53516 6.82709 3.53516 8.43405V14.1133H68.3638Z" fill="#DBDBDB"/>
<path d="M68.3581 14.2905H3.53295C3.48588 14.2905 3.44073 14.2718 3.40745 14.2386C3.37417 14.2053 3.35547 14.1601 3.35547 14.1131V8.4338C3.35735 6.78035 4.01501 5.19516 5.18418 4.02599C6.35335 2.85682 7.93855 2.19915 9.592 2.19727H32.2132C32.2522 2.19688 32.2902 2.20962 32.3211 2.23344C32.352 2.25726 32.374 2.29078 32.3836 2.32861L32.4049 2.39605C32.9479 4.35184 34.1796 5.61548 35.5355 5.61548H36.3519C37.7114 5.61548 38.9395 4.35184 39.4826 2.39605L39.5075 2.32151C39.5182 2.28559 39.5402 2.25409 39.5703 2.2317C39.6003 2.20932 39.6368 2.19724 39.6743 2.19727H62.299C63.9531 2.19915 65.5388 2.85731 66.7081 4.02724C67.8774 5.19718 68.5346 6.78329 68.5356 8.43735V14.1166C68.5346 14.1631 68.5155 14.2073 68.4823 14.2398C68.4491 14.2723 68.4045 14.2905 68.3581 14.2905ZM3.69622 13.9356H68.1806V8.4409C68.1797 6.88097 67.5598 5.38515 66.4571 4.28178C65.3544 3.17841 63.859 2.55766 62.299 2.55578H39.8163C39.22 4.63225 37.8676 5.97398 36.359 5.97398H35.5355C34.027 5.97398 32.6746 4.63225 32.0783 2.55578H9.592C8.81869 2.55485 8.05276 2.70624 7.33796 3.00131C6.62315 3.29638 5.97347 3.72935 5.426 4.27551C4.87852 4.82166 4.44398 5.4703 4.14719 6.1844C3.85039 6.89849 3.69716 7.66404 3.69622 8.43735V13.9356Z" fill="#272727"/>
<path d="M72.4849 37.5721V25.3901H71.381V9.79343C71.3815 8.53084 71.1332 7.28054 70.6503 6.11393C70.1675 4.94732 69.4595 3.88727 68.5669 2.99432C67.6743 2.10138 66.6145 1.39304 65.4481 0.90976C64.2816 0.426483 63.0314 0.17774 61.7689 0.17774H10.1302C8.86659 0.176341 7.61507 0.424025 6.44721 0.906632C5.27935 1.38924 4.21807 2.0973 3.32404 2.99034C2.43001 3.88338 1.72077 4.94388 1.23687 6.1112C0.752976 7.27852 0.503905 8.52978 0.503906 9.79343V133.725C0.503906 134.988 0.75265 136.238 1.23593 137.405C1.7192 138.571 2.42754 139.631 3.32049 140.523C4.21344 141.416 5.27349 142.124 6.4401 142.607C7.6067 143.09 8.85701 143.338 10.1196 143.338H61.7689C63.0313 143.338 64.2814 143.09 65.4478 142.607C66.6142 142.124 67.674 141.416 68.5667 140.523C69.4594 139.631 70.1674 138.571 70.6503 137.404C71.1331 136.238 71.3815 134.988 71.381 133.725V47.9545H72.4849V40.756H71.381V37.5614L72.4849 37.5721ZM68.3639 126.857C68.3639 129.407 67.3508 131.853 65.5475 133.656C63.7442 135.46 61.2984 136.473 58.7482 136.473H13.1509C10.6007 136.473 8.15487 135.46 6.35158 133.656C4.54828 131.853 3.53521 129.407 3.53521 126.857V11.9906C3.53615 9.44096 4.54964 6.99609 6.35283 5.19356C8.15602 3.39104 10.6013 2.37845 13.1509 2.37845H32.2154L32.2367 2.44589C32.8047 4.47622 34.0967 5.7931 35.5378 5.7931H36.3542C37.7953 5.7931 39.0909 4.47268 39.6553 2.44234L39.6801 2.3749H58.7411C61.2907 2.3749 63.736 3.38749 65.5392 5.19001C67.3424 6.99254 68.3559 9.43741 68.3568 11.987L68.3639 126.857Z" fill="#00C2CB"/>
<path d="M61.7677 143.515H10.1291C7.53327 143.512 5.04452 142.48 3.20865 140.645C1.37279 138.809 0.339695 136.321 0.335938 133.725V9.79316C0.339693 7.19701 1.37268 4.70826 3.20844 2.8725C5.0442 1.03674 7.53294 0.00375575 10.1291 0H61.7677C64.3635 0.00375782 66.8519 1.03685 68.6871 2.87272C70.5223 4.70858 71.5545 7.19733 71.5573 9.79316V25.2123H72.4838C72.5308 25.2123 72.576 25.231 72.6093 25.2643C72.6425 25.2976 72.6612 25.3427 72.6612 25.3898V37.5718C72.6612 37.6189 72.6425 37.664 72.6093 37.6973C72.576 37.7306 72.5308 37.7493 72.4838 37.7493H71.5573V40.5889H72.4838C72.5308 40.5889 72.576 40.6076 72.6093 40.6409C72.6425 40.6742 72.6612 40.7193 72.6612 40.7664V47.9648C72.6612 48.0119 72.6425 48.0571 72.6093 48.0903C72.576 48.1236 72.5308 48.1423 72.4838 48.1423H71.5573V133.725C71.5545 136.321 70.5222 138.809 68.6869 140.644C66.8516 142.48 64.3632 143.512 61.7677 143.515ZM10.1291 0.354953C7.6268 0.357772 5.22779 1.35306 3.45839 3.12245C1.68899 4.89185 0.693709 7.29086 0.690891 9.79316V133.725C0.693711 136.227 1.68911 138.626 3.45861 140.395C5.22811 142.163 7.62712 143.158 10.1291 143.16H61.7677C64.2691 143.157 66.6672 142.162 68.4359 140.393C70.2047 138.625 71.1996 136.227 71.2024 133.725V47.9542C71.2024 47.9071 71.2211 47.862 71.2544 47.8287C71.2876 47.7954 71.3328 47.7767 71.3799 47.7767H72.3063V40.9332H71.3799C71.3331 40.9323 71.2885 40.9133 71.2554 40.8802C71.2223 40.8471 71.2033 40.8025 71.2024 40.7557V37.5612C71.2024 37.5141 71.2211 37.469 71.2544 37.4357C71.2876 37.4024 71.3328 37.3837 71.3799 37.3837H72.3063V25.5673H71.3799C71.3331 25.5664 71.2885 25.5474 71.2554 25.5143C71.2223 25.4812 71.2033 25.4366 71.2024 25.3898V9.79316C71.2005 7.29119 70.206 4.89217 68.4372 3.12267C66.6683 1.35317 64.2697 0.357773 61.7677 0.354953H10.1291ZM58.7577 136.657H13.1498C10.5499 136.657 8.05644 135.625 6.21741 133.787C4.37838 131.949 3.34427 129.457 3.34239 126.857V11.9903C3.34615 9.3945 4.37925 6.90612 6.21511 5.07092C8.05097 3.23572 10.5397 2.20353 13.1356 2.20071H32.2001C32.2393 2.19967 32.2776 2.21217 32.3086 2.23609C32.3397 2.26001 32.3615 2.2939 32.3705 2.33204L32.3918 2.39948C32.9349 4.35528 34.1665 5.61891 35.5225 5.61891H36.3531C37.7125 5.61891 38.9407 4.35528 39.4837 2.39948L39.5086 2.32494C39.5193 2.28903 39.5413 2.25753 39.5714 2.23514C39.6014 2.21275 39.6379 2.20068 39.6754 2.20071H58.74C61.3358 2.20353 63.8246 3.23572 65.6604 5.07092C67.4963 6.90612 68.5294 9.3945 68.5331 11.9903V126.857C68.5294 129.452 67.4974 131.939 65.6631 133.775C63.8289 135.611 61.342 136.644 58.7471 136.65L58.7577 136.657ZM13.1498 2.55566C10.6453 2.55378 8.24265 3.54661 6.47008 5.31586C4.69752 7.0851 3.70017 9.48589 3.69735 11.9903V126.857C3.70016 129.359 4.69545 131.758 6.46485 133.527C8.23424 135.297 10.6333 136.292 13.1356 136.295H58.7471C61.2494 136.292 63.6484 135.297 65.4178 133.527C67.1872 131.758 68.1825 129.359 68.1853 126.857V11.9903C68.1825 9.48835 67.1871 7.0897 65.4176 5.32087C63.6481 3.55204 61.249 2.55754 58.7471 2.55566H39.8174C39.2211 4.63214 37.8687 5.97386 36.3602 5.97386H35.5367C34.0281 5.97386 32.6757 4.63214 32.0794 2.55566H13.1498Z" fill="#272727"/>
<path d="M60.9984 1.50098H10.9003C8.44349 1.50191 6.08744 2.47756 4.34923 4.21377C2.61102 5.94999 1.63267 8.30492 1.62891 10.7617V132.741C1.62891 135.2 2.60571 137.559 4.34443 139.297C6.08315 141.036 8.44136 142.013 10.9003 142.013H60.9984C63.4573 142.013 65.8155 141.036 67.5543 139.297C69.293 137.559 70.2698 135.2 70.2698 132.741V10.7617C70.266 8.30492 69.2877 5.94999 67.5495 4.21377C65.8112 2.47756 63.4552 1.50191 60.9984 1.50098ZM68.3637 127.186C68.3627 129.646 67.3852 132.004 65.6459 133.742C63.9066 135.481 61.548 136.458 59.0887 136.458H12.8099C10.3507 136.458 7.99211 135.481 6.25283 133.742C4.51354 132.004 3.53595 129.646 3.53501 127.186V11.6455C3.53501 10.4282 3.77484 9.22273 4.24082 8.09808C4.70679 6.97342 5.38977 5.95159 6.25075 5.09094C7.11172 4.2303 8.13382 3.54771 9.25865 3.08216C10.3835 2.61662 11.589 2.37725 12.8064 2.37771H32.2152L32.2365 2.44515C32.8045 4.47549 34.0965 5.79236 35.5376 5.79236H36.354C37.7951 5.79236 39.0907 4.47194 39.6551 2.4416L39.6799 2.37416H59.0817C60.3004 2.37276 61.5074 2.61166 62.6337 3.07718C63.7601 3.54271 64.7835 4.22573 65.6457 5.08717C66.5078 5.94862 67.1916 6.97158 67.6579 8.09754C68.1243 9.2235 68.3642 10.4304 68.3637 11.6491V127.186Z" fill="#272727"/>
<path d="M60.9962 142.191H10.8981C8.39295 142.188 5.99123 141.192 4.21984 139.42C2.44844 137.649 1.45204 135.247 1.44922 132.742V10.7623C1.45204 8.25721 2.44844 5.85549 4.21984 4.0841C5.99123 2.3127 8.39295 1.3163 10.8981 1.31348H60.9962C63.5013 1.3163 65.903 2.3127 67.6744 4.0841C69.4458 5.85549 70.4422 8.25721 70.445 10.7623V132.742C70.4422 135.247 69.4458 137.649 67.6744 139.42C65.903 141.192 63.5013 142.188 60.9962 142.191ZM10.8981 1.68263C8.48954 1.68544 6.18025 2.6425 4.47583 4.34426C2.77141 6.04602 1.81074 8.35381 1.80417 10.7623V132.742C1.80699 135.153 2.766 137.464 4.47083 139.169C6.17566 140.874 8.48709 141.833 10.8981 141.836H60.9962C63.4072 141.833 65.7186 140.874 67.4234 139.169C69.1283 137.464 70.0873 135.153 70.0901 132.742V10.7623C70.0873 8.35135 69.1283 6.03991 67.4234 4.33508C65.7186 2.63026 63.4072 1.67125 60.9962 1.66843L10.8981 1.68263ZM59.0865 136.65H12.8077C11.5647 136.651 10.3338 136.406 9.18528 135.931C8.03676 135.455 6.99314 134.758 6.11404 133.88C5.23494 133.001 4.53758 131.958 4.06179 130.809C3.58601 129.661 3.34112 128.43 3.34112 127.187V11.6462C3.34488 9.14165 4.3417 6.74085 6.11299 4.97022C7.88428 3.1996 10.2855 2.20368 12.79 2.20086H32.1988C32.238 2.19982 32.2763 2.21231 32.3074 2.23624C32.3384 2.26016 32.3602 2.29405 32.3692 2.33219L32.3905 2.39963C32.9336 4.35543 34.1653 5.61906 35.5212 5.61906H36.3518C37.7113 5.61906 38.9394 4.35543 39.4825 2.39963L39.5073 2.32509C39.518 2.28917 39.5401 2.25768 39.5701 2.23529C39.6002 2.2129 39.6367 2.20083 39.6741 2.20086H59.0794C61.5861 2.2018 63.99 3.19726 65.7635 4.96876C67.537 6.74025 68.5352 9.14303 68.5389 11.6497V127.187C68.5389 129.695 67.5434 132.1 65.7711 133.875C63.9987 135.649 61.5945 136.647 59.0865 136.65ZM12.8042 2.55581C10.3911 2.55393 8.07597 3.51049 6.36797 5.21516C4.65997 6.91983 3.6989 9.23305 3.69607 11.6462V127.187C3.69983 129.598 4.65963 131.91 6.36502 133.615C8.07041 135.319 10.3822 136.278 12.7935 136.281H59.0865C61.4979 136.278 63.8097 135.319 65.5151 133.615C67.2204 131.91 68.1802 129.598 68.184 127.187V11.6497C68.1812 9.23811 67.2217 6.92615 65.5161 5.22122C63.8105 3.51629 61.4981 2.55769 59.0865 2.55581H39.8161C39.2198 4.63229 37.8674 5.97401 36.3589 5.97401H35.5354C34.0268 5.97401 32.6745 4.63229 32.0781 2.55581H12.8042Z" fill="#272727"/>
<path d="M36.6508 2.83651C36.6501 2.65835 36.5966 2.48438 36.4971 2.33659C36.3977 2.18879 36.2566 2.07379 36.0918 2.00609C35.927 1.9384 35.7458 1.92105 35.5712 1.95624C35.3965 1.99142 35.2362 2.07757 35.1105 2.2038C34.9847 2.33003 34.8992 2.49068 34.8647 2.66547C34.8302 2.84026 34.8483 3.02136 34.9166 3.18589C34.985 3.35043 35.1005 3.49103 35.2487 3.58994C35.3969 3.68885 35.5711 3.74164 35.7492 3.74164C35.8679 3.74164 35.9855 3.7182 36.0951 3.67267C36.2047 3.62714 36.3042 3.56042 36.388 3.47632C36.4718 3.39222 36.5381 3.29242 36.5832 3.18262C36.6283 3.07283 36.6513 2.9552 36.6508 2.83651Z" fill="white"/>
<path d="M9.29661 6.29662C9.29661 7.20885 8.2708 7.53895 8.2637 8.23466V8.27726H9.26112V8.58606H7.93359V8.32695C7.93359 7.34728 8.95941 7.15915 8.95941 6.30371C8.95941 5.99491 8.85292 5.82808 8.60446 5.82808C8.35599 5.82808 8.2495 6.00555 8.2495 6.27532V6.54153H7.93359V6.29662C7.93359 5.83163 8.14302 5.52637 8.61156 5.52637C9.08009 5.52637 9.29661 5.83163 9.29661 6.29662Z" fill="#272727"/>
<path d="M10.9557 6.28987V6.36796C10.9707 6.49632 10.9444 6.62612 10.8806 6.73849C10.8168 6.85085 10.7187 6.9399 10.6007 6.99268C10.7197 7.04518 10.8185 7.1347 10.8825 7.24791C10.9464 7.36112 10.9721 7.49196 10.9557 7.62095V7.85522C10.9557 8.31666 10.7392 8.61837 10.2706 8.61837C9.8021 8.61837 9.59268 8.31666 9.59268 7.85522V7.6458H9.90859V7.87652C9.90859 8.14628 10.0186 8.31311 10.2635 8.31311C10.5085 8.31311 10.6185 8.15338 10.6185 7.84457V7.6103C10.6185 7.31214 10.4907 7.17016 10.2351 7.16306H10.0541V6.8578H10.2529C10.305 6.85856 10.3567 6.84782 10.4043 6.82633C10.4518 6.80485 10.494 6.77315 10.5279 6.7335C10.5618 6.69385 10.5865 6.64722 10.6003 6.59692C10.6142 6.54663 10.6167 6.4939 10.6078 6.4425V6.30407C10.6078 5.99171 10.4978 5.83198 10.2529 5.83198C10.008 5.83198 9.89794 6.00236 9.89794 6.27568V6.42831H9.58203V6.28987C9.58203 5.82844 9.79855 5.53027 10.26 5.53027C10.7214 5.53027 10.9557 5.82844 10.9557 6.28987Z" fill="#272727"/>
<path d="M11.6078 6.52051V6.93935H11.2812V6.52051H11.6078ZM11.6078 8.17104V8.58989H11.2812V8.17104H11.6078Z" fill="#272727"/>
<path d="M12.2928 6.79383C12.3361 6.71401 12.401 6.64802 12.4802 6.60344C12.5593 6.55886 12.6493 6.5375 12.7401 6.54181C13.1305 6.54181 13.3044 6.82933 13.3044 7.25172V7.84449C13.3044 8.30593 13.0844 8.60764 12.6194 8.60764C12.1544 8.60764 11.9414 8.30593 11.9414 7.84449V7.63862H12.2573V7.86579C12.2573 8.13555 12.3709 8.30238 12.6123 8.30238C12.8536 8.30238 12.9672 8.13555 12.9672 7.86579V7.28722C12.9672 7.0139 12.8536 6.85062 12.6123 6.85062C12.5674 6.8467 12.5221 6.85212 12.4794 6.86654C12.4367 6.88097 12.3974 6.90408 12.3641 6.93442C12.3307 6.96476 12.304 7.00168 12.2857 7.04285C12.2673 7.08402 12.2576 7.12855 12.2573 7.17363V7.24462H11.945L12.0266 5.55859H13.2192V5.86385H12.3283L12.2928 6.79383Z" fill="#272727"/>
<path d="M14.9891 6.28632V6.34312H14.6732V6.26503C14.6732 5.99171 14.5631 5.83198 14.3182 5.83198C14.0733 5.83198 13.9633 5.99881 13.9633 6.32182V6.99978C13.9996 6.9006 14.0668 6.8157 14.1549 6.75755C14.2431 6.69941 14.3476 6.67109 14.4531 6.67677C14.8435 6.67677 15.0175 6.95719 15.0175 7.38668V7.84812C15.0175 8.30956 14.7867 8.61127 14.3076 8.61127C13.8284 8.61127 13.5977 8.30956 13.5977 7.84812V6.30762C13.5977 5.82844 13.8142 5.53027 14.3076 5.53027C14.8009 5.53027 14.9891 5.82489 14.9891 6.28632ZM13.9455 7.42218V7.87652C13.9455 8.14628 14.0591 8.31311 14.3005 8.31311C14.5418 8.31311 14.6554 8.14628 14.6554 7.87652V7.42218C14.6554 7.14886 14.5383 6.98558 14.3005 6.98558C14.0626 6.98558 13.9455 7.14886 13.9455 7.42218Z" fill="#272727"/>
<path d="M48.0586 6.4209H47.2031V8.55772H48.0586V6.4209Z" fill="#272727"/>
<path d="M49.1992 5.99121H48.3438V8.55752H49.1992V5.99121Z" fill="#272727"/>
<path d="M50.3398 5.68652H49.4844V8.5581H50.3398V5.68652Z" fill="#272727"/>
<path d="M51.4804 5.15723H50.625V8.55768H51.4804V5.15723Z" fill="#272727"/>
<path d="M62.0634 8.50107H56.9414V5.36328H62.0705L62.0634 8.50107ZM57.2183 8.21356H61.7794V5.64724H57.2183V8.21356Z" fill="#272727"/>
<path d="M60.3528 5.95996H57.6445V7.90511H60.3528V5.95996Z" fill="#272727"/>
<path d="M62.5327 6.56348H61.8867V7.30178H62.5327V6.56348Z" fill="#272727"/>
<path d="M55.053 7.81626C55.0182 7.81697 54.9839 7.80839 54.9536 7.79141C53.91 7.17024 53.2179 7.74527 53.1788 7.77011C53.1429 7.80566 53.0945 7.82561 53.044 7.82561C52.9934 7.82561 52.945 7.80566 52.9091 7.77011C52.8767 7.73155 52.8604 7.68194 52.8637 7.63166C52.867 7.58139 52.8896 7.53434 52.9268 7.50035C52.9623 7.4684 53.8462 6.71235 55.1382 7.47905C55.1599 7.49186 55.1788 7.50882 55.1939 7.52896C55.2091 7.5491 55.2201 7.57202 55.2263 7.59641C55.2326 7.6208 55.234 7.64619 55.2304 7.67112C55.2269 7.69606 55.2184 7.72005 55.2056 7.74172C55.1878 7.76524 55.1647 7.78425 55.1382 7.7972C55.1117 7.81014 55.0825 7.81667 55.053 7.81626Z" fill="#272727"/>
<path d="M55.434 7.17323C55.3999 7.17426 55.3663 7.16431 55.3382 7.14484C53.8261 6.2468 52.8109 7.11644 52.8003 7.12354C52.7644 7.15909 52.7159 7.17903 52.6654 7.17903C52.6149 7.17903 52.5664 7.15909 52.5305 7.12354C52.4978 7.08439 52.4815 7.0342 52.4848 6.98334C52.4881 6.93247 52.5108 6.88482 52.5482 6.85022C52.5482 6.85022 53.787 5.78536 55.5334 6.85022C55.5689 6.87204 55.5963 6.90482 55.6115 6.94361C55.6267 6.9824 55.6288 7.02508 55.6176 7.06519C55.6064 7.1053 55.5824 7.14066 55.5492 7.16592C55.5161 7.19118 55.4757 7.20496 55.434 7.20518V7.17323Z" fill="#272727"/>
<path d="M55.7849 6.42785C55.751 6.4272 55.7179 6.41739 55.6891 6.39945C53.7759 5.2636 52.4945 6.33201 52.4519 6.37816C52.4341 6.39629 52.4128 6.4107 52.3894 6.42053C52.3659 6.43036 52.3407 6.43543 52.3153 6.43543C52.2898 6.43543 52.2646 6.43036 52.2412 6.42053C52.2177 6.4107 52.1964 6.39629 52.1786 6.37816C52.1462 6.33959 52.1299 6.28998 52.1332 6.23971C52.1365 6.18943 52.1592 6.14238 52.1964 6.10839C52.2141 6.10839 53.7227 4.80216 55.8843 6.0871C55.9274 6.11361 55.9585 6.15581 55.9711 6.20481C55.9837 6.2538 55.9767 6.30577 55.9518 6.34976C55.9323 6.37527 55.907 6.3957 55.8779 6.4093C55.8489 6.42289 55.817 6.42926 55.7849 6.42785Z" fill="#272727"/>
<path d="M54.4733 8.139C54.4733 8.23463 54.4449 8.3281 54.3917 8.40756C54.3385 8.48702 54.2629 8.54889 54.1745 8.58532C54.086 8.62175 53.9888 8.6311 53.8951 8.61218C53.8013 8.59327 53.7153 8.54694 53.6479 8.47907C53.5806 8.4112 53.5349 8.32486 53.5167 8.23098C53.4984 8.13711 53.5085 8.03994 53.5456 7.95179C53.5827 7.86365 53.6451 7.7885 53.7249 7.73589C53.8048 7.68327 53.8985 7.65556 53.9941 7.65626C54.0573 7.65626 54.1199 7.66877 54.1783 7.69308C54.2367 7.71738 54.2897 7.75299 54.3342 7.79787C54.3787 7.84274 54.414 7.89598 54.4378 7.95453C54.4617 8.01308 54.4737 8.07577 54.4733 8.139Z" fill="#272727"/>
<path d="M56.6794 128.394L58.4081 126.665C58.5021 126.565 58.5533 126.431 58.5509 126.293C58.5484 126.155 58.4926 126.024 58.395 125.926C58.2975 125.828 58.1658 125.773 58.0279 125.77C57.89 125.768 57.7565 125.819 57.6555 125.913L55.9269 127.642L54.1983 125.913C54.0985 125.813 53.963 125.756 53.8215 125.756C53.6801 125.756 53.5443 125.811 53.444 125.911C53.3438 126.011 53.2873 126.147 53.2869 126.288C53.2866 126.429 53.3425 126.565 53.4423 126.665L55.1638 128.394L53.4316 130.123C53.3328 130.223 53.2773 130.358 53.2773 130.499C53.2773 130.64 53.3328 130.775 53.4316 130.875C53.532 130.975 53.668 131.031 53.8096 131.031C53.9513 131.031 54.0872 130.975 54.1877 130.875L55.9163 129.147L57.6449 130.875C57.6939 130.925 57.7525 130.965 57.8172 130.992C57.8818 131.018 57.9512 131.032 58.0212 131.031C58.0912 131.032 58.1607 131.019 58.2254 130.992C58.2901 130.965 58.3486 130.925 58.3974 130.875C58.4472 130.826 58.4867 130.767 58.5137 130.703C58.5407 130.638 58.5546 130.569 58.5546 130.499C58.5546 130.429 58.5407 130.36 58.5137 130.295C58.4867 130.23 58.4472 130.172 58.3974 130.123L56.6794 128.394Z" fill="#272727"/>
<path d="M14.2692 107.408V103.912L14.145 103.962L13.9391 104.022L13.7333 104.079C13.6895 104.089 13.6467 104.103 13.6055 104.122V103.571L13.79 103.497L14.0279 103.387C14.109 103.347 14.1873 103.302 14.2621 103.252C14.3274 103.207 14.387 103.155 14.4396 103.096H15.004V107.408H14.2692Z" fill="#272727"/>
<path d="M34.1523 107.409V106.891L35.2172 105.244C35.2953 105.123 35.3698 105.01 35.4373 104.889C35.5084 104.778 35.5656 104.659 35.6076 104.534C35.6542 104.408 35.677 104.275 35.6751 104.14C35.6804 104.016 35.6509 103.893 35.5899 103.785C35.5604 103.743 35.5204 103.708 35.4737 103.686C35.427 103.664 35.3753 103.654 35.3237 103.657C35.2751 103.654 35.2264 103.661 35.1806 103.678C35.1348 103.694 35.0929 103.72 35.0575 103.753C34.9912 103.822 34.9457 103.908 34.9261 104.002C34.9017 104.118 34.8898 104.237 34.8906 104.357V104.541H34.1807V104.35C34.1757 104.119 34.2154 103.89 34.2979 103.675C34.3655 103.489 34.4896 103.329 34.6528 103.217C34.8451 103.104 35.0651 103.046 35.2882 103.051C35.4399 103.038 35.5925 103.058 35.7358 103.109C35.8791 103.161 36.0097 103.242 36.1188 103.349C36.3146 103.58 36.4138 103.877 36.3956 104.179C36.3977 104.343 36.3725 104.506 36.3211 104.662C36.2701 104.806 36.2034 104.944 36.1223 105.074C36.0419 105.206 35.9531 105.341 35.8561 105.478L34.9723 106.82H36.2821V107.409H34.1523Z" fill="#272727"/>
<path d="M54.9233 107.473C54.6961 107.483 54.4705 107.431 54.2702 107.324C54.1079 107.222 53.9832 107.07 53.9152 106.891C53.8372 106.683 53.7999 106.463 53.8052 106.241V106.092H54.5151V106.216C54.5164 106.336 54.5295 106.455 54.5541 106.571C54.5695 106.655 54.6104 106.732 54.6713 106.791C54.7415 106.844 54.8283 106.871 54.9162 106.866C54.9604 106.869 55.0048 106.864 55.0469 106.85C55.0889 106.836 55.1277 106.814 55.1611 106.784C55.2223 106.72 55.262 106.638 55.2747 106.55C55.2937 106.433 55.3032 106.314 55.3031 106.195C55.3107 106.017 55.2754 105.839 55.2001 105.677C55.1576 105.61 55.0979 105.556 55.0273 105.521C54.9568 105.485 54.8779 105.469 54.799 105.475H54.6748V104.861H54.8097C54.8846 104.867 54.9601 104.857 55.0303 104.83C55.1004 104.803 55.1634 104.76 55.2143 104.704C55.2996 104.556 55.338 104.385 55.3244 104.215C55.3305 104.068 55.3025 103.922 55.2427 103.789C55.2101 103.736 55.163 103.693 55.107 103.666C55.0511 103.639 54.9885 103.629 54.9268 103.636C54.8641 103.629 54.8009 103.642 54.7457 103.673C54.6905 103.703 54.6459 103.75 54.618 103.806C54.5624 103.946 54.5347 104.096 54.5364 104.246V104.406H53.8265V104.2C53.8201 103.985 53.8639 103.771 53.9543 103.576C54.0375 103.407 54.1716 103.269 54.3376 103.182C54.5252 103.086 54.7341 103.039 54.9446 103.047C55.1581 103.039 55.3702 103.084 55.5622 103.178C55.7261 103.264 55.8589 103.4 55.942 103.565C56.034 103.758 56.079 103.969 56.0733 104.183C56.0739 104.412 56.0046 104.636 55.8746 104.825C55.7828 104.98 55.6356 105.094 55.4628 105.144C55.5761 105.18 55.6786 105.244 55.761 105.329C55.8537 105.43 55.9217 105.552 55.9597 105.684C56.0132 105.849 56.0385 106.022 56.0343 106.195C56.0374 106.427 56.0001 106.658 55.9243 106.877C55.859 107.065 55.7345 107.227 55.5693 107.338C55.3715 107.445 55.1471 107.491 54.9233 107.473Z" fill="#272727"/>
<path d="M14.6244 115.054V113.989H13.3359V113.361L14.4576 110.734H15.3166V113.404H15.7638V113.989H15.3237V115.054H14.6244ZM13.9536 113.411H14.6244V111.537L13.9536 113.411Z" fill="#272727"/>
<path d="M35.2899 115.119C35.0565 115.133 34.8243 115.077 34.6226 114.959C34.4634 114.853 34.3476 114.693 34.296 114.508C34.2294 114.285 34.1983 114.053 34.2037 113.82H34.9136C34.9113 113.949 34.9208 114.079 34.942 114.207C34.9531 114.303 34.994 114.394 35.0592 114.466C35.0922 114.499 35.1324 114.524 35.1767 114.539C35.221 114.555 35.2682 114.56 35.3147 114.554C35.3658 114.56 35.4173 114.551 35.4641 114.53C35.5108 114.509 35.5512 114.476 35.5809 114.434C35.6376 114.331 35.6704 114.217 35.6768 114.1C35.6768 113.955 35.6981 113.788 35.6981 113.596C35.7007 113.45 35.6912 113.304 35.6697 113.159C35.6587 113.054 35.6195 112.953 35.5561 112.868C35.5223 112.832 35.4808 112.804 35.4347 112.787C35.3886 112.769 35.3391 112.762 35.2899 112.765C35.2426 112.765 35.1956 112.773 35.1517 112.791C35.1078 112.809 35.0679 112.835 35.0343 112.868C34.9627 112.947 34.9115 113.042 34.8852 113.145H34.2499L34.2925 110.742H36.2305V111.402H34.9136L34.871 112.442C34.9322 112.37 35.012 112.316 35.1018 112.286C35.2155 112.244 35.3355 112.221 35.4567 112.219C35.6523 112.199 35.8485 112.249 36.0104 112.361C36.16 112.48 36.2692 112.642 36.3228 112.826C36.3941 113.056 36.4288 113.295 36.4257 113.536C36.4276 113.746 36.4122 113.956 36.3796 114.164C36.356 114.339 36.2994 114.507 36.2128 114.661C36.1285 114.802 36.0052 114.915 35.8578 114.987C35.682 115.077 35.4871 115.122 35.2899 115.119Z" fill="#272727"/>
<path d="M54.9504 115.119C54.7192 115.128 54.4911 115.062 54.3008 114.931C54.1348 114.8 54.0113 114.624 53.9458 114.423C53.8692 114.194 53.8308 113.954 53.8323 113.713V112.201C53.829 111.945 53.8613 111.689 53.9281 111.441C53.9855 111.229 54.11 111.041 54.2831 110.905C54.4822 110.764 54.7241 110.695 54.9681 110.71C55.181 110.701 55.393 110.743 55.5857 110.834C55.7402 110.91 55.8651 111.035 55.9407 111.189C56.0198 111.375 56.0574 111.576 56.0507 111.779C56.0507 111.779 56.0507 111.8 56.0507 111.814C56.0525 111.826 56.0525 111.838 56.0507 111.85H55.3408C55.3486 111.702 55.3256 111.555 55.2734 111.417C55.2435 111.366 55.1992 111.325 55.1461 111.3C55.0929 111.275 55.0334 111.266 54.9752 111.275C54.9341 111.273 54.893 111.279 54.8546 111.294C54.8161 111.309 54.7811 111.331 54.7516 111.36C54.684 111.438 54.6408 111.534 54.6274 111.637C54.5954 111.809 54.5811 111.983 54.5848 112.158V112.673C54.6405 112.588 54.7193 112.52 54.8119 112.478C54.9594 112.419 55.1186 112.396 55.2765 112.411C55.4344 112.426 55.5866 112.478 55.7206 112.563C55.8602 112.677 55.9617 112.83 56.0117 113.003C56.0714 113.213 56.1001 113.431 56.0969 113.649C56.1002 113.904 56.0643 114.158 55.9904 114.402C55.9281 114.609 55.8043 114.792 55.6354 114.927C55.4358 115.068 55.1939 115.135 54.9504 115.119ZM54.9504 114.547C54.9941 114.55 55.038 114.543 55.0786 114.526C55.1192 114.51 55.1555 114.484 55.1846 114.451C55.2446 114.374 55.2837 114.282 55.2982 114.185C55.321 114.054 55.3317 113.921 55.3302 113.788C55.3302 113.631 55.3302 113.489 55.3124 113.369C55.3051 113.264 55.2709 113.162 55.213 113.074C55.1804 113.036 55.1392 113.007 55.0929 112.989C55.0465 112.97 54.9965 112.963 54.9468 112.968C54.8896 112.967 54.8329 112.978 54.78 113C54.7307 113.022 54.6852 113.052 54.6451 113.088C54.6114 113.12 54.5816 113.156 54.5564 113.195V113.873C54.5567 113.985 54.5686 114.097 54.5919 114.206C54.6104 114.299 54.6533 114.385 54.7161 114.455C54.7472 114.486 54.7845 114.51 54.8255 114.525C54.8665 114.54 54.9102 114.547 54.9539 114.544L54.9504 114.547Z" fill="#272727"/>
<path d="M13.8259 122.7L14.699 118.952H13.5312V118.388H15.409V118.838L14.5393 122.7H13.8259Z" fill="#272727"/>
<path d="M35.2548 122.757C35.0235 122.768 34.7939 122.711 34.5946 122.593C34.4282 122.483 34.3032 122.321 34.2397 122.132C34.1648 121.911 34.1288 121.68 34.1332 121.447C34.1313 121.328 34.142 121.209 34.1651 121.092C34.1865 120.992 34.2211 120.895 34.2681 120.804C34.3101 120.722 34.3652 120.646 34.4313 120.581C34.4938 120.515 34.567 120.459 34.6479 120.417C34.5151 120.325 34.4047 120.203 34.3248 120.063C34.2322 119.88 34.1859 119.678 34.19 119.473C34.1855 119.265 34.2241 119.059 34.3035 118.866C34.375 118.699 34.4998 118.561 34.6585 118.472C34.8415 118.374 35.0473 118.327 35.2548 118.334C35.4624 118.326 35.6684 118.374 35.8511 118.472C36.009 118.562 36.1336 118.7 36.2061 118.866C36.2876 119.058 36.3252 119.265 36.3161 119.473C36.3216 119.679 36.2765 119.882 36.1848 120.066C36.1091 120.208 36.0008 120.329 35.8689 120.421C35.9508 120.463 36.0252 120.518 36.089 120.584C36.154 120.65 36.2079 120.725 36.2487 120.808C36.2957 120.899 36.3303 120.995 36.3516 121.095C36.3761 121.212 36.388 121.331 36.3871 121.45C36.3951 121.683 36.3589 121.916 36.2806 122.135C36.2159 122.324 36.0912 122.486 35.9257 122.597C35.7228 122.715 35.4893 122.771 35.2548 122.757ZM35.2548 122.199C35.3039 122.203 35.3532 122.196 35.3988 122.177C35.4444 122.159 35.485 122.13 35.5175 122.093C35.5809 122.016 35.6215 121.922 35.6346 121.823C35.652 121.713 35.6603 121.601 35.6595 121.489C35.6643 121.371 35.656 121.252 35.6346 121.135C35.6171 121.035 35.5757 120.941 35.5139 120.861C35.4817 120.825 35.4416 120.796 35.3967 120.778C35.3518 120.76 35.3033 120.752 35.2548 120.755C35.2074 120.752 35.16 120.76 35.1162 120.778C35.0725 120.797 35.0336 120.825 35.0028 120.861C34.9399 120.94 34.8973 121.032 34.8786 121.131C34.8565 121.248 34.8458 121.367 34.8466 121.486C34.8453 121.599 34.8548 121.712 34.875 121.823C34.8894 121.923 34.9312 122.016 34.9957 122.093C35.0267 122.132 35.0662 122.163 35.111 122.185C35.1559 122.206 35.2051 122.217 35.2548 122.217V122.199ZM35.2548 120.137C35.2944 120.138 35.3336 120.13 35.3698 120.114C35.406 120.098 35.4382 120.075 35.4642 120.045C35.5223 119.976 35.5603 119.892 35.5743 119.803C35.597 119.687 35.6077 119.568 35.6062 119.448C35.6122 119.31 35.5854 119.173 35.5281 119.047C35.5025 118.998 35.463 118.957 35.4144 118.93C35.3658 118.903 35.3103 118.891 35.2548 118.895C35.1994 118.891 35.1441 118.904 35.0956 118.931C35.0471 118.958 35.0075 118.998 34.9815 119.047C34.9174 119.168 34.8868 119.304 34.8928 119.441C34.8908 119.561 34.9027 119.68 34.9283 119.796C34.9426 119.887 34.982 119.972 35.0419 120.041C35.0685 120.071 35.1013 120.096 35.138 120.112C35.1747 120.129 35.2146 120.137 35.2548 120.137Z" fill="#272727"/>
<path d="M35.2549 130.25C35.0359 130.26 34.8188 130.206 34.6302 130.094C34.4645 129.987 34.3347 129.832 34.2575 129.65C34.1701 129.445 34.1278 129.224 34.1333 129.001V127.088C34.1282 126.862 34.1692 126.637 34.254 126.427C34.3227 126.246 34.4469 126.091 34.6089 125.984C34.8043 125.879 35.0226 125.824 35.2443 125.824C35.466 125.824 35.6843 125.879 35.8797 125.984C36.0406 126.092 36.1645 126.247 36.2346 126.427C36.3177 126.637 36.3587 126.862 36.3553 127.088V129.001C36.3597 129.224 36.3161 129.446 36.2275 129.65C36.1503 129.832 36.0205 129.987 35.8548 130.094C35.6734 130.201 35.4656 130.255 35.2549 130.25ZM35.2549 129.618C35.3006 129.622 35.3464 129.614 35.3889 129.597C35.4313 129.58 35.4693 129.553 35.4999 129.519C35.555 129.446 35.5915 129.361 35.6063 129.271C35.6246 129.178 35.6341 129.084 35.6347 128.99V127.098C35.6334 127 35.6251 126.901 35.6099 126.804C35.5962 126.714 35.5609 126.628 35.507 126.555C35.4756 126.52 35.4365 126.493 35.3927 126.476C35.349 126.458 35.3018 126.452 35.2549 126.456C35.2086 126.452 35.162 126.458 35.1188 126.476C35.0756 126.493 35.0371 126.52 35.0065 126.555C34.9514 126.628 34.9148 126.713 34.9 126.804C34.886 126.901 34.8789 127 34.8787 127.098V128.99C34.8776 129.084 34.8871 129.178 34.9071 129.271C34.9231 129.361 34.9609 129.446 35.0171 129.519C35.0465 129.553 35.0832 129.579 35.1244 129.597C35.1657 129.614 35.2103 129.621 35.2549 129.618Z" fill="#272727"/>
<path d="M54.8761 122.757C54.664 122.765 54.4532 122.722 54.262 122.63C54.1048 122.549 53.9796 122.418 53.907 122.257C53.8279 122.068 53.7903 121.865 53.797 121.661V121.604H54.5069C54.4995 121.75 54.5237 121.897 54.5779 122.033C54.6091 122.085 54.6546 122.126 54.7088 122.152C54.7631 122.177 54.8236 122.187 54.8832 122.179C54.9244 122.181 54.9656 122.175 55.0041 122.16C55.0427 122.146 55.0777 122.123 55.1068 122.094C55.1709 122.011 55.2113 121.913 55.2239 121.81C55.2525 121.64 55.2656 121.467 55.263 121.295V120.777C55.2095 120.862 55.1315 120.929 55.0393 120.968C54.9273 121.017 54.8065 121.042 54.6844 121.043C54.4879 121.056 54.293 121 54.1342 120.883C53.9938 120.763 53.8925 120.604 53.8431 120.425C53.7807 120.215 53.7508 119.996 53.7544 119.776C53.7491 119.523 53.7863 119.271 53.8644 119.03C53.9278 118.829 54.0518 118.652 54.2194 118.523C54.4131 118.393 54.6431 118.328 54.8761 118.338C55.1065 118.327 55.3344 118.39 55.5256 118.519C55.6913 118.642 55.8152 118.813 55.8806 119.009C55.9584 119.238 55.9968 119.478 55.9942 119.719V121.245C55.9978 121.503 55.9644 121.76 55.8948 122.008C55.8374 122.222 55.713 122.411 55.5398 122.548C55.3492 122.692 55.1148 122.766 54.8761 122.757ZM54.8761 120.486C54.9617 120.49 55.0462 120.464 55.1139 120.411C55.1696 120.366 55.2176 120.312 55.2559 120.251V119.581C55.257 119.467 55.2463 119.354 55.2239 119.243C55.208 119.153 55.1689 119.069 55.1103 118.998C55.0802 118.966 55.0432 118.941 55.0021 118.924C54.961 118.907 54.9168 118.9 54.8725 118.903C54.8293 118.9 54.786 118.907 54.7461 118.924C54.7061 118.94 54.6704 118.966 54.6418 118.998C54.5793 119.075 54.5388 119.167 54.5247 119.265C54.5018 119.397 54.4912 119.531 54.4927 119.666C54.492 119.805 54.4991 119.943 54.514 120.081C54.518 120.186 54.5512 120.288 54.6098 120.376C54.6421 120.415 54.6836 120.446 54.7308 120.465C54.7779 120.484 54.829 120.491 54.8796 120.486H54.8761Z" fill="#272727"/>
</svg>
