<svg width="48" height="48" viewBox="0 0 48 48" fill="none" xmlns="http://www.w3.org/2000/svg">
<rect width="48" height="48" rx="8" fill="#BEF1F4" fill-opacity="0.6"/>
<g clip-path="url(#clip0_305_33894)">
<path d="M36.9348 16.4697L24.5706 10.2049L24.5654 10.2023C24.0149 9.92819 23.3607 9.93432 22.8153 10.2187L17.5123 13.0331C17.4692 13.0514 17.4278 13.0735 17.3882 13.099L11.0334 16.4717C10.3959 16.8055 10 17.4594 10 18.1792V29.8211C10 30.5408 10.3959 31.1947 11.0334 31.5285L22.8101 37.7788L22.8154 37.7816C23.0906 37.9249 23.3963 37.9995 23.7066 37.9993C24.0046 37.9995 24.2986 37.9306 24.5654 37.798L36.9348 31.5306C37.5919 31.202 38 30.5418 38 29.8069V18.1934C38 17.4585 37.5919 16.7983 36.9348 16.4697ZM23.5755 11.6719C23.6152 11.6516 23.6592 11.6408 23.7038 11.6404C23.7485 11.64 23.7926 11.65 23.8328 11.6696L35.4062 17.5337L30.9019 19.7762L19.5872 13.7886L23.5755 11.6719ZM22.8747 35.9565L11.7998 30.0785L11.7945 30.0757C11.7478 30.0515 11.7088 30.015 11.6815 29.9701C11.6543 29.9252 11.6399 29.8736 11.64 29.8211V18.9192L22.8747 24.7775V35.9565ZM23.7034 23.36L12.5305 17.5339L17.8365 14.7179L29.0953 20.6757L23.7034 23.36ZM36.3599 29.8068C36.3601 29.8602 36.3453 29.9127 36.3171 29.9582C36.289 30.0037 36.2486 30.0403 36.2007 30.064L24.5148 35.985V24.7881L29.8953 22.1094V24.9179C29.8953 25.3707 30.2625 25.7379 30.7154 25.7379C31.1682 25.7379 31.5354 25.3707 31.5354 24.9179V21.2929L36.3599 18.891V29.8068Z" fill="#00C2CB"/>
</g>
<defs>
<clipPath id="clip0_305_33894">
<rect width="28" height="28" fill="white" transform="translate(10 10)"/>
</clipPath>
</defs>
</svg>
