<svg width="234" height="179" viewBox="0 0 234 179" fill="none" xmlns="http://www.w3.org/2000/svg">
<path d="M36.4506 38.2591C70.1967 -0.257302 128.134 -6.66784 153.962 5.70397C163.998 10.4742 173.281 16.6966 181.515 24.1723C182.594 25.1385 183.642 26.132 184.66 27.153C187.838 30.2928 190.818 33.6277 193.584 37.1383C196.899 41.3379 199.888 45.7856 202.527 50.4425C206.308 57.0694 209.303 64.1172 211.451 71.4422C212.873 76.2484 213.805 81.1865 214.235 86.1811C214.972 95.5578 214.331 105.021 213.074 114.321C212.959 115.21 212.833 116.099 212.699 116.988C212.665 117.234 212.631 117.471 212.593 117.727C211.21 126.987 209.255 136.33 204.887 144.407C200.119 153.233 183.484 177.721 165.444 178.354C156.086 178.687 147.822 172.557 139.341 168.209C125.856 161.311 110.594 159.958 95.7121 159.557C80.8305 159.156 65.7659 159.586 51.2648 155.886C36.7637 152.185 22.5467 143.688 15.1348 129.562C12.616 124.76 10.704 117.843 10.6992 112.306C10.6992 95.9733 13.3577 81.6885 18.0003 69.278C19.4746 65.3207 21.1941 61.4598 23.1487 57.7178C26.0117 52.2308 29.3851 47.0274 33.2239 42.1769L36.4506 38.2591Z" fill="#00C2CB"/>
<g opacity="0.7">
<path d="M36.4506 38.2591C70.1967 -0.257302 128.134 -6.66784 153.962 5.70397C163.998 10.4742 173.281 16.6966 181.515 24.1723C182.594 25.1385 183.642 26.132 184.66 27.153C187.838 30.2928 190.818 33.6277 193.584 37.1383C196.899 41.3379 199.888 45.7856 202.527 50.4425C206.308 57.0694 209.303 64.1172 211.451 71.4422C212.873 76.2484 213.805 81.1865 214.235 86.1811C214.972 95.5578 214.331 105.021 213.074 114.321C212.959 115.21 212.833 116.099 212.699 116.988C212.665 117.234 212.631 117.471 212.593 117.727C211.21 126.987 209.255 136.33 204.887 144.407C200.119 153.233 183.484 177.721 165.444 178.354C156.086 178.687 147.822 172.557 139.341 168.209C125.856 161.311 110.594 159.958 95.7121 159.557C80.8305 159.156 65.7659 159.586 51.2648 155.886C36.7637 152.185 22.5467 143.688 15.1348 129.562C12.616 124.76 10.704 117.843 10.6992 112.306C10.6992 95.9733 13.3577 81.6885 18.0003 69.278C19.4746 65.3207 21.1941 61.4598 23.1487 57.7178C26.0117 52.2308 29.3851 47.0274 33.2239 42.1769L36.4506 38.2591Z" fill="white"/>
</g>
<path d="M1.40625 157.909H233.34" stroke="#272727" stroke-linecap="round" stroke-linejoin="round"/>
<path d="M179.901 79.668V79.7273C179.901 79.8244 179.922 79.9269 179.965 80.0347C180.206 81.2165 180.386 82.41 180.505 83.6104C180.607 84.6405 180.688 85.8162 180.71 87.1267C180.761 90.1555 180.553 93.1831 180.089 96.1765C179.971 96.9639 179.83 97.7944 179.663 98.625C179.399 99.9949 179.075 101.429 178.676 102.913C178.498 103.603 178.293 104.309 178.078 105.021L177.824 105.89C177.727 106.24 177.63 106.591 177.538 106.968C176.918 109.364 176.423 111.791 176.055 114.238C175.597 117.285 175.311 120.311 175.155 123.175C174.944 126.993 174.955 130.52 175.047 133.422C175.044 133.47 175.044 133.519 175.047 133.567C175.144 136.517 175.327 138.831 175.451 140.147C175.521 140.918 175.57 141.355 175.575 141.382" stroke="#272727" stroke-linecap="round" stroke-linejoin="round"/>
<path d="M179.917 79.7429C179.11 79.0253 178.137 78.5194 177.086 78.2705L179.917 79.7429Z" fill="white"/>
<path d="M179.917 79.7429C179.11 79.0253 178.137 78.5194 177.086 78.2705" stroke="#272727" stroke-linecap="round" stroke-linejoin="round"/>
<path d="M180.52 83.6249L181.954 82.3252" stroke="#272727" stroke-linecap="round" stroke-linejoin="round"/>
<path d="M178.69 102.918C178.615 102.539 178.503 102.169 178.356 101.812C178.143 101.289 177.854 100.8 177.498 100.362C177.233 100.032 176.93 99.7335 176.598 99.4717" stroke="#272727" stroke-linecap="round" stroke-linejoin="round"/>
<path d="M177.543 106.964C177.746 106.46 178.051 106.003 178.438 105.622C178.824 105.241 179.285 104.943 179.792 104.747" stroke="#272727" stroke-linecap="round" stroke-linejoin="round"/>
<path d="M175.051 127.026C175.531 126.443 175.892 124.238 176.086 123.051C176.135 122.771 176.173 122.512 176.21 122.355" fill="white"/>
<path d="M175.051 127.026C175.531 126.443 175.892 124.238 176.086 123.051C176.135 122.771 176.173 122.512 176.21 122.355" stroke="#272727" stroke-linecap="round" stroke-linejoin="round"/>
<path d="M171.355 131.027C171.515 131.011 171.676 131.011 171.835 131.027C172.542 131.095 173.216 131.355 173.786 131.778C174.356 132.201 174.801 132.771 175.071 133.427" fill="white"/>
<path d="M171.355 131.027C171.515 131.011 171.676 131.011 171.835 131.027C172.542 131.095 173.216 131.355 173.786 131.778C174.356 132.201 174.801 132.771 175.071 133.427" stroke="#272727" stroke-linecap="round" stroke-linejoin="round"/>
<path d="M179.677 98.668C179.677 98.668 179.93 89.9149 175.125 86.7383" stroke="#272727" stroke-linecap="round" stroke-linejoin="round"/>
<path d="M180.086 117.43C180.717 119.474 176.311 123.362 176.311 123.362C176.311 123.362 170.492 122.634 169.839 120.596C169.187 118.557 170.681 115.203 173.507 114.34C176.333 113.477 179.477 115.386 180.086 117.43Z" fill="#00C2CB"/>
<path d="M184.99 92.6605C184.451 94.8177 180.266 96.3656 180.266 96.3656C180.266 96.3656 177.391 93.0056 177.931 90.8376C178.47 88.6695 180.794 86.2857 182.747 86.7873C184.699 87.2889 185.551 90.4924 184.99 92.6605Z" fill="#00C2CB"/>
<path d="M168.276 125.058C170.892 126.071 172.493 130.699 172.493 130.699C172.493 130.699 168.179 133.023 165.569 132.004C162.958 130.985 160.175 128.115 160.93 126.201C161.686 124.286 165.66 124.017 168.276 125.058Z" fill="#00C2CB"/>
<path d="M174.009 99.601C174.538 100.046 175.145 100.39 175.799 100.615C176.128 100.721 176.479 100.735 176.815 100.655C177.151 100.575 177.458 100.405 177.703 100.162C178.243 99.5201 178.113 98.5439 177.763 97.7404C177.061 96.2033 174.484 93.5876 172.504 94.3373C169.646 95.4321 172.736 98.668 174.009 99.601Z" fill="#00C2CB"/>
<path d="M179.859 103.522C179.481 103.985 179.082 104.573 179.293 105.14C179.41 105.377 179.603 105.57 179.841 105.687C180.079 105.804 180.349 105.839 180.609 105.787C181.126 105.664 181.609 105.426 182.022 105.091C183.03 104.39 185.101 102.934 183.78 101.548C182.458 100.162 180.625 102.545 179.859 103.522Z" fill="#00C2CB"/>
<path d="M171.42 83.9601C171.202 83.9728 170.994 84.0535 170.825 84.1909C170.655 84.3283 170.534 84.5155 170.476 84.7259C170.39 85.2275 170.805 85.6643 171.204 85.9717C172.208 86.7483 175.222 88.8301 175.891 86.8184C176.527 84.92 172.747 83.8145 171.42 83.9601Z" fill="#00C2CB"/>
<path d="M176.973 77.3476C176.353 77.4069 175.733 77.1804 175.107 77.2181C174.481 77.2559 173.796 77.7574 173.931 78.3723C174.066 78.9871 174.762 79.1219 175.333 79.1543C176.318 79.2175 177.306 79.1504 178.273 78.9547C178.502 78.933 178.714 78.825 178.866 78.6527C179.119 78.2806 178.72 77.7844 178.289 77.655C177.846 77.5961 177.41 77.4913 176.989 77.3422L176.973 77.3476Z" fill="#00C2CB"/>
<path d="M183.043 81.6266C183.663 81.6266 184.267 81.3785 184.893 81.3731C185.518 81.3677 186.241 81.8261 186.138 82.4517C186.036 83.0773 185.367 83.2553 184.795 83.3254C183.818 83.4549 182.828 83.4549 181.851 83.3254C181.619 83.3201 181.399 83.2254 181.236 83.0612C180.961 82.7106 181.328 82.1875 181.743 82.0257C182.183 81.9436 182.611 81.8115 183.021 81.632L183.043 81.6266Z" fill="#00C2CB"/>
<path d="M182.428 127.586C182.571 127.436 182.762 127.343 182.968 127.321C183.106 127.334 183.236 127.396 183.334 127.494C183.433 127.592 183.494 127.722 183.507 127.861C183.537 128.127 183.503 128.397 183.41 128.648C182.984 130.066 178.238 140.308 177.143 138.469C176.501 137.39 178.087 133.782 178.556 132.763C179.451 130.774 180.773 129.006 182.428 127.586Z" fill="#00C2CB"/>
<path d="M180.115 80.3314C180.115 80.3314 179.829 77.8451 180.428 77.6348" stroke="#272727" stroke-linecap="round" stroke-linejoin="round"/>
<path d="M179.586 77.7364C179.892 76.8584 180.419 76.0744 181.118 75.4605C181.867 74.9211 183.07 74.878 183.615 75.6277C184.224 76.4636 183.615 77.731 182.682 78.1786C181.749 78.6263 180.648 78.4914 179.624 78.3458C179.624 78.1948 179.624 78.0438 179.624 77.8928L179.586 77.7364Z" fill="#00C2CB"/>
<path d="M182.14 157.782C177.056 158.639 171.864 158.639 166.78 157.782L160.805 140.151H188.116L182.14 157.782Z" fill="white" stroke="#272727" stroke-linecap="round" stroke-linejoin="round"/>
<path d="M77.914 30.4072V30.4666C77.9356 30.5636 77.9572 30.6661 77.9787 30.774C78.2231 31.9552 78.4031 33.1489 78.5181 34.3496C78.6205 35.3797 78.696 36.5554 78.723 37.866C78.7783 40.8871 78.5762 43.9074 78.119 46.8942C78.0003 47.6816 77.8601 48.5121 77.6929 49.3427C77.4286 50.7125 77.0997 52.1471 76.7059 53.6302C76.5226 54.3206 76.323 55.0271 76.1073 55.739C76.021 56.0302 75.9347 56.316 75.8538 56.6073C75.7729 56.8985 75.6543 57.3084 75.5626 57.6859C74.9431 60.082 74.4481 62.5086 74.0795 64.9559C73.6211 68.0031 73.3406 71.0286 73.1842 73.8924C72.9739 77.7108 72.9793 81.2379 73.0763 84.1394V84.285C73.1788 87.2351 73.3568 89.5488 73.4862 90.8701C73.5509 91.6359 73.6049 92.0728 73.6049 92.0998" stroke="#272727" stroke-linecap="round" stroke-linejoin="round"/>
<path d="M77.9228 30.4821C77.5358 30.1434 77.1126 29.8485 76.6607 29.603C76.1626 29.3405 75.6335 29.1412 75.0859 29.0098" fill="white"/>
<path d="M77.9228 30.4821C77.5358 30.1434 77.1126 29.8485 76.6607 29.603C76.1626 29.3405 75.6335 29.1412 75.0859 29.0098" stroke="#272727" stroke-linecap="round" stroke-linejoin="round"/>
<path d="M78.5312 34.3642L79.9712 33.0645" stroke="#272727" stroke-linecap="round" stroke-linejoin="round"/>
<path d="M76.7073 53.6552C76.6303 53.2765 76.5165 52.9062 76.3675 52.5496C76.1549 52.0263 75.866 51.5374 75.51 51.0989C75.2443 50.7693 74.9421 50.4708 74.6094 50.209" stroke="#272727" stroke-linecap="round" stroke-linejoin="round"/>
<path d="M75.5547 57.6785C75.756 57.1745 76.0591 56.7175 76.4452 56.3361C76.8312 55.9547 77.2919 55.6571 77.7983 55.4619" stroke="#272727" stroke-linecap="round" stroke-linejoin="round"/>
<path d="M73.0625 77.7633C73.5425 77.1808 73.9092 74.975 74.1034 73.7885C74.1465 73.5081 74.1897 73.2492 74.222 73.0928" fill="white"/>
<path d="M73.0625 77.7633C73.5425 77.1808 73.9092 74.975 74.1034 73.7885C74.1465 73.5081 74.1897 73.2492 74.222 73.0928" stroke="#272727" stroke-linecap="round" stroke-linejoin="round"/>
<path d="M69.3672 81.7445C69.5286 81.7284 69.6912 81.7284 69.8526 81.7445C70.5584 81.8149 71.2321 82.0753 71.8018 82.4978C72.3716 82.9204 72.8162 83.4895 73.0885 84.1445" fill="white"/>
<path d="M69.3672 81.7445C69.5286 81.7284 69.6912 81.7284 69.8526 81.7445C70.5584 81.8149 71.2321 82.0753 71.8018 82.4978C72.3716 82.9204 72.8162 83.4895 73.0885 84.1445" stroke="#272727" stroke-linecap="round" stroke-linejoin="round"/>
<path d="M77.6886 49.3848C77.6886 49.3848 77.9474 40.6317 73.1367 37.4551" stroke="#272727" stroke-linecap="round" stroke-linejoin="round"/>
<path d="M78.1233 68.1688C78.7489 70.2128 74.348 74.1013 74.348 74.1013C74.348 74.1013 68.5234 73.3732 67.8762 71.3346C67.229 69.296 68.7229 65.9414 71.5436 65.0785C74.3642 64.2156 77.4922 66.1302 78.1233 68.1688Z" fill="#00C2CB"/>
<path d="M83.0095 43.3978C82.4702 45.5551 78.2851 47.1029 78.2851 47.1029C78.2851 47.1029 75.3782 43.7429 75.939 41.5749C76.4999 39.4068 78.7974 37.0231 80.7498 37.5246C82.7021 38.0262 83.5488 41.2297 83.0095 43.3978Z" fill="#00C2CB"/>
<path d="M66.2919 75.7962C68.9076 76.8155 70.5148 81.4374 70.5148 81.4374C70.5148 81.4374 66.2003 83.7619 63.5846 82.7426C60.9689 81.7233 58.1914 78.8541 58.9518 76.9395C59.7123 75.0249 63.6709 74.7768 66.2919 75.7962Z" fill="#00C2CB"/>
<path d="M72.0274 50.3383C72.555 50.7833 73.1602 51.1271 73.8126 51.3522C74.1409 51.4585 74.4922 51.4725 74.828 51.3926C75.1637 51.3127 75.4711 51.142 75.7164 50.8992C76.2557 50.2574 76.1263 49.2812 75.7757 48.4777C75.0746 46.9406 72.502 44.3249 70.5173 45.0746C67.6644 46.1586 70.7493 49.3945 72.0274 50.3383Z" fill="#00C2CB"/>
<path d="M77.872 54.2663C77.4999 54.7301 77.1008 55.3449 77.3057 55.8843C77.423 56.1221 77.6157 56.3146 77.8536 56.4316C78.0916 56.5487 78.3617 56.5838 78.6217 56.5314C79.1393 56.4097 79.6225 56.1718 80.0347 55.8357C81.0432 55.14 83.1142 53.6785 81.7929 52.2924C80.4715 50.9064 78.6648 53.2848 77.872 54.2663Z" fill="#00C2CB"/>
<path d="M69.4319 34.6993C69.2144 34.7128 69.0065 34.7938 68.8373 34.9311C68.6681 35.0684 68.546 35.2551 68.488 35.4652C68.4018 35.9667 68.817 36.4036 69.2215 36.711C70.2246 37.4876 73.234 39.5694 73.9082 37.5577C74.5392 35.6593 70.764 34.5537 69.4319 34.6993Z" fill="#00C2CB"/>
<path d="M74.9804 28.0868C74.3601 28.1462 73.7399 27.9196 73.1197 27.9574C72.4995 27.9951 71.8038 28.4967 71.944 29.1115C72.0842 29.7264 72.7692 29.8612 73.3462 29.8935C74.3287 29.9567 75.3152 29.8896 76.2801 29.694C76.5106 29.6725 76.7245 29.5646 76.8788 29.392C77.1268 29.0199 76.7277 28.5237 76.3017 28.3942C75.857 28.3355 75.4196 28.2307 74.9965 28.0814L74.9804 28.0868Z" fill="#00C2CB"/>
<path d="M81.0504 32.3639C81.676 32.3639 82.2801 32.1158 82.9003 32.1104C83.5205 32.105 84.2486 32.5634 84.1515 33.189C84.0544 33.8146 83.3749 33.9926 82.8032 34.0627C81.8259 34.1922 80.8358 34.1922 79.8585 34.0627C79.6271 34.0574 79.4068 33.9627 79.2437 33.7985C78.9686 33.4479 79.3354 32.9248 79.7561 32.763C80.1953 32.6793 80.624 32.5473 81.0342 32.3693L81.0504 32.3639Z" fill="#00C2CB"/>
<path d="M80.4384 78.3248C80.5818 78.1765 80.7726 78.083 80.9777 78.0605C81.1152 78.0766 81.2432 78.1386 81.3411 78.2365C81.4389 78.3343 81.5009 78.4624 81.517 78.5999C81.5449 78.8667 81.5098 79.1364 81.4145 79.3873C80.9938 80.8057 76.2425 91.0473 75.153 89.2082C74.5059 88.1296 76.0915 84.5216 76.5607 83.5023C77.4576 81.5128 78.7815 79.7451 80.4384 78.3248Z" fill="#00C2CB"/>
<path d="M78.1223 31.0794C78.1223 31.0794 77.8364 28.5931 78.4405 28.3828" stroke="#272727" stroke-linecap="round" stroke-linejoin="round"/>
<path d="M77.6172 28.4756C77.919 27.5956 78.4473 26.8107 79.1488 26.1997C79.8985 25.6604 81.0958 25.6173 81.6405 26.3669C82.2499 27.2029 81.6405 28.4702 80.7075 28.9179C79.7745 29.3655 78.6796 29.2307 77.6549 29.0851C77.6549 28.9341 77.6549 28.783 77.6549 28.632L77.6172 28.4756Z" fill="#00C2CB"/>
<path d="M124.99 90.998H21.9805V157.906H124.99V90.998Z" fill="white" stroke="#272727" stroke-linecap="round" stroke-linejoin="round"/>
<path d="M21.9805 90.998L73.4853 124.452L124.99 90.998H21.9805Z" fill="white" stroke="#272727" stroke-linecap="round" stroke-linejoin="round"/>
<path d="M58.0015 114.393L21.9805 157.905" stroke="#272727" stroke-linecap="round" stroke-linejoin="round"/>
<path d="M89.25 114.393L125.271 157.905" stroke="#272727" stroke-linecap="round" stroke-linejoin="round"/>
<path d="M159.54 5.62505H135.594C134.904 5.62587 134.227 5.81137 133.634 6.16229C133.04 6.51321 132.551 7.01673 132.218 7.62052C131.629 8.68251 130.767 9.56762 129.721 10.1839C128.675 10.8002 127.483 11.1252 126.269 11.1252C125.055 11.1252 123.863 10.8002 122.817 10.1839C121.771 9.56762 120.909 8.68251 120.321 7.62052C119.99 7.00891 119.5 6.49807 118.903 6.14205C118.306 5.78602 117.623 5.59807 116.928 5.59808H93.0095C92.3529 5.58953 91.7011 5.71039 91.0913 5.95377C90.4815 6.19714 89.9255 6.55827 89.4553 7.01651C88.985 7.47476 88.6096 8.02115 88.3505 8.62448C88.0915 9.22782 87.9538 9.87628 87.9453 10.5328V145.589C87.9638 146.914 88.5074 148.178 89.4568 149.103C90.4063 150.029 91.6839 150.539 93.0095 150.523H159.54C160.866 150.539 162.144 150.029 163.094 149.104C164.045 148.179 164.589 146.915 164.609 145.589V10.5598C164.591 9.23334 164.046 7.96847 163.096 7.04315C162.145 6.11783 160.866 5.60777 159.54 5.62505Z" fill="#00C2CB"/>
<path d="M166.944 9.06648C166.947 8.1567 166.77 7.25531 166.424 6.41397C166.078 5.57262 165.569 4.80788 164.926 4.16356C164.284 3.51925 163.521 3.00803 162.681 2.65922C161.84 2.31041 160.94 2.13086 160.03 2.13086H92.5234C91.6157 2.13015 90.7168 2.30833 89.8779 2.6552C89.0391 3.00208 88.2769 3.51086 87.6348 4.15245C86.9927 4.79405 86.4833 5.5559 86.1358 6.39445C85.7883 7.23299 85.6094 8.13181 85.6094 9.03952V150.982C85.6094 152.815 86.3372 154.572 87.6329 155.868C88.9285 157.163 90.6857 157.891 92.518 157.891H160.03C161.863 157.891 163.62 157.163 164.917 155.868C166.213 154.573 166.942 152.815 166.944 150.982V9.06648ZM164.609 145.589C164.589 146.915 164.044 148.179 163.094 149.104C162.143 150.029 160.865 150.54 159.539 150.524H93.0088C91.6832 150.54 90.4056 150.029 89.4561 149.104C88.5067 148.179 87.9631 146.915 87.9446 145.589V10.5604C87.9531 9.90384 88.0908 9.25538 88.3498 8.65204C88.6089 8.0487 88.9843 7.50231 89.4546 7.04406C89.9248 6.58582 90.4808 6.2247 91.0906 5.98132C91.7004 5.73795 92.3522 5.61708 93.0088 5.62564H116.938C117.633 5.62544 118.315 5.81336 118.911 6.16946C119.507 6.52555 119.996 7.03651 120.325 7.64808C120.914 8.71007 121.776 9.59517 122.822 10.2115C123.868 10.8278 125.06 11.1528 126.274 11.1528C127.488 11.1528 128.68 10.8278 129.726 10.2115C130.772 9.59517 131.634 8.71007 132.223 7.64808C132.555 7.04353 133.044 6.53939 133.638 6.18835C134.231 5.83731 134.909 5.65228 135.599 5.6526H159.544C160.201 5.64405 160.853 5.76491 161.463 6.00828C162.072 6.25166 162.628 6.61278 163.099 7.07103C163.569 7.52927 163.944 8.07567 164.203 8.67901C164.462 9.28234 164.6 9.9308 164.609 10.5874V145.589Z" fill="#272727"/>
<path opacity="0.2" d="M144.008 2.15332L99.1641 157.903L116.972 157.887L160.155 2.15332H144.008Z" fill="white"/>
<path opacity="0.2" d="M137.318 2.15332L89.9062 157.908L92.5004 157.892L139.022 2.15332H137.318Z" fill="white"/>
<path d="M140.934 117.964C140.974 119.813 140.643 121.652 139.961 123.371C139.28 125.09 138.261 126.656 136.966 127.975C135.67 129.295 134.123 130.341 132.417 131.054C130.71 131.766 128.879 132.13 127.03 132.124C123.257 132.109 119.639 130.621 116.948 127.975C114.258 125.33 112.707 121.737 112.628 117.964C112.589 116.116 112.921 114.278 113.603 112.56C114.284 110.841 115.303 109.277 116.599 107.958C117.895 106.639 119.441 105.593 121.147 104.881C122.853 104.169 124.684 103.805 126.532 103.812C130.305 103.824 133.923 105.312 136.613 107.956C139.304 110.6 140.855 114.192 140.934 117.964Z" fill="white"/>
<path d="M122.677 126.761C121.579 126.355 120.573 125.736 119.716 124.938C118.852 124.108 118.184 123.097 117.758 121.977C117.274 120.722 117.034 119.386 117.052 118.04C117.045 116.893 117.248 115.755 117.65 114.68C118.016 113.688 118.565 112.774 119.268 111.984C120.655 110.467 122.445 109.378 124.43 108.845C125.404 108.582 126.408 108.45 127.417 108.451C128.255 108.447 129.09 108.547 129.904 108.748C130.689 108.941 131.44 109.252 132.131 109.67C132.816 110.081 133.429 110.6 133.949 111.207C134.49 111.861 134.903 112.612 135.167 113.418C135.47 114.339 135.619 115.303 135.61 116.271C135.598 118.144 134.924 119.951 133.706 121.373C133.182 121.967 132.562 122.468 131.872 122.856C131.277 123.198 130.606 123.383 129.92 123.396C129.446 123.402 128.984 123.252 128.604 122.97C128.413 122.828 128.258 122.645 128.15 122.433C128.043 122.222 127.986 121.988 127.984 121.751C127.63 122.289 127.144 122.727 126.573 123.025C126.002 123.322 125.364 123.468 124.721 123.45C124.215 123.472 123.71 123.381 123.243 123.183C122.776 122.986 122.36 122.686 122.024 122.306C121.351 121.524 120.995 120.518 121.026 119.486C121.031 118.637 121.179 117.794 121.463 116.994C121.747 116.188 122.148 115.428 122.655 114.74C123.16 114.063 123.804 113.503 124.543 113.095C125.282 112.678 126.116 112.46 126.964 112.464C127.554 112.458 128.136 112.599 128.658 112.874C129.164 113.144 129.575 113.564 129.834 114.076L129.941 113.715C130.027 113.462 130.21 113.253 130.45 113.135C130.69 113.017 130.966 112.998 131.22 113.084C131.318 113.117 131.41 113.165 131.495 113.224C131.575 113.288 131.639 113.371 131.681 113.465C131.723 113.558 131.743 113.661 131.737 113.764C131.737 113.864 131.721 113.965 131.689 114.06L129.941 119.874C129.787 120.317 129.688 120.777 129.645 121.244C129.629 121.331 129.634 121.421 129.661 121.505C129.688 121.59 129.735 121.666 129.799 121.728C129.862 121.79 129.94 121.835 130.025 121.86C130.11 121.884 130.2 121.888 130.287 121.869C130.905 121.83 131.484 121.554 131.905 121.098C132.487 120.522 132.935 119.824 133.215 119.054C133.55 118.213 133.722 117.317 133.722 116.412C133.729 115.615 133.613 114.821 133.377 114.06C133.179 113.404 132.864 112.788 132.449 112.243C132.056 111.746 131.58 111.321 131.042 110.986C130.505 110.648 129.919 110.395 129.305 110.236C128.675 110.071 128.026 109.987 127.374 109.988C126.548 109.99 125.726 110.106 124.931 110.333C124.113 110.565 123.334 110.916 122.617 111.374C121.896 111.83 121.242 112.386 120.676 113.025C120.093 113.698 119.64 114.473 119.338 115.311C119 116.224 118.83 117.191 118.837 118.164C118.819 119.317 119.028 120.463 119.452 121.535C119.817 122.464 120.393 123.294 121.134 123.962C121.851 124.584 122.678 125.065 123.572 125.38C124.516 125.714 125.51 125.882 126.511 125.877C127.581 125.877 128.645 125.715 129.666 125.397C129.768 125.36 129.876 125.342 129.985 125.343C130.086 125.341 130.186 125.361 130.279 125.401C130.372 125.441 130.455 125.5 130.524 125.575C130.593 125.646 130.647 125.731 130.683 125.823C130.719 125.916 130.736 126.015 130.734 126.114C130.747 126.271 130.703 126.427 130.61 126.554C130.517 126.681 130.381 126.77 130.227 126.804C128.954 127.193 127.632 127.397 126.301 127.408C125.064 127.407 123.838 127.188 122.677 126.761ZM127.132 121.168C127.665 120.786 128.06 120.241 128.259 119.615L129.386 115.651L129.31 115.489C129.24 115.359 129.155 115.238 129.057 115.128C128.922 114.972 128.774 114.828 128.615 114.697C128.413 114.535 128.185 114.409 127.941 114.324C127.302 114.102 126.604 114.127 125.983 114.395C125.643 114.539 125.331 114.741 125.061 114.993C124.78 115.255 124.53 115.548 124.316 115.867C124.102 116.199 123.921 116.551 123.777 116.919C123.625 117.286 123.508 117.667 123.426 118.057C123.345 118.427 123.303 118.805 123.302 119.184C123.298 119.427 123.312 119.671 123.346 119.912C123.37 120.126 123.417 120.338 123.486 120.543C123.545 120.733 123.63 120.915 123.739 121.082C123.837 121.233 123.961 121.364 124.106 121.47C124.26 121.582 124.434 121.665 124.618 121.713C124.834 121.776 125.057 121.805 125.282 121.799C125.956 121.808 126.615 121.591 127.153 121.185L127.132 121.168Z" fill="#00C2CB"/>
<path d="M140.932 77.8618C140.973 79.7719 140.63 81.6708 139.925 83.4466C139.221 85.2224 138.168 86.8392 136.829 88.202C135.49 89.5647 133.893 90.6458 132.13 91.3816C130.367 92.1173 128.475 92.493 126.565 92.4863C122.667 92.4732 118.928 90.9363 116.148 88.2039C113.367 85.4714 111.765 81.7598 111.683 77.8618C111.641 75.9509 111.982 74.0509 112.686 72.2739C113.39 70.4969 114.443 68.8789 115.782 67.5153C117.121 66.1516 118.719 65.07 120.483 64.3341C122.247 63.5982 124.14 63.223 126.051 63.2306C129.949 63.2454 133.688 64.7838 136.468 67.5173C139.249 70.2509 140.851 73.9632 140.932 77.8618Z" fill="white"/>
<path d="M133.706 76.3407C130.001 73.9138 122.736 73.9138 119.204 76.3407C118.558 76.4618 117.977 76.8112 117.567 77.325C117.157 77.8389 116.945 78.483 116.971 79.1398C117.025 80.7092 123.545 80.7092 123.491 79.1398C123.459 78.4836 123.209 77.857 122.779 77.36C125.225 76.8315 127.755 76.8315 130.2 77.36C129.802 77.866 129.596 78.4964 129.618 79.1398C129.672 80.7092 136.192 80.7092 136.133 79.1398C136.102 78.4682 135.846 77.8266 135.405 77.3187C134.965 76.8108 134.366 76.4662 133.706 76.3407Z" fill="#00C2CB"/>
<path d="M140.933 37.1147C141.013 40.6977 139.051 43.9018 135.901 46.0357V54.7374L129.635 48.4887C128.621 48.6691 127.594 48.7581 126.565 48.7546C118.489 48.7546 111.822 43.5429 111.682 37.1147C111.542 30.6865 117.969 25.4814 126.051 25.4814C134.133 25.4814 140.826 30.7197 140.933 37.1147Z" fill="white"/>
<path d="M121.251 38.0614C121.252 38.3646 121.163 38.6612 120.995 38.9138C120.828 39.1664 120.589 39.3636 120.309 39.4803C120.029 39.5971 119.721 39.6282 119.424 39.5697C119.126 39.5112 118.853 39.3658 118.638 39.1518C118.423 38.9378 118.277 38.6649 118.217 38.3676C118.158 38.0704 118.188 37.7621 118.304 37.4819C118.419 37.2017 118.616 36.9622 118.868 36.7937C119.12 36.6251 119.416 36.5352 119.719 36.5352C120.124 36.5352 120.513 36.6958 120.8 36.9819C121.087 37.2679 121.249 37.6561 121.251 38.0614Z" fill="#00C2CB"/>
<path d="M127.805 38.0614C127.807 38.3646 127.718 38.6612 127.55 38.9138C127.382 39.1664 127.144 39.3636 126.864 39.4803C126.584 39.5971 126.276 39.6282 125.978 39.5697C125.681 39.5112 125.407 39.3658 125.193 39.1518C124.978 38.9378 124.832 38.6649 124.772 38.3676C124.712 38.0704 124.742 37.7621 124.858 37.4819C124.974 37.2017 125.17 36.9622 125.422 36.7937C125.674 36.6251 125.971 36.5352 126.274 36.5352C126.679 36.5352 127.068 36.6958 127.355 36.9819C127.642 37.2679 127.804 37.6561 127.805 38.0614Z" fill="#00C2CB"/>
<path d="M134.36 38.0614C134.361 38.3646 134.272 38.6612 134.105 38.9138C133.937 39.1664 133.698 39.3636 133.418 39.4803C133.139 39.5971 132.831 39.6282 132.533 39.5697C132.236 39.5112 131.962 39.3658 131.747 39.1518C131.533 38.9378 131.386 38.6649 131.327 38.3676C131.267 38.0704 131.297 37.7621 131.413 37.4819C131.529 37.2017 131.725 36.9622 131.977 36.7937C132.229 36.6251 132.525 36.5352 132.829 36.5352C133.234 36.5352 133.623 36.6958 133.91 36.9819C134.197 37.2679 134.359 37.6561 134.36 38.0614Z" fill="#00C2CB"/>
</svg>
