<svg width="126" height="119" viewBox="0 0 126 119" fill="none" xmlns="http://www.w3.org/2000/svg">
<path d="M53.0294 118.192C22.0571 113.501 -3.11046 84.2177 1.46013 51.6724C5.36158 23.914 29.6978 2.31245 58.8802 0.27283C60.9932 0.124773 63.1293 0.0810302 65.2884 0.141634C80.6831 0.565405 95.4044 6.54577 106.733 16.9781C117.382 26.785 124.3 39.9024 125.559 53.6637C128.915 90.275 91.5515 124.026 53.0294 118.192Z" fill="#F4F7FA"/>
<path d="M23.9647 116.509C16.7216 115.578 7.53845 113.133 3.85045 106.239C2.97304 104.598 2.09274 101.412 4.30727 100.212C6.33135 99.1159 8.94919 100.274 10.4537 101.701C11.5601 102.751 12.4232 105.093 13.6659 105.834C15.4852 106.918 16.4645 103.96 16.4276 102.739C16.3419 100.01 12.9847 98.8926 10.7535 98.3C7.04999 97.3162 2.7383 96.4726 2.97016 92.2996C3.20203 88.1266 7.27148 85.6256 10.402 87.4489C12.9813 88.9534 12.6182 92.1667 14.3805 94.0912C15.946 95.8029 16.4909 93.0246 16.3868 91.6627C16.1595 88.7043 13.5583 86.5646 11.6441 84.5819C9.48025 82.3381 7.08909 77.8308 9.39624 74.8671C10.7236 73.1618 14.0957 72.7625 16.0887 73.0502C25.8444 74.4587 19.3752 87.0835 21.1518 88.492C22.9285 89.9004 24.6039 87.435 24.5993 83.6855C24.5947 79.9359 25.1689 77.1713 29.0813 78.3709C32.9937 79.5705 33.7388 89.3636 29.2712 93.1269C24.8036 96.8903 29.5514 100.997 30.751 98.2993C31.614 96.3518 32.3781 91.2519 34.8809 90.6926C39.0504 89.7623 38.9888 98.2769 37.7887 100.258C36.1063 103.036 32.3027 103.64 30.1785 106.036C29.5611 106.732 28.1682 108.457 28.709 109.474C29.4639 110.894 31.5697 109.375 32.3435 108.717C34.0828 107.239 36.4907 102.213 38.9411 105.553C41.9628 109.672 36.9032 115.781 23.9647 116.509Z" fill="#59CAE6"/>
<g opacity="0.8">
<path d="M22.9217 115.895C23.009 115.882 23.0887 115.838 23.1461 115.771C23.2036 115.704 23.235 115.618 23.2347 115.53C23.2376 115.382 23.4389 100.506 16.9553 82.8497C16.9278 82.7702 16.8702 82.7048 16.7949 82.6674C16.7195 82.6299 16.6325 82.6235 16.5526 82.6495C16.5142 82.6629 16.4789 82.6839 16.4487 82.7111C16.4185 82.7383 16.3941 82.7711 16.3768 82.8078C16.3595 82.8446 16.3497 82.8844 16.3479 82.925C16.3462 82.9656 16.3526 83.0062 16.3667 83.0443C22.8106 100.592 22.6104 115.379 22.6081 115.524C22.6045 115.613 22.6339 115.7 22.6906 115.769C22.7472 115.838 22.8272 115.884 22.9154 115.897L22.9217 115.895Z" fill="white"/>
</g>
<path opacity="0.7" d="M115.049 73.1903L112.042 73.3934C111.703 72.0653 111.248 70.7697 110.682 69.5213L113.175 67.8475C113.337 67.7382 113.476 67.5979 113.583 67.4347C113.691 67.2715 113.765 67.0887 113.801 66.8968C113.837 66.7049 113.835 66.5077 113.795 66.3165C113.755 66.1254 113.677 65.9441 113.566 65.7832L110.658 61.5037C110.436 61.1748 110.093 60.9467 109.704 60.8688C109.315 60.7909 108.91 60.8696 108.579 61.0877L106.051 62.7747C105.091 61.7898 104.048 60.8888 102.934 60.0815L104.266 57.3451C104.437 56.9863 104.459 56.5744 104.328 56.1994C104.196 55.8243 103.921 55.5166 103.564 55.3435L98.8807 53.0392C98.7046 52.9503 98.5127 52.8971 98.316 52.8827C98.1193 52.8682 97.9217 52.8929 97.7346 52.9551C97.5474 53.0174 97.3744 53.116 97.2255 53.2453C97.0766 53.3747 96.9548 53.5323 96.867 53.7089L95.5248 56.4539C94.1968 56.0691 92.8381 55.7996 91.4639 55.6484L91.2303 52.5703C91.1967 52.1699 91.008 51.7986 90.7042 51.5356C90.4005 51.2726 90.006 51.1388 89.6049 51.1629L84.3693 51.472C84.1718 51.4818 83.9782 51.531 83.8 51.6167C83.6218 51.7024 83.4625 51.8229 83.3316 51.971C83.2006 52.1192 83.1006 52.2921 83.0374 52.4794C82.9742 52.6668 82.9492 52.865 82.9637 53.0622L83.1978 56.1496C81.8507 56.4659 80.5337 56.899 79.2618 57.4441L77.4961 54.87C77.2666 54.5357 76.9158 54.3041 76.5182 54.2246C76.1206 54.1451 75.7077 54.2238 75.3673 54.4442L70.9866 57.3209C70.8203 57.4299 70.6775 57.5712 70.5668 57.7363C70.4561 57.9015 70.3797 58.0873 70.3421 58.2825C70.3046 58.4778 70.3067 58.6787 70.3482 58.8731C70.3897 59.0676 70.4698 59.2517 70.5839 59.4146L72.3554 61.9893C71.3503 62.9396 70.4304 63.9761 69.6063 65.087L66.7715 63.7177C66.407 63.5381 65.9864 63.5092 65.6008 63.6375C65.2151 63.7657 64.8956 64.0408 64.7112 64.403L62.392 69.095C62.3045 69.2753 62.2537 69.4712 62.2427 69.6714C62.2317 69.8715 62.2606 70.0718 62.3277 70.2607C62.3949 70.4495 62.4989 70.6232 62.6338 70.7714C62.7687 70.9197 62.9318 71.0396 63.1135 71.1242L65.927 72.4745C65.541 73.8085 65.2759 75.1745 65.1347 76.556L62.0191 76.7667C61.8186 76.7779 61.6223 76.8287 61.4416 76.9163C61.2609 77.0039 61.0994 77.1265 60.9664 77.277C60.8334 77.4275 60.7316 77.6029 60.6669 77.793C60.6022 77.9831 60.5758 78.1842 60.5894 78.3846L60.9864 83.6127C61.0217 84.0184 61.2159 84.3938 61.5267 84.657C61.8375 84.9201 62.2398 85.0498 62.6458 85.0177L65.7354 84.8003C66.0783 86.1573 66.5424 87.4807 67.1219 88.7547L64.5801 90.4513C64.4127 90.561 64.269 90.7031 64.1575 90.8693C64.0461 91.0355 63.969 91.2223 63.931 91.4187C63.893 91.6152 63.8949 91.8172 63.9364 92.013C63.9779 92.2087 64.0583 92.3941 64.1727 92.5583L67.176 96.8832C67.4107 97.216 67.7662 97.4437 68.1667 97.5177C68.5671 97.5917 68.9806 97.5061 69.3186 97.2791L71.841 95.5864C72.8319 96.5891 73.9086 97.5032 75.0589 98.3182L73.7408 101.014C73.6535 101.193 73.6028 101.388 73.5917 101.586C73.5806 101.785 73.6093 101.984 73.676 102.172C73.7428 102.359 73.8463 102.532 73.9805 102.679C74.1147 102.826 74.2769 102.944 74.4577 103.028L79.2273 105.272C79.5931 105.444 80.012 105.466 80.3938 105.333C80.7755 105.199 81.0897 104.922 81.2687 104.559L82.5695 101.888C83.9308 102.263 85.3224 102.516 86.7282 102.647L86.952 105.599C86.9681 105.797 87.0231 105.99 87.1138 106.166C87.2046 106.343 87.3292 106.5 87.4807 106.628C87.6321 106.756 87.8074 106.853 87.9965 106.914C88.1856 106.974 88.3848 106.997 88.5826 106.98L93.809 106.568C94.2081 106.538 94.5791 106.351 94.8408 106.049C95.1025 105.746 95.2336 105.352 95.2054 104.953L94.9822 102.009C96.3403 101.666 97.6655 101.204 98.9423 100.628L100.611 103.053C100.838 103.381 101.186 103.606 101.578 103.678C101.97 103.751 102.375 103.665 102.704 103.44L106.99 100.517C107.153 100.407 107.292 100.265 107.4 100.101C107.507 99.937 107.582 99.7532 107.618 99.5602C107.655 99.3673 107.653 99.169 107.612 98.9768C107.572 98.7845 107.494 98.6022 107.383 98.4401L105.71 96.0006C106.7 95.0353 107.604 93.985 108.411 92.8615L111.086 94.1451C111.443 94.3167 111.853 94.3398 112.227 94.2092C112.601 94.0786 112.908 93.8049 113.08 93.4483L115.313 88.8145C115.484 88.4582 115.506 88.0485 115.375 87.6756C115.245 87.3026 114.971 86.9969 114.615 86.8255L111.935 85.5309C112.302 84.2091 112.552 82.8573 112.68 81.4914L115.661 81.2814C115.856 81.268 116.046 81.2162 116.221 81.129C116.395 81.0418 116.551 80.9209 116.678 80.7733C116.806 80.6257 116.903 80.4543 116.964 80.2689C117.025 80.0836 117.049 79.888 117.034 79.6934L116.645 74.5688C116.614 74.1754 116.428 73.8103 116.13 73.5524C115.831 73.2944 115.443 73.1643 115.049 73.1903ZM87.9531 63.9846C91.9828 63.7156 95.9567 65.0417 99.0171 67.6769C102.078 70.312 103.979 74.0449 104.312 78.0699C104.454 80.0565 104.204 82.0519 103.574 83.9415C102.944 85.8311 101.947 87.5777 100.641 89.0812C99.3343 90.5847 97.7438 91.8155 95.9606 92.703C94.1774 93.5904 92.2365 94.1171 90.2493 94.2527C86.1934 94.5697 82.1771 93.2667 79.0798 90.629C75.9825 87.9912 74.0565 84.2337 73.7235 80.179C73.5782 78.1778 73.8325 76.1677 74.4716 74.2657C75.1107 72.3638 76.1218 70.608 77.4462 69.1006C78.7705 67.5932 80.3815 66.3644 82.1854 65.4857C83.9892 64.607 85.9498 64.0959 87.9531 63.9823V63.9846Z" fill="#D8DEE8"/>
<path opacity="0.7" d="M105.548 27.7253L103.896 27.8369C103.709 27.1068 103.459 26.3945 103.148 25.7081L104.519 24.7876C104.608 24.7274 104.684 24.6503 104.743 24.5605C104.802 24.4708 104.843 24.3702 104.863 24.2647C104.883 24.1592 104.882 24.0507 104.86 23.9456C104.837 23.8405 104.795 23.7409 104.734 23.6524L103.135 21.2998C103.013 21.1188 102.825 20.9931 102.611 20.95C102.397 20.907 102.175 20.95 101.992 21.0697L100.603 21.9971C100.075 21.4558 99.5012 20.9606 98.8888 20.5168L99.6212 19.0122C99.7153 18.8149 99.7275 18.5885 99.6552 18.3823C99.5829 18.1761 99.4319 18.0069 99.2352 17.9116L96.6604 16.6458C96.5636 16.5971 96.4581 16.568 96.35 16.5601C96.2419 16.5523 96.1333 16.5658 96.0305 16.6C95.9276 16.6342 95.8326 16.6884 95.7508 16.7595C95.6689 16.8305 95.6018 16.917 95.5534 17.014L94.8158 18.5232C94.0858 18.312 93.339 18.1641 92.5835 18.0813L92.4552 16.3886C92.4366 16.1685 92.3329 15.9644 92.1659 15.8199C91.999 15.6753 91.7821 15.6017 91.5617 15.6148L88.6849 15.7874C88.5763 15.7928 88.4699 15.8198 88.3719 15.8669C88.2739 15.9141 88.1863 15.9803 88.1143 16.0618C88.0423 16.1433 87.9873 16.2384 87.9526 16.3414C87.9179 16.4445 87.9042 16.5535 87.9122 16.6619L88.0411 18.3592C87.3005 18.533 86.5765 18.7712 85.8773 19.0709L84.9066 17.6555C84.7805 17.4719 84.5878 17.3447 84.3693 17.301C84.1509 17.2572 83.924 17.3005 83.737 17.4214L81.328 19.003C81.2366 19.0629 81.1582 19.1406 81.0973 19.2313C81.0365 19.3221 80.9944 19.4241 80.9737 19.5314C80.953 19.6387 80.954 19.7491 80.9767 19.8559C80.9994 19.9628 81.0434 20.0641 81.1059 20.1537L82.0799 21.5691C81.5273 22.0915 81.0216 22.6614 80.5685 23.2721L79.0098 22.5195C78.8095 22.4208 78.5783 22.405 78.3664 22.4756C78.1544 22.5461 77.9788 22.6973 77.8775 22.8964L76.6025 25.4757C76.5544 25.5748 76.5265 25.6825 76.5204 25.7926C76.5142 25.9026 76.5301 26.0127 76.567 26.1166C76.6039 26.2204 76.6611 26.3159 76.7353 26.3974C76.8094 26.4789 76.8992 26.5448 76.9991 26.5913L78.5456 27.3335C78.3334 28.0669 78.1876 28.8179 78.11 29.5774L76.3972 29.6925C76.287 29.6987 76.179 29.7267 76.0797 29.7749C75.9804 29.8231 75.8917 29.8905 75.8186 29.9732C75.7455 30.0559 75.6895 30.1523 75.654 30.2568C75.6184 30.3613 75.6039 30.4718 75.6113 30.5819L75.8293 33.4587C75.8486 33.6817 75.9554 33.8881 76.1262 34.0328C76.297 34.1776 76.5181 34.2489 76.7413 34.2314L78.4397 34.1117C78.6283 34.8576 78.8834 35.5851 79.202 36.2854L77.8045 37.218C77.7126 37.2784 77.6338 37.3566 77.5726 37.4479C77.5114 37.5392 77.469 37.6419 77.4481 37.7498C77.4272 37.8578 77.4281 37.9688 77.4508 38.0764C77.4735 38.1839 77.5174 38.2859 77.58 38.3762L79.2314 40.7541C79.3604 40.9371 79.5558 41.0622 79.7759 41.1029C79.9961 41.1435 80.2234 41.0964 80.4092 40.9716L81.7957 40.0413C82.3404 40.5926 82.9324 41.0951 83.5649 41.543L82.8399 43.0256C82.7918 43.1241 82.7638 43.2312 82.7576 43.3406C82.7514 43.45 82.7673 43.5596 82.804 43.6628C82.8407 43.7661 82.8976 43.861 82.9714 43.942C83.0453 44.0229 83.1346 44.0883 83.2341 44.1343L85.8565 45.369C86.0576 45.4638 86.2879 45.4758 86.4978 45.4026C86.7077 45.3293 86.8806 45.1766 86.9791 44.9772L87.6942 43.5089C88.4426 43.7146 89.2078 43.854 89.9807 43.9255L90.1037 45.5485C90.1125 45.6573 90.1427 45.7634 90.1925 45.8605C90.2424 45.9576 90.3109 46.0439 90.3942 46.1144C90.4775 46.185 90.5739 46.2384 90.6778 46.2717C90.7818 46.3049 90.8914 46.3172 91.0002 46.308L93.8734 46.0813C94.0928 46.0648 94.2968 45.9621 94.4407 45.7956C94.5845 45.6291 94.6565 45.4125 94.641 45.193L94.5179 43.5745C95.2645 43.3864 95.993 43.1326 96.695 42.8162L97.6121 44.1493C97.7369 44.3295 97.928 44.4531 98.1436 44.4929C98.3593 44.5326 98.5819 44.4854 98.7628 44.3616L101.122 42.7547C101.211 42.694 101.287 42.6162 101.347 42.5259C101.406 42.4356 101.447 42.3345 101.467 42.2284C101.487 42.1223 101.486 42.0133 101.464 41.9076C101.441 41.8019 101.399 41.7017 101.338 41.6126L100.417 40.2714C100.961 39.7406 101.458 39.163 101.902 38.5454L103.372 39.2513C103.569 39.3457 103.795 39.3584 104 39.2865C104.206 39.2147 104.374 39.0642 104.469 38.8682L105.696 36.3205C105.79 36.1246 105.803 35.8995 105.731 35.6945C105.659 35.4896 105.508 35.3215 105.313 35.2273L103.839 34.5156C104.041 33.7889 104.178 33.0457 104.249 32.2947L105.888 32.1797C105.995 32.1724 106.1 32.144 106.196 32.0961C106.292 32.0481 106.377 31.9816 106.447 31.9004C106.518 31.8192 106.571 31.7249 106.605 31.6229C106.638 31.5209 106.651 31.4133 106.643 31.3063L106.429 28.4871C106.412 28.2696 106.31 28.0675 106.146 27.9248C105.981 27.7821 105.766 27.7104 105.548 27.7253ZM90.6527 22.6623C92.8681 22.5141 95.0529 23.2431 96.7355 24.6919C98.418 26.1407 99.4634 28.193 99.6459 30.4059C99.7246 31.4981 99.5869 32.595 99.2407 33.6339C98.8944 34.6727 98.3463 35.6329 97.6281 36.4595C96.9099 37.286 96.0356 37.9627 95.0553 38.4506C94.075 38.9384 93.008 39.228 91.9155 39.3026C89.6857 39.4763 87.478 38.7597 85.7753 37.3097C84.0725 35.8596 83.0133 33.7942 82.8295 31.5652C82.7499 30.4652 82.8899 29.3604 83.2414 28.315C83.5929 27.2696 84.1489 26.3046 84.8768 25.4761C85.6048 24.6476 86.4903 23.9722 87.4818 23.4893C88.4733 23.0063 89.551 22.7253 90.6521 22.6628L90.6527 22.6623Z" fill="#D8DEE8"/>
<path d="M71.9435 19.5518L95.751 39.2736C75.2782 48.4793 77.6608 76.6191 57.1881 85.8253L33.3789 66.1034C53.8533 56.8972 51.4708 28.7579 71.9435 19.5518Z" fill="#59CAE6"/>
<path d="M91.7376 38.9372C74.3706 48.7234 75.0248 73.4393 57.6578 83.2254L37.3945 66.4396C54.7621 56.6534 54.1073 31.9375 71.4749 22.1514L91.7376 38.9372Z" fill="white"/>
<path d="M40.9954 63.5538C41.0846 63.628 41.1629 63.6982 41.244 63.7753L41.2647 63.7954C41.6943 64.1811 42.0302 64.6597 42.2469 65.1948C42.4636 65.73 42.5552 66.3075 42.5149 66.8834C42.4565 67.3906 42.2856 67.8783 42.0145 68.3109C41.7435 68.7435 41.3791 69.1101 40.9482 69.3838C40.8026 69.4829 40.6516 69.574 40.496 69.6566C39.8606 69.9876 39.1743 70.2102 38.4656 70.3153L33.3789 66.1044C35.4556 65.1739 37.4078 63.9873 39.1899 62.5723C39.8505 62.7775 40.464 63.111 40.9954 63.5538Z" fill="url(#paint0_linear_1_33064)"/>
<path d="M61.7302 80.7312C62.2522 81.164 62.6747 81.7044 62.969 82.3153C61.1947 83.7203 59.2526 84.8992 57.1873 85.8248L51.9844 81.5149C52.4363 81.0841 52.9462 80.7185 53.4992 80.4286C53.6586 80.3429 53.8221 80.2617 53.9878 80.1858C56.4589 79.0518 59.4887 79.0524 61.5093 80.5569L61.5329 80.5747C61.599 80.6248 61.6681 80.6794 61.7302 80.7312Z" fill="url(#paint1_linear_1_33064)"/>
<path d="M71.9461 19.5518L77.0304 23.7639C76.5783 24.1944 76.0685 24.5599 75.5155 24.8496C75.3562 24.9353 75.1928 25.0164 75.0271 25.0924C72.5812 26.2143 69.5957 26.2316 67.5751 24.7725C67.4807 24.7052 67.4025 24.6465 67.3139 24.5723C66.8116 24.1737 66.4086 23.664 66.1367 23.0833C67.9185 21.6687 69.8701 20.4823 71.9461 19.5518Z" fill="#58B5CC"/>
<path d="M90.5512 34.9639L95.7541 39.2738C93.6886 40.1991 91.7464 41.3781 89.9724 42.7834C89.2739 42.5582 88.6224 42.2073 88.0501 41.7478C87.9879 41.6961 87.9224 41.6397 87.8631 41.585C87.8562 41.5781 87.8482 41.5718 87.8419 41.5654C87.4245 41.2036 87.0887 40.7574 86.8567 40.2561C86.6247 39.7548 86.5018 39.21 86.4961 38.6576C86.5138 38.1039 86.667 37.5629 86.9422 37.082C87.2174 36.6012 87.6063 36.1951 88.0748 35.8994C88.2193 35.7994 88.3691 35.7074 88.5236 35.6238C89.1581 35.2927 89.8434 35.0697 90.5512 34.9639Z" fill="#58B5CC"/>
<path d="M68.7157 44.4709C72.5159 47.6192 73.639 53.7674 71.4486 58.3903C69.2582 63.0133 64.1923 64.0345 60.3581 60.858C56.5608 57.7096 55.4349 51.5614 57.6247 46.9391C59.8144 42.3167 64.8815 41.2966 68.7157 44.4709Z" fill="#316370"/>
<path d="M65.9314 49.9871C65.0647 50.2571 64.3075 50.798 63.7709 51.5302L62.0806 50.1304L62.1467 50.0153C62.3541 49.6551 62.6007 49.3189 62.8821 49.013C63.0327 48.8507 63.1946 48.6992 63.3665 48.5597C63.4112 48.5165 63.4468 48.4648 63.4713 48.4077C63.4957 48.3505 63.5086 48.289 63.509 48.2269C63.5095 48.1647 63.4975 48.1032 63.4738 48.0457C63.4501 47.9882 63.4152 47.936 63.3711 47.8922L62.6743 47.1909C62.6436 47.1564 62.6061 47.1287 62.5642 47.1093C62.5223 47.0899 62.4768 47.0794 62.4307 47.0782C62.3845 47.0771 62.3386 47.0854 62.2958 47.1027C62.253 47.12 62.2142 47.1459 62.1818 47.1788C61.9517 47.4089 61.7285 47.6667 61.5219 47.9205C61.2375 48.2697 60.9761 48.6372 60.7395 49.0205L60.1485 48.5315C60.1127 48.4965 60.0694 48.4701 60.0218 48.4544C59.9743 48.4388 59.9237 48.4342 59.8741 48.4411C59.8245 48.448 59.7772 48.4662 59.7357 48.4942C59.6942 48.5222 59.6597 48.5593 59.6348 48.6028C59.5805 48.6989 59.5619 48.811 59.5823 48.9195C59.6027 49.0279 59.6608 49.1257 59.7464 49.1954L60.3493 49.6948C59.8958 50.544 59.6907 51.5037 59.7573 52.464C59.7976 52.8733 59.9196 53.2704 60.1159 53.6318C60.3123 53.9931 60.579 54.3115 60.9005 54.568C61.1582 54.8152 61.4724 54.9958 61.8156 55.0942C62.1589 55.1925 62.521 55.2057 62.8705 55.1324C63.6988 54.8559 64.4185 54.3247 64.9268 53.6147L66.8042 55.1785C66.5651 55.5968 66.2866 55.9912 65.9723 56.3563C65.7758 56.5841 65.5644 56.7986 65.3394 56.9983C65.2465 57.0929 65.1944 57.2201 65.1944 57.3527C65.1944 57.4853 65.2465 57.6126 65.3394 57.7072L66.2427 58.5937C66.2743 58.6284 66.3129 58.656 66.3559 58.6747C66.3989 58.6935 66.4454 58.703 66.4923 58.7025C66.5392 58.7021 66.5854 58.6918 66.6281 58.6723C66.6707 58.6527 66.7088 58.6244 66.7398 58.5892C66.9703 58.3377 67.1855 58.0725 67.3842 57.7952C67.6752 57.3866 67.9398 56.9597 68.1764 56.5173L68.2667 56.3447L68.9094 56.8769C68.9436 56.9131 68.9861 56.9403 69.0332 56.9562C69.0804 56.9721 69.1307 56.9762 69.1798 56.9681C69.2289 56.9599 69.2753 56.9398 69.3148 56.9096C69.3543 56.8794 69.3858 56.8399 69.4065 56.7946L69.4094 56.7883C69.4574 56.688 69.4707 56.5746 69.4473 56.4659C69.4238 56.3572 69.365 56.2593 69.28 56.1876L68.6286 55.6479C68.9216 54.981 69.0932 54.2671 69.1355 53.5399C69.1494 53.2585 69.1357 52.9764 69.0947 52.6976C68.9805 51.8437 68.5441 51.0658 67.8749 50.5233C67.6185 50.2834 67.3077 50.1092 66.9692 50.0158C66.6307 49.9224 66.2746 49.9125 65.9314 49.9871ZM65.4331 53.0065C65.6367 52.7661 65.9036 52.5877 66.2035 52.4916C66.3274 52.4701 66.4546 52.4778 66.575 52.5139C66.6954 52.5501 66.8058 52.6138 66.8974 52.6999C67.1356 52.8901 67.294 53.1628 67.341 53.464C67.383 53.7988 67.3188 54.1382 67.1574 54.4345L65.4331 53.0065ZM62.5782 52.6038C62.4682 52.628 62.3539 52.625 62.2453 52.5949C62.1366 52.5648 62.037 52.5086 61.9551 52.4312C61.7451 52.26 61.6095 52.0143 61.5766 51.7454C61.5472 51.4315 61.596 51.1152 61.7187 50.8248L63.2721 52.1102C63.097 52.3419 62.855 52.5144 62.5788 52.6044L62.5782 52.6038Z" fill="white"/>
<path opacity="0.2" d="M95.6742 39.2094L95.7513 39.2732C75.2786 48.4788 77.6611 76.6187 57.1884 85.8249L33.8867 66.5196C35.104 66.3882 36.3281 66.3319 37.5523 66.351C39.2199 66.3796 40.8817 66.5576 42.5175 66.8832C44.7844 67.3433 46.9978 68.036 49.1226 68.9504C61.0899 74.0273 64.5259 69.7524 66.5995 62.5324C67.1691 60.6182 67.6604 58.5113 68.2564 56.3692C68.5194 55.4274 68.8128 54.478 69.1396 53.5356C69.7695 51.6875 70.5539 49.8957 71.4842 48.1791C74.5336 42.3974 79.8802 38.485 86.4962 38.6599C87.7364 38.6796 88.9715 38.8232 90.1831 39.0886C90.5194 39.1604 90.8593 39.2142 91.2014 39.2497C92.6907 39.3668 94.1873 39.3533 95.6742 39.2094Z" fill="#59CAE6"/>
<path d="M75.7139 43.4177C75.8775 43.4735 76.0286 43.5611 76.1583 43.6754C76.288 43.7897 76.3939 43.9285 76.4698 44.0839C76.5458 44.2392 76.5904 44.408 76.601 44.5806C76.6115 44.7532 76.5879 44.9262 76.5314 45.0896L60.0845 85.5316C59.9134 85.8948 59.6165 86.1838 59.2489 86.3452C58.8813 86.5066 58.4677 86.5295 58.0845 86.4096L31.2916 75.2691C30.947 75.0795 30.6837 74.7705 30.5512 74.4002C30.4187 74.0299 30.4262 73.6239 30.5724 73.2588L47.1575 33.4526C47.3147 33.1424 47.5845 32.9041 47.9117 32.7864C48.2389 32.6688 48.5988 32.6806 48.9175 32.8197L75.7139 43.4177Z" fill="url(#paint2_linear_1_33064)"/>
<path d="M76.1536 42.6159C76.3185 42.6723 76.4706 42.7606 76.6013 42.876C76.7319 42.9913 76.8385 43.1313 76.9149 43.288C76.9913 43.4446 77.036 43.6148 77.0465 43.7887C77.0569 43.9627 77.0328 44.137 76.9757 44.3016L60.2238 85.2592C60.0705 85.5983 59.7888 85.8626 59.4407 85.9942C59.0925 86.1257 58.7064 86.1136 58.3672 85.9605L31.4068 74.7556C31.2383 74.6911 31.0844 74.5937 30.954 74.469C30.8236 74.3443 30.7194 74.1949 30.6475 74.0294C30.5756 73.864 30.5375 73.6858 30.5353 73.5054C30.5331 73.325 30.5669 73.146 30.6347 72.9789L47.3981 32.5944C47.5557 32.2813 47.8272 32.0403 48.1568 31.9209C48.4864 31.8015 48.8492 31.8128 49.1707 31.9523L76.1536 42.6159Z" fill="#59CAE6"/>
<g opacity="0.7">
<path d="M55.9136 70.6396L53.0754 77.2866C53.0106 77.4315 52.8947 77.5473 52.7499 77.6125C52.6051 77.6776 52.4415 77.6874 52.2901 77.6399L50.6164 77.0777C50.5449 77.0549 50.4791 77.0172 50.4232 76.9672C50.3674 76.9171 50.3227 76.8559 50.2922 76.7874C50.2616 76.7189 50.2459 76.6446 50.2461 76.5696C50.2462 76.4946 50.2622 76.4206 50.293 76.3522L53.1514 69.7086C53.2165 69.5656 53.3317 69.4516 53.4753 69.388C53.6189 69.3244 53.7808 69.3156 53.9304 69.3634L55.5897 69.9226C55.6605 69.945 55.7258 69.9821 55.7812 70.0313C55.8367 70.0806 55.8812 70.1411 55.9117 70.2088C55.9423 70.2764 55.9583 70.3497 55.9586 70.424C55.9589 70.4982 55.9436 70.5717 55.9136 70.6396Z" fill="#F4F7FA"/>
<path d="M59.6489 61.8933L56.863 68.4183C56.7986 68.5612 56.6839 68.6753 56.5408 68.739C56.3976 68.8027 56.236 68.8114 56.0868 68.7635L54.4298 68.2049C54.3593 68.1826 54.2942 68.1456 54.2389 68.0964C54.1836 68.0473 54.1393 67.987 54.1089 67.9196C54.0785 67.8521 54.0627 67.7791 54.0625 67.7051C54.0623 67.6311 54.0777 67.5579 54.1077 67.4902L56.9136 60.9681C56.9786 60.8275 57.0927 60.7156 57.2346 60.6536C57.3765 60.5916 57.5362 60.5837 57.6834 60.6315L59.3266 61.1879C59.3963 61.2099 59.4606 61.2463 59.5153 61.2947C59.5701 61.3431 59.6141 61.4025 59.6445 61.469C59.6749 61.5355 59.6909 61.6075 59.6917 61.6806C59.6925 61.7537 59.6778 61.8262 59.6489 61.8933Z" fill="#F4F7FA"/>
<path d="M63.313 53.305L60.5772 59.7116C60.5131 59.852 60.3996 59.9639 60.2582 60.0258C60.1168 60.0877 59.9575 60.0952 59.8109 60.047L58.17 59.4907C58.1001 59.4691 58.0356 59.433 57.9807 59.3848C57.9258 59.3365 57.8817 59.2771 57.8513 59.2106C57.821 59.1441 57.8051 59.0719 57.8047 58.9988C57.8043 58.9256 57.8194 58.8533 57.8489 58.7864L60.6043 52.3828C60.6684 52.2442 60.7814 52.1341 60.9216 52.0735C61.0618 52.0129 61.2194 52.006 61.3643 52.0542L62.992 52.6077C63.061 52.6294 63.1247 52.6653 63.1789 52.7131C63.2332 52.7609 63.2769 52.8195 63.3072 52.8852C63.3374 52.9509 63.3536 53.0221 63.3546 53.0945C63.3556 53.1668 63.3414 53.2385 63.313 53.305Z" fill="#F4F7FA"/>
<path d="M66.9151 44.8713L64.2288 51.1633C64.1651 51.3016 64.0526 51.4114 63.9129 51.4719C63.7731 51.5323 63.616 51.539 63.4717 51.4907L61.8463 50.9372C61.7774 50.9159 61.7138 50.8804 61.6596 50.8329C61.6053 50.7855 61.5617 50.7271 61.5315 50.6616C61.5014 50.5962 61.4853 50.5251 61.4844 50.453C61.4835 50.381 61.4978 50.3095 61.5264 50.2433L64.2305 43.9547C64.2945 43.8185 64.4065 43.7106 64.545 43.6516C64.6834 43.5926 64.8388 43.5866 64.9814 43.6348L66.5924 44.186C66.6608 44.2066 66.724 44.2414 66.7781 44.288C66.8322 44.3347 66.8758 44.3922 66.9063 44.4568C66.9367 44.5214 66.9532 44.5917 66.9547 44.6631C66.9563 44.7345 66.9428 44.8054 66.9151 44.8713Z" fill="#F4F7FA"/>
</g>
<path d="M47.9001 71.0918L46.5618 74.2442C46.4296 74.5257 46.1922 74.7442 45.9008 74.853C45.6094 74.9617 45.2869 74.9519 45.0026 74.8258L41.6593 73.4451C41.5165 73.3913 41.3858 73.3096 41.2748 73.2049C41.1639 73.1001 41.0748 72.9743 41.0129 72.8349C40.951 72.6954 40.9175 72.545 40.9143 72.3924C40.9111 72.2398 40.9382 72.0882 40.9942 71.9463L42.3451 68.8066C42.4784 68.5275 42.7152 68.3113 43.0052 68.2039C43.2952 68.0965 43.6156 68.1063 43.8985 68.2312L47.2298 69.6006C47.3722 69.6539 47.5026 69.7349 47.6134 69.8389C47.7243 69.9429 47.8136 70.0678 47.8759 70.2065C47.9382 70.3451 47.9725 70.4948 47.9766 70.6468C47.9808 70.7987 47.9547 70.95 47.9001 71.0918Z" fill="url(#paint3_linear_1_33064)"/>
<path d="M47.4835 71.1809L46.3328 73.885C46.2111 74.145 45.9923 74.3469 45.7233 74.4473C45.4544 74.5477 45.1567 74.5386 44.8944 74.4219L42.0234 73.2355C41.8919 73.1859 41.7715 73.1106 41.6692 73.0141C41.5669 72.9176 41.4849 72.8018 41.4277 72.6733C41.3706 72.5449 41.3394 72.4064 41.3362 72.2659C41.333 72.1253 41.3577 71.9855 41.409 71.8546L42.5683 69.1579C42.6903 68.8995 42.9085 68.6991 43.1764 68.5997C43.4443 68.5002 43.7404 68.5095 44.0015 68.6257L46.8633 69.8029C46.9951 69.8519 47.1158 69.9266 47.2185 70.0226C47.3211 70.1186 47.4038 70.2341 47.4615 70.3623C47.5192 70.4904 47.5508 70.6288 47.5546 70.7693C47.5584 70.9099 47.5342 71.0498 47.4835 71.1809ZM41.5511 71.9133C41.5067 72.0261 41.4852 72.1467 41.4878 72.268C41.4905 72.3892 41.5173 72.5087 41.5665 72.6195C41.6158 72.7304 41.6865 72.8303 41.7748 72.9135C41.863 72.9968 41.9669 73.0616 42.0804 73.1043L44.9514 74.2907C45.1771 74.3913 45.4333 74.3995 45.665 74.3134C45.8966 74.2274 46.0854 74.0539 46.1907 73.8304L47.3414 71.1233C47.3851 71.0104 47.4058 70.8899 47.4025 70.7689C47.3993 70.6479 47.3721 70.5287 47.3224 70.4183C47.2727 70.3079 47.2016 70.2084 47.1133 70.1257C47.0249 70.043 46.9209 69.9786 46.8075 69.9364L43.9451 68.7598C43.72 68.6605 43.465 68.653 43.2345 68.739C43.0039 68.825 42.816 68.9976 42.711 69.2201L41.5511 71.9133Z" fill="url(#paint4_linear_1_33064)"/>
<path d="M44.398 68.8676L42.4787 73.3483L42.3359 73.2909L44.2565 68.8105L44.398 68.8676Z" fill="url(#paint5_linear_1_33064)"/>
<path d="M45.4771 69.309L43.5612 73.7967L43.418 73.7391L45.335 69.2549L45.4771 69.309Z" fill="url(#paint6_linear_1_33064)"/>
<path d="M46.5518 69.751L44.6387 74.2387L44.4961 74.1811L46.4091 69.6934L46.5518 69.751Z" fill="url(#paint7_linear_1_33064)"/>
<path d="M46.5892 71.6637L46.0552 72.9184C45.9815 73.0752 45.8495 73.1968 45.6872 73.2574C45.5249 73.3179 45.3454 73.3125 45.1871 73.2424L42.6814 72.2067C42.6019 72.1768 42.5291 72.1314 42.4672 72.0731C42.4054 72.0148 42.3557 71.9449 42.3211 71.8673C42.2866 71.7897 42.2678 71.706 42.2658 71.6211C42.2638 71.5361 42.2788 71.4516 42.3098 71.3725L42.8471 70.121C42.9212 69.9653 43.0531 69.8447 43.2148 69.7846C43.3765 69.7246 43.5552 69.7299 43.713 69.7995L46.2147 70.83C46.2943 70.8597 46.3672 70.9049 46.4292 70.963C46.4912 71.0211 46.5411 71.091 46.5759 71.1685C46.6108 71.246 46.6299 71.3298 46.6322 71.4147C46.6345 71.4997 46.6199 71.5844 46.5892 71.6637Z" fill="#FEC045"/>
<path d="M46.6589 71.6934L46.125 72.9483C46.0429 73.1232 45.8955 73.2588 45.7144 73.3263C45.5334 73.3937 45.3332 73.3875 45.1567 73.309L42.651 72.2733C42.5623 72.2401 42.4812 72.1895 42.4122 72.1246C42.3433 72.0597 42.2879 71.9817 42.2494 71.8952C42.2108 71.8087 42.1898 71.7153 42.1877 71.6206C42.1855 71.5259 42.2022 71.4318 42.2368 71.3436L42.7741 70.0922C42.8565 69.9182 43.0037 69.7832 43.1842 69.7162C43.3646 69.6491 43.5641 69.6552 43.7401 69.7331L46.2418 70.763C46.3307 70.7962 46.4121 70.8466 46.4813 70.9115C46.5506 70.9764 46.6062 71.0543 46.645 71.1409C46.6839 71.2275 46.705 71.321 46.7074 71.4158C46.7098 71.5106 46.6933 71.6049 46.6589 71.6934ZM42.3794 71.4057C42.3519 71.4757 42.3386 71.5505 42.3402 71.6257C42.3419 71.7008 42.3585 71.775 42.389 71.8437C42.4196 71.9124 42.4636 71.9743 42.5183 72.0258C42.5731 72.0774 42.6376 72.1176 42.708 72.144L45.2136 73.1795C45.3538 73.2416 45.5128 73.2463 45.6564 73.1926C45.8001 73.1388 45.9168 73.0308 45.9817 72.8918L46.5157 71.637C46.5429 71.5669 46.5559 71.4921 46.5539 71.4169C46.552 71.3417 46.5352 71.2677 46.5044 71.1991C46.4737 71.1304 46.4296 71.0686 46.3747 71.0172C46.3198 70.9657 46.2553 70.9257 46.1848 70.8994L43.6826 69.869C43.5425 69.8072 43.3838 69.8027 43.2405 69.8565C43.0971 69.9102 42.9805 70.018 42.9157 70.1567L42.3794 71.4057Z" fill="url(#paint8_linear_1_33064)"/>
<g opacity="0.42">
<path d="M61.9355 70.7503L58.1525 79.9186C58.1133 80.0042 58.0418 80.0707 57.9536 80.1038C57.8655 80.1369 57.7678 80.1338 57.6819 80.0951L56.144 79.4623C56.0561 79.4289 55.9848 79.362 55.9459 79.2763C55.907 79.1907 55.9036 79.093 55.9363 79.0048L59.7336 69.8522C59.7731 69.768 59.8442 69.7028 59.9313 69.6705C60.0185 69.6382 60.1148 69.6414 60.1996 69.6795L61.7272 70.3045C61.8133 70.3369 61.8832 70.4016 61.9222 70.485C61.9611 70.5683 61.9659 70.6635 61.9355 70.7503Z" fill="url(#paint9_linear_1_33064)"/>
<path d="M69.2499 53.1651L64.2156 65.3625C64.1762 65.4478 64.1048 65.5143 64.0169 65.5476C63.9289 65.5808 63.8315 65.5782 63.7455 65.5402L62.207 64.9143C62.1635 64.8983 62.1236 64.8738 62.0895 64.8423C62.0555 64.8109 62.028 64.773 62.0087 64.7309C61.9893 64.6888 61.9785 64.6432 61.9768 64.5969C61.9751 64.5505 61.9825 64.5043 61.9987 64.4609L67.0509 52.2848C67.0906 52.2013 67.1613 52.1366 67.248 52.1043C67.3347 52.0721 67.4305 52.0749 67.5152 52.1121L69.0398 52.7237C69.0826 52.7389 69.122 52.7623 69.1558 52.7927C69.1895 52.8231 69.2169 52.8599 69.2364 52.9009C69.2559 52.9418 69.2671 52.9863 69.2694 53.0316C69.2717 53.077 69.2651 53.1223 69.2499 53.1651Z" fill="url(#paint10_linear_1_33064)"/>
</g>
<path opacity="0.26" d="M53.622 38.459C54.0649 38.6421 54.4668 38.912 54.8038 39.2529C55.1409 39.5937 55.4064 39.9986 55.5846 40.4436C55.7627 40.8886 55.85 41.3648 55.8413 41.8441C55.8326 42.3234 55.7281 42.7961 55.5338 43.2343C55.1715 44.1262 54.4744 44.8407 53.5917 45.2249C52.709 45.609 51.7109 45.6322 50.8114 45.2895C50.3749 45.1074 49.9787 44.8409 49.6454 44.5053C49.3121 44.1698 49.0484 43.7717 48.8693 43.334C48.6902 42.8963 48.5992 42.4275 48.6016 41.9545C48.604 41.4816 48.6998 41.0138 48.8834 40.578C49.2333 39.6706 49.928 38.9385 50.8158 38.5415C51.7036 38.1445 52.7124 38.1148 53.622 38.459Z" fill="black"/>
<g opacity="0.53">
<path d="M46.7059 67.0254C46.7635 67.169 46.7625 67.3294 46.7029 67.4722C46.6432 67.6149 46.5298 67.7285 46.3872 67.7883C46.3169 67.8186 46.2413 67.8346 46.1647 67.8353C46.0882 67.836 46.0123 67.8215 45.9415 67.7925C45.8706 67.7635 45.8063 67.7207 45.7522 67.6665C45.6982 67.6124 45.6554 67.548 45.6265 67.4771C45.5701 67.3331 45.5726 67.1727 45.6334 67.0305C45.6942 66.8883 45.8085 66.7757 45.9516 66.717C46.0214 66.6876 46.0963 66.6723 46.172 66.6719C46.2477 66.6715 46.3227 66.686 46.3928 66.7147C46.4628 66.7433 46.5266 66.7855 46.5803 66.8388C46.634 66.8922 46.6767 66.9556 46.7059 67.0254Z" fill="#F4F7FA"/>
<path d="M49.5196 66.2024C49.509 66.2283 49.4934 66.2518 49.4736 66.2715C49.4539 66.2913 49.4303 66.3069 49.4045 66.3175C49.3511 66.3402 49.2908 66.3409 49.2369 66.3193C49.183 66.2977 49.1399 66.2557 49.1168 66.2024C48.7691 65.4135 48.1286 64.7903 47.3304 64.4644C46.5322 64.1384 45.6386 64.1351 44.8379 64.4551C44.7849 64.4771 44.7253 64.4773 44.672 64.4558C44.6188 64.4343 44.5761 64.3927 44.5531 64.3401C44.543 64.3136 44.5383 64.2855 44.5392 64.2572C44.54 64.2289 44.5465 64.201 44.5583 64.1753C44.57 64.1495 44.5867 64.1264 44.6074 64.1072C44.6282 64.0879 44.6526 64.073 44.6791 64.0633C45.5837 63.7054 46.5916 63.711 47.4923 64.0787C48.3929 64.4465 49.1165 65.148 49.5121 66.0367C49.5242 66.0625 49.5311 66.0904 49.5324 66.1189C49.5337 66.1473 49.5293 66.1757 49.5196 66.2024Z" fill="#F4F7FA"/>
<path d="M48.7219 66.5384C48.7115 66.5649 48.696 66.589 48.6762 66.6094C48.6565 66.6299 48.6329 66.6462 48.6068 66.6575C48.5534 66.68 48.4932 66.6806 48.4393 66.6591C48.3855 66.6375 48.3423 66.5956 48.3191 66.5424C48.066 65.9573 47.5936 65.4946 47.0034 65.2535C46.4132 65.0124 45.7521 65.012 45.1616 65.2525C45.1082 65.2754 45.0479 65.2761 44.9939 65.2545C44.94 65.2329 44.8968 65.1908 44.8739 65.1374C44.8636 65.1107 44.8587 65.0823 44.8594 65.0538C44.8602 65.0252 44.8666 64.997 44.8783 64.9709C44.8899 64.9449 44.9066 64.9213 44.9274 64.9017C44.9481 64.8821 44.9726 64.8668 44.9994 64.8567C45.6952 64.5761 46.473 64.5778 47.1675 64.8615C47.8621 65.1453 48.4187 65.6886 48.719 66.3762C48.741 66.4278 48.742 66.486 48.7219 66.5384Z" fill="#F4F7FA"/>
<path d="M47.9159 66.8779C47.8992 66.9182 47.871 66.9527 47.8347 66.977C47.7985 67.0012 47.7558 67.0142 47.7122 67.0142C47.6686 67.0142 47.626 67.0012 47.5897 66.977C47.5534 66.9527 47.5252 66.9182 47.5085 66.8779C47.3482 66.5017 47.046 66.204 46.6675 66.0492C46.289 65.8944 45.8648 65.8951 45.4868 66.0511C45.4601 66.0632 45.4312 66.0698 45.4019 66.0705C45.3727 66.0711 45.3436 66.0658 45.3164 66.0549C45.2892 66.0441 45.2645 66.0278 45.2438 66.0072C45.223 65.9865 45.2066 65.9619 45.1956 65.9348C45.1846 65.9076 45.1792 65.8786 45.1797 65.8493C45.1802 65.82 45.1866 65.7911 45.1985 65.7644C45.2105 65.7376 45.2277 65.7136 45.2491 65.6936C45.2706 65.6737 45.2958 65.6584 45.3233 65.6484C45.8101 65.4492 46.3556 65.4492 46.8423 65.6484C47.0821 65.7457 47.3002 65.8894 47.4842 66.0714C47.6682 66.2534 47.8143 66.4701 47.9142 66.7088C47.937 66.7628 47.9376 66.8235 47.9159 66.8779Z" fill="#F4F7FA"/>
</g>
<path d="M54.9261 63.1182C54.9261 70.4343 49.2053 76.1901 41.8926 75.9657C34.283 75.7321 27.8828 69.1599 27.8828 61.2943C27.8828 53.4287 34.283 47.7206 41.8926 48.5129C49.2047 49.2729 54.9261 55.8014 54.9261 63.1182Z" fill="url(#paint11_linear_1_33064)"/>
<path d="M56.902 62.4873C56.902 69.8041 51.1807 75.5593 43.8692 75.3349C36.259 75.1013 29.8594 68.5291 29.8594 60.6634C29.8594 52.7978 36.2596 47.0898 43.8692 47.882C51.1807 48.6438 56.902 55.1729 56.902 62.4873Z" fill="url(#paint12_linear_1_33064)"/>
<path d="M56.3269 62.4502C56.3269 69.4447 50.853 74.9353 43.8676 74.7109C36.6113 74.4762 30.5195 68.2037 30.5195 60.7103C30.5195 53.217 36.6119 47.7649 43.8676 48.5094C50.853 49.224 56.3269 55.4545 56.3269 62.4502Z" fill="url(#paint13_linear_1_33064)"/>
<path d="M55.9148 62.4209C55.9148 69.1848 50.6181 74.4901 43.8663 74.2634C36.862 74.0281 30.9883 67.9702 30.9883 60.7426C30.9883 53.5151 36.862 48.2472 43.8663 48.9566C50.6181 49.6384 55.9148 55.6571 55.9148 62.4209Z" fill="url(#paint14_linear_1_33064)"/>
<path d="M43.7995 51.2552C43.9771 51.2761 44.141 51.361 44.2607 51.494C44.3803 51.627 44.4475 51.7989 44.4496 51.9778V53.2234C45.1758 53.305 45.8965 53.4301 46.6077 53.598C47.139 53.7227 47.6666 53.8713 48.1906 54.0439C48.3449 54.0953 48.4775 54.1969 48.5674 54.3324C48.6573 54.468 48.6992 54.6297 48.6865 54.7918L48.5335 56.3533C48.5264 56.4483 48.4963 56.5402 48.4458 56.6209C48.3953 56.7016 48.3259 56.7688 48.2435 56.8166C48.1612 56.8645 48.0684 56.8915 47.9733 56.8954C47.8781 56.8993 47.7834 56.8799 47.6975 56.839C47.3523 56.6849 46.9977 56.5527 46.636 56.4431C45.9833 56.2479 45.3117 56.1226 44.6326 56.0692L44.449 56.0542V59.6213C45.9859 59.9676 47.4107 60.6959 48.5915 61.7387C49.0271 62.1694 49.3696 62.6849 49.5978 63.2534C49.826 63.8218 49.9351 64.4311 49.9183 65.0434C49.9443 65.689 49.8262 66.3323 49.5726 66.9266C49.3189 67.5208 48.936 68.0511 48.4518 68.4789C47.273 69.4195 45.8109 69.9342 44.3029 69.9397V71.3142C44.304 71.3991 44.2877 71.4834 44.2552 71.5618C44.2226 71.6403 44.1745 71.7113 44.1136 71.7705C44.0527 71.8297 43.9804 71.8759 43.9011 71.9063C43.8218 71.9366 43.737 71.9505 43.6522 71.9471H43.6407C43.4641 71.9375 43.298 71.8605 43.1765 71.7321C43.055 71.6036 42.9874 71.4335 42.9876 71.2567V69.9012L42.7 69.8879C41.8941 69.8536 41.0912 69.7681 40.2961 69.6319C39.7359 69.5349 39.1814 69.4074 38.6351 69.2498C38.4764 69.2053 38.3378 69.1074 38.2428 68.9726C38.1478 68.8378 38.1023 68.6744 38.1139 68.5099L38.2939 66.5025C38.3026 66.4021 38.3352 66.3051 38.389 66.2198C38.4427 66.1345 38.5161 66.0633 38.603 66.0121C38.6898 65.9609 38.7877 65.9311 38.8883 65.9253C38.989 65.9196 39.0896 65.938 39.1817 65.979C39.6588 66.1672 40.1466 66.3272 40.6425 66.4583C41.4073 66.6602 42.189 66.7908 42.9779 66.8483L42.9894 62.8813C41.4942 62.5908 40.1031 61.9081 38.9585 60.9032C38.5164 60.4642 38.1695 59.9387 37.9398 59.3596C37.71 58.7804 37.6022 58.1602 37.6231 57.5375C37.5891 56.917 37.7026 56.2974 37.9542 55.7292C38.2058 55.1611 38.5884 54.6607 39.0706 54.2689C40.0298 53.5071 41.3928 53.1285 43.1511 53.1297V51.8564C43.1486 51.7727 43.1641 51.6894 43.1965 51.6122C43.2289 51.535 43.2774 51.4656 43.3388 51.4086C43.4002 51.3517 43.4731 51.3085 43.5525 51.2821C43.632 51.2556 43.7162 51.2464 43.7995 51.2552ZM43.147 56.0156C42.6756 56.0256 42.2199 56.187 41.8473 56.4759C41.6936 56.6074 41.5717 56.7721 41.4909 56.9576C41.4101 57.1431 41.3724 57.3445 41.3807 57.5467C41.3757 57.7441 41.4114 57.9405 41.4857 58.1235C41.5599 58.3065 41.6711 58.4723 41.8122 58.6105C42.1938 58.9447 42.6524 59.1788 43.147 59.2917V56.0156ZM44.2977 63.1994V66.8374C44.7992 66.8719 45.2955 66.7176 45.6889 66.4048C45.8543 66.2484 45.9833 66.0576 46.067 65.846C46.1507 65.6343 46.187 65.407 46.1733 65.1798C46.1879 64.7369 46.0261 64.3062 45.7234 63.9825C45.3217 63.6069 44.8323 63.3377 44.3 63.1994H44.2977Z" fill="url(#paint15_linear_1_33064)"/>
<path opacity="0.3" d="M41.6897 64.0778C42.097 60.0573 45.7919 58.3554 45.3098 54.657C45.0123 52.3775 43.2851 50.457 41.3577 48.957C35.5121 49.5704 30.9922 54.4102 30.9922 60.7408C30.9922 67.9701 36.866 74.0279 43.8703 74.2615C44.5352 74.2837 45.2008 74.2512 45.8604 74.1643C43.078 71.3986 41.3399 67.5317 41.6897 64.0778Z" fill="url(#paint16_linear_1_33064)"/>
<path d="M38.8999 37.116C38.9235 38.2694 38.7115 39.4155 38.2771 40.4842C37.8427 41.553 37.1949 42.5219 36.3733 43.3318C35.5517 44.1416 34.5735 44.7754 33.4986 45.1944C32.4238 45.6134 31.2748 45.8089 30.1218 45.7687C27.5837 45.641 25.1909 44.5455 23.4358 42.7075C21.6807 40.8696 20.6967 38.4289 20.6861 35.8876C20.6569 34.6772 20.8878 33.4746 21.3633 32.3611C21.8388 31.2476 22.5477 30.2491 23.4421 29.4331C24.3366 28.6171 25.3958 28.0025 26.5481 27.6309C27.7005 27.2594 28.9191 27.1394 30.1218 27.2793C32.5291 27.5756 34.7465 28.7366 36.3614 30.5462C37.9763 32.3559 38.8785 34.6907 38.8999 37.116Z" fill="url(#paint17_linear_1_33064)"/>
<path d="M40.232 36.6907C40.2556 37.8442 40.0437 38.9903 39.6093 40.0591C39.1749 41.1279 38.5271 42.0968 37.7055 42.9068C36.8839 43.7167 35.9058 44.3506 34.8309 44.7696C33.756 45.1887 32.6069 45.3841 31.4539 45.3439C28.9157 45.2162 26.523 44.1208 24.7679 42.2828C23.0128 40.4449 22.0287 38.0042 22.0181 35.4629C21.9889 34.2525 22.2199 33.0498 22.6953 31.9363C23.1708 30.8228 23.8797 29.8243 24.7742 29.0083C25.6686 28.1923 26.7278 27.5777 27.8802 27.2061C29.0325 26.8346 30.2512 26.7146 31.4539 26.8545C33.861 27.1506 36.0786 28.3116 37.6934 30.1212C39.3083 31.9307 40.2105 34.2655 40.232 36.6907Z" fill="url(#paint18_linear_1_33064)"/>
<path d="M39.8413 36.6654C39.864 37.7675 39.6614 38.8625 39.2459 39.8835C38.8305 40.9045 38.211 41.8299 37.4254 42.603C36.6397 43.3762 35.7045 43.9808 34.677 44.3798C33.6495 44.7788 32.5513 44.9638 31.4498 44.9235C29.0303 44.7977 26.7508 43.7505 25.0789 41.9971C23.4071 40.2436 22.4698 37.9167 22.4594 35.494C22.4317 34.3401 22.6516 33.1937 23.1044 32.132C23.5573 31.0703 24.2325 30.118 25.0845 29.3393C25.9364 28.5606 26.9454 27.9736 28.0435 27.6178C29.1415 27.262 30.303 27.1458 31.4498 27.2769C33.75 27.5561 35.87 28.6628 37.4141 30.3904C38.9583 32.118 39.821 34.3484 39.8413 36.6654Z" fill="url(#paint19_linear_1_33064)"/>
<path d="M39.5655 36.6462C39.5874 37.7113 39.3915 38.7696 38.9898 39.7562C38.588 40.7428 37.9891 41.6369 37.2294 42.3837C36.4698 43.1305 35.5656 43.7143 34.5723 44.0991C33.579 44.484 32.5175 44.6618 31.453 44.6218C29.118 44.4977 26.9189 43.4853 25.3063 41.792C23.6937 40.0988 22.7897 37.8529 22.7796 35.5146C22.7526 34.4008 22.9645 33.2941 23.4011 32.269C23.8376 31.244 24.4888 30.3244 25.3106 29.5721C26.1324 28.8198 27.1058 28.2522 28.1653 27.9077C29.2249 27.5632 30.3459 27.4496 31.453 27.5747C33.6767 27.8427 35.7266 28.9114 37.2197 30.5809C38.7127 32.2504 39.5466 34.4066 39.5655 36.6462Z" fill="url(#paint20_linear_1_33064)"/>
<path d="M31.4056 29.1256C31.5252 29.1397 31.6356 29.1969 31.7162 29.2865C31.7968 29.376 31.842 29.4919 31.8434 29.6123V30.4512C32.3324 30.5062 32.8177 30.5903 33.2967 30.7032C33.6546 30.7872 34.0099 30.8873 34.3628 31.0035C34.4668 31.038 34.5562 31.1064 34.6168 31.1976C34.6774 31.2889 34.7056 31.3978 34.6971 31.507L34.5941 32.5587C34.5895 32.6227 34.5693 32.6846 34.5354 32.739C34.5014 32.7934 34.4547 32.8387 34.3993 32.871C34.3438 32.9032 34.2813 32.9215 34.2172 32.9241C34.1531 32.9267 34.0893 32.9137 34.0314 32.8861C33.7989 32.7823 33.56 32.6934 33.3163 32.6197C32.8767 32.4883 32.4244 32.4038 31.9671 32.3677L31.8434 32.3573V34.7595C32.8778 34.9928 33.8367 35.4831 34.6315 36.1851C34.9247 36.4752 35.1552 36.8225 35.3088 37.2053C35.4624 37.5881 35.5358 37.9983 35.5245 38.4106C35.542 38.8455 35.4624 39.2788 35.2916 39.6791C35.1207 40.0794 34.8627 40.4365 34.5366 40.7246C33.7426 41.3582 32.7579 41.705 31.7421 41.7085V42.6342C31.743 42.6915 31.7322 42.7484 31.7104 42.8014C31.6885 42.8544 31.656 42.9025 31.615 42.9425C31.5739 42.9825 31.5252 43.0137 31.4716 43.0342C31.4181 43.0547 31.361 43.0641 31.3037 43.0617H31.2962C31.1775 43.0551 31.0658 43.0033 30.9841 42.917C30.9024 42.8306 30.8567 42.7163 30.8566 42.5974V41.6843L30.6616 41.6757C30.1188 41.6525 29.578 41.5949 29.0426 41.5031C28.6653 41.4375 28.292 41.3515 27.9241 41.2454C27.8171 41.2155 27.7237 41.1496 27.6597 41.0588C27.5958 40.968 27.5652 40.8579 27.5731 40.7471L27.6939 39.3951C27.7001 39.3275 27.7222 39.2624 27.7584 39.2051C27.7947 39.1478 27.8441 39.0999 27.9025 39.0655C27.9609 39.031 28.0266 39.011 28.0943 39.007C28.162 39.0029 28.2297 39.0151 28.2918 39.0423C28.6131 39.1693 28.9416 39.2771 29.2756 39.3651C29.7907 39.5012 30.3173 39.5892 30.8486 39.628L30.8566 36.9561C29.8496 36.7605 28.9126 36.3008 28.1415 35.6242C27.8437 35.3285 27.6102 34.9746 27.4554 34.5846C27.3007 34.1945 27.2281 33.7767 27.2423 33.3573C27.2193 32.9394 27.2957 32.522 27.4651 32.1393C27.6345 31.7565 27.8922 31.4194 28.217 31.1554C29.0198 30.5959 29.9888 30.3253 30.9654 30.3879V29.5307C30.9637 29.474 30.9742 29.4175 30.9962 29.3653C31.0183 29.313 31.0513 29.2661 31.093 29.2277C31.1348 29.1893 31.1843 29.1602 31.2382 29.1426C31.2921 29.125 31.3492 29.1192 31.4056 29.1256ZM30.9665 32.3314C30.6491 32.3375 30.3421 32.4457 30.0909 32.6398C29.9874 32.7284 29.9054 32.8393 29.8509 32.9641C29.7965 33.089 29.7711 33.2247 29.7767 33.3608C29.7733 33.4937 29.7974 33.6259 29.8474 33.7491C29.8974 33.8724 29.9722 33.984 30.0673 34.0771C30.3242 34.3028 30.6332 34.4609 30.9665 34.5373V32.3314ZM31.7432 37.1701V39.62C32.0811 39.6434 32.4154 39.5395 32.6805 39.3288C32.7919 39.2235 32.8788 39.0951 32.9352 38.9525C32.9915 38.81 33.016 38.6568 33.0067 38.5038C33.0162 38.2058 32.9072 37.9161 32.7035 37.6983C32.4325 37.4449 32.1023 37.2634 31.7432 37.1701Z" fill="url(#paint21_linear_1_33064)"/>
<path opacity="0.3" d="M29.9845 37.7624C30.2583 35.0543 32.7462 33.9075 32.4223 31.4174C32.222 29.8824 31.0587 28.5884 29.7607 27.5781C27.8134 27.7834 26.0144 28.7135 24.721 30.1838C23.4277 31.654 22.7347 33.5569 22.7794 35.5145C22.7894 37.8528 23.6934 40.0989 25.306 41.7922C26.9186 43.4856 29.1177 44.4981 31.4528 44.6223C31.9007 44.6373 32.3491 44.6153 32.7934 44.5567C30.9195 42.6926 29.7486 40.0903 29.9845 37.7624Z" fill="url(#paint22_linear_1_33064)"/>
<path d="M76.3573 70.8541L79.2916 105.145C79.3368 105.562 79.2929 105.983 79.1625 106.382C79.0322 106.78 78.8184 107.146 78.5356 107.456C78.043 107.986 77.3704 108.315 76.649 108.376L33.3826 112.02C32.9598 112.065 32.5322 112.026 32.1247 111.904C31.7173 111.783 31.3381 111.581 31.0092 111.312C30.6803 111.042 30.4083 110.71 30.2091 110.334C30.0099 109.959 29.8875 109.547 29.8488 109.124L27.1302 72.6394C27.1059 72.2215 27.1667 71.803 27.309 71.4093C27.4512 71.0156 27.672 70.6548 27.9579 70.349C28.2437 70.0431 28.5886 69.7985 28.9718 69.63C29.355 69.4615 29.7684 69.3726 30.1871 69.3686L73.1842 67.9699C73.9795 67.9615 74.7485 68.2542 75.337 68.7891C75.9255 69.324 76.2899 70.0617 76.3573 70.8541Z" fill="#00C2CB"/>
<path opacity="0.2" d="M78.586 107.458C78.0868 107.99 77.4083 108.318 76.6816 108.379L33.4008 112.022C32.9773 112.068 32.549 112.028 32.1408 111.907C31.7325 111.785 31.3524 111.584 31.0225 111.315C30.6925 111.045 30.4192 110.713 30.2184 110.338C30.0176 109.962 29.8933 109.55 29.8526 109.126L27.1341 72.642C27.1098 72.2241 27.1706 71.8056 27.3129 71.4119C27.4551 71.0182 27.6759 70.6574 27.9617 70.3515C28.2475 70.0457 28.5925 69.8012 28.9757 69.6326C29.3589 69.4641 29.7724 69.375 30.191 69.3711L30.6915 69.3545C30.8733 70.2963 31.1167 71.3533 31.3492 72.3682C31.3814 72.5092 31.4147 72.6616 31.4464 72.7968C31.7162 73.9676 31.9475 74.9308 31.9889 75.055C33.3381 79.0952 35.2455 83.737 39.2752 85.9958C45.4315 89.4479 53.2292 88.8295 59.7047 90.7202C63.9692 91.9658 68.3471 93.6486 71.7399 96.4661C74.2584 98.4794 76.2476 101.077 77.5349 104.033C77.9837 105.142 78.3354 106.288 78.586 107.458Z" fill="url(#paint23_linear_1_33064)"/>
<g opacity="0.7">
<path d="M73.1908 106.888L71.7007 106.98C71.6176 106.984 71.5364 106.955 71.4741 106.9C71.4119 106.845 71.3734 106.767 71.367 106.684C71.3641 106.646 71.3693 106.607 71.382 106.57C71.3947 106.533 71.4148 106.499 71.441 106.47C71.4672 106.441 71.499 106.418 71.5344 106.402C71.5698 106.386 71.6082 106.377 71.6472 106.376L73.1344 106.278C73.3893 106.257 73.6394 106.197 73.8755 106.099C73.9127 106.085 73.9524 106.078 73.9921 106.08C74.0319 106.081 74.071 106.09 74.1071 106.107C74.1432 106.124 74.1756 106.148 74.2024 106.177C74.2292 106.206 74.25 106.241 74.2633 106.278C74.2895 106.358 74.2843 106.445 74.2488 106.52C74.2133 106.596 74.1501 106.656 74.0723 106.687C73.791 106.8 73.4935 106.868 73.1908 106.888ZM69.3642 107.142L67.0185 107.333C66.9775 107.338 66.9361 107.334 66.8966 107.322C66.8572 107.31 66.8205 107.291 66.7887 107.264C66.757 107.238 66.7308 107.206 66.7117 107.169C66.6926 107.133 66.681 107.093 66.6776 107.052C66.6742 107.011 66.679 106.969 66.6918 106.93C66.7046 106.891 66.7251 106.855 66.7521 106.824C66.7791 106.793 66.812 106.767 66.849 106.749C66.8859 106.731 66.9261 106.72 66.9673 106.718L69.313 106.527C69.3533 106.524 69.3939 106.529 69.4324 106.541C69.4709 106.553 69.5066 106.573 69.5375 106.599C69.5684 106.625 69.5939 106.657 69.6124 106.693C69.6309 106.729 69.6422 106.768 69.6455 106.809C69.6489 106.849 69.6443 106.89 69.632 106.928C69.6197 106.967 69.5999 107.002 69.5738 107.033C69.5476 107.064 69.5157 107.09 69.4797 107.108C69.4438 107.127 69.4045 107.138 69.3642 107.142ZM64.659 107.527L62.2851 107.721C62.2438 107.726 62.202 107.722 62.1623 107.71C62.1225 107.698 62.0855 107.678 62.0535 107.652C62.0214 107.626 61.9951 107.593 61.9759 107.556C61.9566 107.519 61.945 107.479 61.9416 107.438C61.9382 107.396 61.9431 107.355 61.9561 107.315C61.9691 107.276 61.9899 107.239 62.0172 107.208C62.0445 107.177 62.0777 107.151 62.1151 107.133C62.1524 107.115 62.193 107.104 62.2345 107.102L64.6083 106.91C64.6489 106.906 64.6896 106.911 64.7284 106.923C64.7671 106.936 64.803 106.956 64.834 106.982C64.865 107.008 64.8906 107.04 64.9091 107.077C64.9277 107.113 64.939 107.152 64.9423 107.193C64.9456 107.233 64.941 107.274 64.9285 107.313C64.9161 107.352 64.8961 107.388 64.8698 107.419C64.8435 107.45 64.8113 107.475 64.7751 107.494C64.739 107.512 64.6995 107.524 64.659 107.527ZM59.8968 107.917L57.4941 108.114C57.4532 108.117 57.412 108.112 57.373 108.1C57.3339 108.087 57.2978 108.067 57.2665 108.04C57.2353 108.014 57.2095 107.981 57.1908 107.944C57.1721 107.908 57.1608 107.868 57.1575 107.827C57.1542 107.786 57.1591 107.745 57.1717 107.706C57.1843 107.667 57.2045 107.631 57.2311 107.599C57.2577 107.568 57.2902 107.543 57.3268 107.524C57.3633 107.505 57.4031 107.494 57.4441 107.491L59.8462 107.296C59.8881 107.29 59.9307 107.294 59.9714 107.305C60.0121 107.316 60.0501 107.336 60.0831 107.362C60.116 107.389 60.1431 107.422 60.1629 107.459C60.1827 107.497 60.1947 107.538 60.1982 107.58C60.2016 107.622 60.1964 107.664 60.1829 107.705C60.1695 107.745 60.148 107.781 60.1198 107.813C60.0916 107.845 60.0573 107.87 60.0189 107.888C59.9806 107.906 59.9391 107.916 59.8968 107.917ZM55.0776 108.311L52.6462 108.51C52.6043 108.515 52.5619 108.511 52.5215 108.499C52.4811 108.487 52.4435 108.467 52.411 108.44C52.3785 108.413 52.3517 108.38 52.3323 108.343C52.3128 108.305 52.301 108.264 52.2976 108.222C52.2943 108.18 52.2994 108.138 52.3127 108.098C52.326 108.058 52.3472 108.021 52.375 107.989C52.4029 107.958 52.4368 107.932 52.4748 107.914C52.5128 107.895 52.554 107.885 52.5961 107.883L55.027 107.686C55.0692 107.681 55.1121 107.684 55.1531 107.695C55.1941 107.706 55.2323 107.726 55.2654 107.753C55.2985 107.78 55.3259 107.813 55.3458 107.85C55.3656 107.888 55.3777 107.929 55.3811 107.972C55.3845 108.014 55.3792 108.057 55.3656 108.097C55.3519 108.138 55.3302 108.175 55.3018 108.206C55.2734 108.238 55.2387 108.264 55.2001 108.282C55.1615 108.299 55.1196 108.309 55.0771 108.31L55.0776 108.311ZM50.2004 108.71L47.7396 108.912C47.6981 108.916 47.6563 108.911 47.6167 108.898C47.577 108.885 47.5403 108.864 47.5086 108.837C47.4769 108.81 47.4509 108.777 47.432 108.74C47.4131 108.703 47.4017 108.662 47.3985 108.621C47.3952 108.579 47.4002 108.537 47.4131 108.498C47.426 108.458 47.4465 108.421 47.4736 108.39C47.5007 108.358 47.5338 108.332 47.5709 108.313C47.6081 108.294 47.6486 108.283 47.6901 108.279L50.1509 108.08C50.1929 108.075 50.2354 108.079 50.2758 108.091C50.3163 108.103 50.354 108.123 50.3865 108.15C50.4191 108.177 50.446 108.21 50.4655 108.247C50.485 108.285 50.4967 108.326 50.5001 108.368C50.5034 108.41 50.4983 108.452 50.485 108.493C50.4717 108.533 50.4504 108.57 50.4225 108.601C50.3946 108.633 50.3606 108.659 50.3225 108.677C50.2845 108.695 50.2432 108.706 50.201 108.708L50.2004 108.71ZM45.2633 109.113L42.772 109.317C42.7299 109.321 42.6872 109.317 42.6466 109.305C42.606 109.293 42.5681 109.273 42.5352 109.246C42.5023 109.22 42.475 109.187 42.4548 109.149C42.4346 109.112 42.422 109.071 42.4176 109.029C42.4124 108.943 42.4416 108.858 42.4988 108.793C42.5559 108.729 42.6364 108.689 42.7225 108.684L45.2138 108.482C45.2562 108.477 45.2991 108.481 45.3399 108.493C45.3808 108.505 45.4187 108.525 45.4516 108.553C45.4844 108.58 45.5115 108.613 45.5312 108.651C45.5508 108.689 45.5627 108.73 45.566 108.773C45.5693 108.815 45.5641 108.858 45.5505 108.898C45.537 108.939 45.5154 108.976 45.4872 109.008C45.4589 109.04 45.4246 109.066 45.3861 109.084C45.3477 109.102 45.3059 109.113 45.2633 109.115V109.113ZM40.2658 109.521L37.744 109.728C37.7013 109.733 37.6581 109.728 37.6169 109.716C37.5757 109.704 37.5374 109.684 37.5041 109.656C37.4707 109.629 37.4431 109.596 37.4228 109.558C37.4025 109.52 37.3898 109.479 37.3856 109.436C37.3813 109.349 37.4115 109.264 37.4694 109.2C37.5274 109.135 37.6085 109.096 37.6952 109.091L40.2169 108.886C40.2594 108.882 40.3024 108.886 40.3433 108.898C40.3842 108.911 40.4224 108.931 40.4555 108.958C40.4886 108.985 40.516 109.018 40.5362 109.056C40.5563 109.094 40.5689 109.135 40.573 109.177C40.5778 109.264 40.5481 109.349 40.4904 109.414C40.4327 109.478 40.3517 109.518 40.2652 109.523L40.2658 109.521ZM35.2073 109.862C35.1845 109.864 35.1616 109.864 35.1389 109.862C34.2222 109.761 33.3639 109.362 32.6959 108.726C32.665 108.696 32.6405 108.661 32.6239 108.621C32.6073 108.582 32.5991 108.54 32.5996 108.497C32.6001 108.454 32.6095 108.412 32.6271 108.373C32.6446 108.334 32.67 108.299 32.7016 108.27C32.7665 108.209 32.8521 108.175 32.941 108.175C33.0299 108.175 33.1155 108.209 33.1804 108.27C33.7399 108.803 34.4588 109.138 35.2269 109.224C35.2694 109.227 35.3107 109.24 35.3483 109.26C35.3859 109.28 35.4191 109.308 35.4459 109.341C35.4728 109.374 35.4927 109.412 35.5044 109.453C35.5162 109.494 35.5197 109.537 35.5146 109.58C35.5029 109.655 35.4661 109.724 35.4102 109.775C35.3543 109.826 35.2825 109.857 35.2067 109.863L35.2073 109.862ZM75.7978 105.282C75.7407 105.286 75.6835 105.275 75.6327 105.248C75.5819 105.222 75.5395 105.181 75.5104 105.132C75.4812 105.083 75.4664 105.026 75.4677 104.969C75.4689 104.912 75.4862 104.856 75.5175 104.808C75.9085 104.218 76.0873 103.513 76.0245 102.808C76.0209 102.768 76.0253 102.728 76.0373 102.69C76.0494 102.652 76.0689 102.617 76.0947 102.586C76.1205 102.556 76.1522 102.531 76.1877 102.513C76.2232 102.495 76.262 102.484 76.3018 102.481C76.3824 102.475 76.4622 102.501 76.5237 102.554C76.5852 102.606 76.6236 102.681 76.6303 102.761C76.7055 103.602 76.4926 104.443 76.0267 105.147C76.0015 105.185 75.9676 105.218 75.9278 105.241C75.888 105.265 75.8434 105.279 75.7972 105.283L75.7978 105.282ZM31.8876 106.652C31.8025 106.662 31.7168 106.639 31.6484 106.587C31.5801 106.536 31.5344 106.459 31.521 106.375C31.5158 106.327 31.5061 106.286 31.5021 106.239L31.3294 103.937C31.3245 103.895 31.3281 103.853 31.3401 103.813C31.3521 103.772 31.3721 103.735 31.399 103.703C31.426 103.67 31.4592 103.644 31.4967 103.625C31.5342 103.606 31.5751 103.595 31.6171 103.592C31.6586 103.588 31.7005 103.592 31.7402 103.605C31.7798 103.618 31.8164 103.639 31.8476 103.667C31.8789 103.694 31.9041 103.728 31.9218 103.766C31.9394 103.803 31.9491 103.844 31.9503 103.886L32.1229 106.185C32.1257 106.225 32.1643 106.26 32.1683 106.3C32.1743 106.342 32.1717 106.384 32.1604 106.425C32.1492 106.466 32.1296 106.505 32.1029 106.538C32.0762 106.571 32.0431 106.598 32.0054 106.617C31.9678 106.637 31.9264 106.649 31.8841 106.652C31.8772 106.652 31.891 106.652 31.8869 106.653L31.8876 106.652ZM76.2886 101.929C76.1211 101.942 76.0313 101.814 76.017 101.649L75.8214 99.3476C75.807 99.1796 75.8743 99.0341 76.0417 99.022C76.2091 99.0099 76.2989 99.137 76.3133 99.3021L76.5089 101.6C76.5221 101.771 76.4553 101.918 76.2879 101.931L76.2886 101.929ZM31.4813 101.802C31.4398 101.806 31.3979 101.801 31.3583 101.789C31.3186 101.776 31.2821 101.755 31.2508 101.727C31.2196 101.7 31.1944 101.666 31.1767 101.628C31.1591 101.59 31.1494 101.549 31.1482 101.507L30.9664 99.08C30.9617 99.0387 30.9653 98.9969 30.9771 98.957C30.989 98.9171 31.0088 98.8798 31.0352 98.8477C31.0617 98.8156 31.0943 98.7891 31.1312 98.7699C31.1681 98.7507 31.2086 98.739 31.2501 98.7358C31.2916 98.7325 31.3333 98.7376 31.3728 98.7508C31.4122 98.764 31.4487 98.785 31.4799 98.8126C31.5111 98.8402 31.5364 98.8736 31.5543 98.9112C31.5723 98.9488 31.5825 98.9896 31.5843 99.0312L31.7661 101.456C31.7717 101.498 31.7686 101.541 31.757 101.581C31.7454 101.622 31.7256 101.659 31.6989 101.692C31.6721 101.725 31.639 101.751 31.6014 101.771C31.5639 101.79 31.5229 101.801 31.4808 101.804L31.4813 101.802ZM75.8984 97.3345C75.7316 97.3465 75.6413 97.2194 75.6269 97.0531L75.4319 94.7586C75.418 94.5917 75.4847 94.4467 75.6522 94.4358C75.8196 94.4249 75.9094 94.5509 75.9232 94.7177L76.1182 97.01C76.1315 97.1786 76.0647 97.3241 75.8973 97.3356L75.8984 97.3345ZM31.1177 96.9524C31.0762 96.956 31.0342 96.9512 30.9946 96.9381C30.955 96.9249 30.9185 96.9039 30.8873 96.8761C30.8561 96.8484 30.8309 96.8145 30.8133 96.7767C30.7956 96.7389 30.7859 96.6979 30.7846 96.6562L30.6028 94.2345C30.5974 94.1929 30.6007 94.1506 30.6126 94.1103C30.6244 94.0701 30.6445 94.0327 30.6716 94.0006C30.6986 93.9685 30.7321 93.9424 30.7697 93.9239C30.8074 93.9055 30.8485 93.895 30.8905 93.8933C30.9321 93.8898 30.9739 93.8947 31.0135 93.9079C31.0531 93.9211 31.0896 93.9422 31.1207 93.97C31.1518 93.9978 31.177 94.0318 31.1946 94.0696C31.2122 94.1074 31.2218 94.1484 31.223 94.1901L31.4049 96.6101C31.4102 96.6519 31.4069 96.6944 31.395 96.7348C31.3832 96.7752 31.363 96.8127 31.336 96.8449C31.3089 96.8772 31.2754 96.9036 31.2376 96.9223C31.1999 96.941 31.1586 96.9516 31.1166 96.9535L31.1177 96.9524ZM75.5083 92.7523C75.3415 92.7632 75.2512 92.6373 75.2368 92.4698L75.0423 90.1799C75.0285 90.0131 75.0952 89.8699 75.2627 89.8601C75.4301 89.8503 75.5199 89.9751 75.5337 90.1437L75.7282 92.4313C75.7414 92.5965 75.6746 92.7403 75.5078 92.7512L75.5083 92.7523ZM30.7547 92.1154C30.7131 92.1186 30.6713 92.1134 30.6317 92.1C30.5922 92.0866 30.5558 92.0653 30.5247 92.0375C30.4936 92.0096 30.4685 91.9758 30.4509 91.938C30.4332 91.9002 30.4235 91.8591 30.4222 91.8174L30.2409 89.4009C30.2356 89.3597 30.2389 89.3179 30.2506 89.278C30.2624 89.2381 30.2822 89.2011 30.309 89.1693C30.3358 89.1375 30.3688 89.1115 30.4061 89.0932C30.4434 89.0748 30.4842 89.0645 30.5257 89.0627C30.5673 89.0595 30.6091 89.0648 30.6487 89.0783C30.6882 89.0917 30.7246 89.1132 30.7557 89.1411C30.7868 89.1689 30.8118 89.2028 30.8294 89.2406C30.8471 89.2785 30.8569 89.3196 30.8582 89.3613L31.0395 91.7778C31.0443 91.8189 31.0405 91.8606 31.0285 91.9002C31.0165 91.9399 30.9964 91.9765 30.9696 92.0081C30.9428 92.0397 30.9098 92.0654 30.8726 92.0837C30.8355 92.1019 30.7949 92.1124 30.7535 92.1143L30.7547 92.1154ZM75.1194 88.1772C74.9525 88.187 74.8622 88.0593 74.8484 87.8924L74.6539 85.6071C74.6396 85.4408 74.7069 85.2992 74.8738 85.29C75.0406 85.2808 75.1304 85.4091 75.1447 85.5777L75.3392 87.8607C75.3524 88.0229 75.2851 88.1657 75.1183 88.1755L75.1194 88.1772ZM30.3928 87.2859C30.3511 87.2889 30.3092 87.2835 30.2697 87.2699C30.2302 87.2563 30.1938 87.2348 30.1627 87.2068C30.1317 87.1788 30.1066 87.1449 30.089 87.107C30.0714 87.069 30.0616 87.0279 30.0602 86.9862L29.8796 84.5749C29.8743 84.5336 29.8777 84.4916 29.8896 84.4517C29.9015 84.4118 29.9217 84.3748 29.9488 84.3431C29.9759 84.3115 30.0093 84.286 30.047 84.2681C30.0846 84.2503 30.1256 84.2405 30.1673 84.2395C30.209 84.2367 30.2507 84.2423 30.2902 84.256C30.3297 84.2697 30.366 84.2912 30.3969 84.3193C30.4279 84.3473 30.453 84.3812 30.4705 84.4191C30.4881 84.457 30.4978 84.498 30.4992 84.5398L30.6799 86.9494C30.6849 86.9906 30.6812 87.0325 30.6691 87.0723C30.657 87.112 30.6367 87.1489 30.6096 87.1804C30.5825 87.2119 30.5491 87.2374 30.5116 87.2553C30.474 87.2732 30.4332 87.283 30.3916 87.2842L30.3928 87.2859ZM74.7311 83.6106C74.5642 83.6192 74.4739 83.4909 74.4595 83.3229L74.2656 81.0423C74.2512 80.8766 74.3191 80.7356 74.4859 80.7275C74.6528 80.7195 74.7426 80.8484 74.757 81.0152L74.9508 83.2936C74.9641 83.4587 74.8962 83.5997 74.7299 83.6089L74.7311 83.6106ZM30.0314 82.4673C29.9897 82.47 29.9478 82.4643 29.9083 82.4505C29.8688 82.4367 29.8325 82.415 29.8015 82.3869C29.7705 82.3588 29.7454 82.3248 29.7278 82.2868C29.7102 82.2489 29.7003 82.2077 29.6989 82.1659L29.5188 79.7599C29.5135 79.7189 29.5168 79.6772 29.5286 79.6376C29.5404 79.5981 29.5604 79.5614 29.5872 79.5301C29.6141 79.4987 29.6472 79.4735 29.6845 79.4557C29.7218 79.438 29.7623 79.4283 29.8036 79.4272C29.8454 79.4247 29.8872 79.4307 29.9267 79.4446C29.9661 79.4586 30.0023 79.4801 30.0333 79.5083C30.0642 79.5364 30.0892 79.5705 30.1067 79.6084C30.1243 79.6464 30.1341 79.6874 30.1356 79.7292L30.3162 82.1332C30.3213 82.1742 30.3178 82.2157 30.3059 82.2552C30.2939 82.2948 30.2738 82.3314 30.2469 82.3627C30.2199 82.394 30.1868 82.4193 30.1495 82.437C30.1122 82.4547 30.0716 82.4645 30.0303 82.4657L30.0314 82.4673ZM74.3439 79.0533C74.177 79.0614 74.0866 78.9325 74.0728 78.7656L73.8796 76.4901C73.8657 76.3244 73.933 76.1851 74.0999 76.1782C74.2667 76.1713 74.3565 76.3008 74.3703 76.4659L74.5636 78.7391C74.5763 78.9042 74.5089 79.044 74.3427 79.0504L74.3439 79.0533ZM29.6707 77.6586C29.629 77.661 29.5871 77.655 29.5477 77.6411C29.5082 77.6271 29.472 77.6053 29.4411 77.5771C29.4101 77.549 29.3852 77.5148 29.3676 77.4769C29.35 77.4389 29.3402 77.3977 29.3387 77.3559L29.2035 75.5494C29.1892 75.3342 29.1936 75.1182 29.2167 74.9038C29.2293 74.818 29.2754 74.7408 29.3448 74.689C29.4143 74.6372 29.5015 74.6151 29.5873 74.6276C29.6287 74.6323 29.6687 74.6452 29.7049 74.6657C29.7412 74.6862 29.773 74.7138 29.7983 74.7469C29.8237 74.7799 29.8421 74.8177 29.8525 74.858C29.8629 74.8983 29.8651 74.9403 29.8589 74.9815C29.8301 75.1604 29.817 75.3417 29.8198 75.523L29.9555 77.3278C29.9607 77.3686 29.9572 77.4101 29.9453 77.4495C29.9333 77.4888 29.9132 77.5253 29.8862 77.5564C29.8592 77.5874 29.826 77.6124 29.7887 77.6297C29.7513 77.647 29.7107 77.6564 29.6695 77.6569L29.6707 77.6586ZM73.9572 74.5057C73.7904 74.5126 73.7006 74.3826 73.6862 74.218L73.6488 73.7778C73.5831 73.2084 73.3691 72.6662 73.028 72.2054C73.0017 72.1765 72.9816 72.1423 72.9693 72.1051C72.957 72.0679 72.9528 72.0286 72.9568 71.9897C72.9607 71.9507 72.9728 71.9131 72.9923 71.8791C73.0118 71.8452 73.0383 71.8156 73.07 71.7926C73.1016 71.7696 73.1378 71.7535 73.1761 71.7454C73.2144 71.7373 73.254 71.7373 73.2923 71.7455C73.3305 71.7538 73.3666 71.77 73.3982 71.7932C73.4298 71.8163 73.4562 71.8458 73.4756 71.8798C73.8593 72.4353 74.0885 73.0828 74.1396 73.756L74.177 74.1956C74.1896 74.3595 74.1229 74.4977 73.956 74.5051L73.9572 74.5057ZM30.6218 73.1467C30.5274 73.1507 30.4354 73.1173 30.3658 73.0536C30.3339 73.0261 30.3081 72.9921 30.2901 72.9541C30.2721 72.9161 30.2622 72.8747 30.261 72.8326C30.2599 72.7905 30.2676 72.7488 30.2835 72.7098C30.2995 72.6709 30.3234 72.6356 30.3537 72.6065C31.0143 71.9843 31.862 71.5979 32.7649 71.5076C32.8515 71.4982 32.9385 71.5215 33.0087 71.573C33.0789 71.6246 33.1272 71.7006 33.1441 71.786C33.1494 71.8274 33.1461 71.8696 33.1346 71.9097C33.123 71.9499 33.1034 71.9873 33.0769 72.0196C33.0504 72.0519 33.0176 72.0785 32.9805 72.0977C32.9434 72.1169 32.9027 72.1283 32.861 72.1313C32.1048 72.2071 31.3949 72.5306 30.8416 73.0517C30.782 73.1092 30.7033 73.1426 30.6206 73.1456L30.6218 73.1467ZM71.4142 70.9672C71.3767 70.9685 71.3392 70.9631 71.3037 70.9512C70.9332 70.8271 70.5434 70.7705 70.153 70.7843L69.1174 70.8217C69.0361 70.8245 68.9567 70.7964 68.8953 70.743C68.8339 70.6896 68.7951 70.6149 68.7865 70.534C68.7832 70.4949 68.7879 70.4555 68.8004 70.4183C68.8129 70.381 68.833 70.3468 68.8592 70.3176C68.8855 70.2883 68.9174 70.2648 68.9531 70.2484C68.9888 70.232 69.0275 70.2231 69.0667 70.2222L70.1023 70.1859C70.5682 70.1697 71.0332 70.2376 71.4751 70.3862C71.5521 70.4109 71.6166 70.4643 71.6551 70.5354C71.6935 70.6065 71.703 70.6897 71.6817 70.7676C71.663 70.825 71.6267 70.8751 71.5779 70.9107C71.5292 70.9464 71.4705 70.9657 71.4102 70.9661L71.4142 70.9672ZM66.7981 70.9051L64.4651 70.9891C64.3827 70.992 64.3024 70.9635 64.2403 70.9093C64.1782 70.8552 64.139 70.7793 64.1308 70.6974C64.1272 70.6578 64.1319 70.618 64.1445 70.5804C64.157 70.5427 64.1773 70.508 64.2039 70.4785C64.2306 70.4491 64.2631 70.4254 64.2993 70.4091C64.3355 70.3928 64.3747 70.3842 64.4144 70.3839L66.7475 70.3015C66.8294 70.2988 66.9092 70.3274 66.9708 70.3813C67.0325 70.4353 67.0713 70.5106 67.0794 70.5922C67.0828 70.6317 67.0779 70.6715 67.0652 70.709C67.0524 70.7466 67.0319 70.781 67.0052 70.8103C66.9784 70.8396 66.946 70.863 66.9097 70.8791C66.8735 70.8953 66.8343 70.9037 66.7946 70.904L66.7981 70.9051ZM62.1182 71.0731L59.7593 71.1577C59.6763 71.1607 59.5953 71.1321 59.5327 71.0776C59.47 71.0231 59.4305 70.9468 59.4221 70.8642C59.419 70.8244 59.424 70.7842 59.437 70.7464C59.45 70.7085 59.4706 70.6738 59.4976 70.6443C59.5246 70.6147 59.5573 70.591 59.5938 70.5746C59.6303 70.5582 59.6698 70.5495 59.7098 70.549L62.0687 70.4656C62.1513 70.4627 62.232 70.4913 62.2943 70.5457C62.3566 70.6001 62.3959 70.6762 62.4041 70.7585C62.4073 70.7984 62.4022 70.8386 62.3891 70.8765C62.376 70.9143 62.3552 70.949 62.328 70.9784C62.3008 71.0079 62.2679 71.0315 62.2312 71.0476C62.1945 71.0636 62.1549 71.072 62.1148 71.072L62.1182 71.0731ZM57.3831 71.2458L54.9942 71.332C54.9106 71.3354 54.8287 71.3068 54.7654 71.2519C54.7021 71.1971 54.6622 71.1202 54.6536 71.0369C54.6505 70.9966 54.6558 70.9561 54.669 70.9179C54.6822 70.8797 54.7032 70.8446 54.7305 70.8148C54.7579 70.785 54.7911 70.7611 54.828 70.7447C54.865 70.7283 54.9049 70.7196 54.9453 70.7193L57.3336 70.6353C57.4168 70.6321 57.4983 70.6607 57.5612 70.7154C57.6241 70.77 57.6639 70.8464 57.6725 70.9293C57.675 70.9693 57.6693 71.0095 57.6557 71.0473C57.6422 71.085 57.6209 71.1196 57.5935 71.1488C57.5661 71.1781 57.533 71.2014 57.4962 71.2174C57.4594 71.2334 57.4198 71.2416 57.3797 71.2417L57.3831 71.2458ZM52.591 71.4184L50.1745 71.5052C50.0899 71.509 50.0072 71.4805 49.943 71.4253C49.8788 71.3701 49.8382 71.2926 49.8293 71.2084C49.8265 71.1678 49.832 71.127 49.8455 71.0886C49.859 71.0502 49.8802 71.0148 49.9079 70.9849C49.9355 70.955 49.969 70.931 50.0063 70.9145C50.0435 70.898 50.0837 70.8893 50.1244 70.889L52.5409 70.8038C52.6254 70.7997 52.7082 70.8281 52.7723 70.8831C52.8365 70.9381 52.8773 71.0156 52.8861 71.0997C52.8887 71.1403 52.8828 71.1811 52.8689 71.2193C52.855 71.2576 52.8334 71.2926 52.8054 71.3222C52.7773 71.3517 52.7436 71.3752 52.7061 71.3911C52.6686 71.4071 52.6282 71.4152 52.5875 71.4149L52.591 71.4184ZM47.7419 71.591L45.2955 71.679C45.2109 71.6822 45.1281 71.6532 45.064 71.5978C45 71.5423 44.9593 71.4646 44.9503 71.3803C44.9476 71.3392 44.9532 71.2981 44.967 71.2592C44.9808 71.2204 45.0025 71.1849 45.0306 71.1547C45.0587 71.1246 45.0927 71.1004 45.1304 71.0839C45.1682 71.0674 45.2089 71.0589 45.2501 71.0588L47.6959 70.973C47.7804 70.9694 47.8632 70.9982 47.9273 71.0535C47.9914 71.1087 48.0321 71.1863 48.0411 71.2705C48.0436 71.3115 48.0377 71.3526 48.0237 71.3913C48.0096 71.4299 47.9877 71.4652 47.9595 71.4951C47.9312 71.5249 47.8971 71.5487 47.8593 71.5648C47.8214 71.5809 47.7808 71.5889 47.7396 71.5886L47.7419 71.591ZM42.8342 71.7676L40.3602 71.8568C40.2743 71.8613 40.1899 71.8327 40.1245 71.777C40.059 71.7213 40.0174 71.6425 40.0081 71.557C40.0057 71.5156 40.0117 71.474 40.0259 71.435C40.04 71.3959 40.062 71.3603 40.0904 71.33C40.1188 71.2998 40.1531 71.2755 40.1912 71.259C40.2293 71.2424 40.2703 71.2338 40.3118 71.2337L42.7858 71.1467C42.8713 71.1426 42.9551 71.1713 43.0202 71.2269C43.0852 71.2826 43.1265 71.3608 43.1356 71.4459C43.1379 71.4872 43.1317 71.5286 43.1174 71.5674C43.1031 71.6062 43.0809 71.6417 43.0523 71.6717C43.0238 71.7016 42.9893 71.7254 42.9512 71.7415C42.9131 71.7576 42.8721 71.7657 42.8307 71.7653L42.8342 71.7676ZM37.8666 71.9465L35.3604 72.0363C35.2739 72.0408 35.1889 72.0121 35.1228 71.9561C35.0567 71.9001 35.0145 71.821 35.0048 71.7349C35.0025 71.693 35.0087 71.6511 35.0231 71.6117C35.0375 71.5723 35.0598 71.5362 35.0886 71.5058C35.1174 71.4753 35.1521 71.4509 35.1906 71.4343C35.2292 71.4177 35.2707 71.4091 35.3126 71.4091L37.8188 71.3212C37.9051 71.3168 37.9896 71.3455 38.0554 71.4014C38.1211 71.4573 38.1631 71.5363 38.1727 71.6221C38.1747 71.6638 38.1682 71.7055 38.1535 71.7447C38.1388 71.7839 38.1163 71.8197 38.0873 71.8499C38.0584 71.8801 38.0236 71.9039 37.985 71.9201C37.9465 71.9364 37.905 71.9447 37.8632 71.9443L37.8666 71.9465Z" fill="white"/>
</g>
<path d="M78.1007 80.298C77.9741 80.2189 77.8304 80.1717 77.6816 80.16C77.5329 80.1484 77.3835 80.1728 77.2463 80.2313L68.4486 83.9952C67.823 84.2539 67.2935 84.701 66.9334 85.2742C66.5733 85.8473 66.4005 86.5184 66.4388 87.1942L66.7427 90.8477C66.829 91.5741 67.1413 92.2548 67.6355 92.794C68.1297 93.3332 68.7808 93.7036 69.4969 93.8527L78.6018 95.8464C78.7446 95.8779 78.8929 95.8759 79.0349 95.8405C79.1769 95.805 79.3086 95.7371 79.4199 95.6421C79.5298 95.5476 79.616 95.4287 79.6718 95.2949C79.7275 95.1611 79.7512 95.0162 79.741 94.8717L78.5518 81.0385C78.5402 80.8883 78.4933 80.7429 78.4149 80.6142C78.3365 80.4855 78.2288 80.3772 78.1007 80.298Z" fill="#1AA4B0"/>
<path d="M72.2881 88.6052C72.3087 88.8447 72.281 89.0858 72.2065 89.3143C72.132 89.5428 72.0123 89.7539 71.8545 89.9352C71.6968 90.1165 71.5041 90.2642 71.2881 90.3695C71.0721 90.4748 70.8371 90.5356 70.5971 90.5482C70.1037 90.5774 69.6184 90.4138 69.2435 90.0917C68.8687 89.7695 68.6338 89.3143 68.5886 88.8221C68.568 88.582 68.5961 88.3402 68.6712 88.1112C68.7463 87.8822 68.8668 87.6707 69.0255 87.4894C69.1843 87.308 69.3779 87.1605 69.595 87.0558C69.812 86.951 70.048 86.8912 70.2888 86.8797C70.7804 86.8531 71.2633 87.0179 71.636 87.3396C72.0088 87.6613 72.2425 88.1149 72.2881 88.6052Z" fill="#FDD23A"/>
<defs>
<linearGradient id="paint0_linear_1_33064" x1="-117.829" y1="-75.1074" x2="-95.9614" y2="26.2418" gradientUnits="userSpaceOnUse">
<stop stop-color="#AA80F9"/>
<stop offset="0.996" stop-color="#6165D7"/>
</linearGradient>
<linearGradient id="paint1_linear_1_33064" x1="-126.944" y1="-79.5047" x2="-115.846" y2="27.4678" gradientUnits="userSpaceOnUse">
<stop stop-color="#AA80F9"/>
<stop offset="0.996" stop-color="#6165D7"/>
</linearGradient>
<linearGradient id="paint2_linear_1_33064" x1="-200.829" y1="-56.0837" x2="-256.526" y2="-59.8515" gradientUnits="userSpaceOnUse">
<stop stop-color="#311944"/>
<stop offset="1" stop-color="#893976"/>
</linearGradient>
<linearGradient id="paint3_linear_1_33064" x1="-254.411" y1="-71.483" x2="-230.492" y2="-56.8072" gradientUnits="userSpaceOnUse">
<stop stop-color="#F57E53"/>
<stop offset="0.004" stop-color="#F58152"/>
<stop offset="0.042" stop-color="#F99A4D"/>
<stop offset="0.084" stop-color="#FCAD49"/>
<stop offset="0.133" stop-color="#FEBA46"/>
<stop offset="0.196" stop-color="#FFC244"/>
<stop offset="0.318" stop-color="#FFC444"/>
<stop offset="0.455" stop-color="#FDB946"/>
<stop offset="0.694" stop-color="#F99C4C"/>
<stop offset="0.996" stop-color="#F36F56"/>
</linearGradient>
<linearGradient id="paint4_linear_1_33064" x1="-246.519" y1="-62.9591" x2="-241.139" y2="-62.9591" gradientUnits="userSpaceOnUse">
<stop stop-color="#FF9085"/>
<stop offset="1" stop-color="#FB6FBB"/>
</linearGradient>
<linearGradient id="paint5_linear_1_33064" x1="-246.157" y1="-66.1337" x2="-241.272" y2="-66.1337" gradientUnits="userSpaceOnUse">
<stop stop-color="#FF9085"/>
<stop offset="1" stop-color="#FB6FBB"/>
</linearGradient>
<linearGradient id="paint6_linear_1_33064" x1="-246.322" y1="-64.9748" x2="-241.433" y2="-64.9748" gradientUnits="userSpaceOnUse">
<stop stop-color="#FF9085"/>
<stop offset="1" stop-color="#FB6FBB"/>
</linearGradient>
<linearGradient id="paint7_linear_1_33064" x1="-246.41" y1="-63.8038" x2="-241.521" y2="-63.8038" gradientUnits="userSpaceOnUse">
<stop stop-color="#FF9085"/>
<stop offset="1" stop-color="#FB6FBB"/>
</linearGradient>
<linearGradient id="paint8_linear_1_33064" x1="-245.483" y1="-63.0724" x2="-242.405" y2="-63.0724" gradientUnits="userSpaceOnUse">
<stop stop-color="#FF9085"/>
<stop offset="1" stop-color="#FB6FBB"/>
</linearGradient>
<linearGradient id="paint9_linear_1_33064" x1="-248.769" y1="-47.9894" x2="-237.973" y2="-47.9894" gradientUnits="userSpaceOnUse">
<stop stop-color="#FB6FBB"/>
<stop offset="1" stop-color="#FF9085"/>
</linearGradient>
<linearGradient id="paint10_linear_1_33064" x1="-233.095" y1="-47.8557" x2="-219.027" y2="-47.8557" gradientUnits="userSpaceOnUse">
<stop stop-color="#FB6FBB"/>
<stop offset="1" stop-color="#FF9085"/>
</linearGradient>
<linearGradient id="paint11_linear_1_33064" x1="36.78" y1="63.6925" x2="20.9364" y2="68.5956" gradientUnits="userSpaceOnUse">
<stop stop-color="#FCB148"/>
<stop offset="0.052" stop-color="#FDBA46"/>
<stop offset="0.142" stop-color="#FFC244"/>
<stop offset="0.318" stop-color="#FFC444"/>
<stop offset="0.485" stop-color="#FDB946"/>
<stop offset="0.775" stop-color="#F99C4D"/>
<stop offset="0.866" stop-color="#F8924F"/>
<stop offset="1" stop-color="#F8924F"/>
</linearGradient>
<linearGradient id="paint12_linear_1_33064" x1="49.5194" y1="48.0013" x2="35.0358" y2="78.8603" gradientUnits="userSpaceOnUse">
<stop stop-color="#FFDB44"/>
<stop offset="1" stop-color="#FEEF06"/>
</linearGradient>
<linearGradient id="paint13_linear_1_33064" x1="46.933" y1="80.7874" x2="44.1273" y2="65.9595" gradientUnits="userSpaceOnUse">
<stop stop-color="#FCB148"/>
<stop offset="0.052" stop-color="#FDBA46"/>
<stop offset="0.142" stop-color="#FFC244"/>
<stop offset="0.318" stop-color="#FFC444"/>
<stop offset="0.485" stop-color="#FDB946"/>
<stop offset="0.775" stop-color="#F99C4D"/>
<stop offset="0.866" stop-color="#F8924F"/>
<stop offset="1" stop-color="#F8924F"/>
</linearGradient>
<linearGradient id="paint14_linear_1_33064" x1="41.1832" y1="56.7597" x2="52.7055" y2="80.3776" gradientUnits="userSpaceOnUse">
<stop stop-color="#FCB148"/>
<stop offset="0.052" stop-color="#FDBA46"/>
<stop offset="0.142" stop-color="#FFC244"/>
<stop offset="0.318" stop-color="#FFC444"/>
<stop offset="0.485" stop-color="#FDB946"/>
<stop offset="0.775" stop-color="#F99C4D"/>
<stop offset="0.866" stop-color="#F8924F"/>
<stop offset="1" stop-color="#F8924F"/>
</linearGradient>
<linearGradient id="paint15_linear_1_33064" x1="40.7303" y1="51.6452" x2="52.9292" y2="67.7979" gradientUnits="userSpaceOnUse">
<stop stop-color="#FFDB44"/>
<stop offset="1" stop-color="#FEEF06"/>
</linearGradient>
<linearGradient id="paint16_linear_1_33064" x1="37.8911" y1="58.2969" x2="56.4631" y2="71.9084" gradientUnits="userSpaceOnUse">
<stop stop-color="#FCB148"/>
<stop offset="0.052" stop-color="#FDBA46"/>
<stop offset="0.142" stop-color="#FFC244"/>
<stop offset="0.318" stop-color="#FFC444"/>
<stop offset="0.485" stop-color="#FDB946"/>
<stop offset="0.775" stop-color="#F99C4D"/>
<stop offset="0.866" stop-color="#F8924F"/>
<stop offset="1" stop-color="#F8924F"/>
</linearGradient>
<linearGradient id="paint17_linear_1_33064" x1="26.6773" y1="37.5" x2="16.0037" y2="40.8026" gradientUnits="userSpaceOnUse">
<stop stop-color="#FCB148"/>
<stop offset="0.052" stop-color="#FDBA46"/>
<stop offset="0.142" stop-color="#FFC244"/>
<stop offset="0.318" stop-color="#FFC444"/>
<stop offset="0.485" stop-color="#FDB946"/>
<stop offset="0.775" stop-color="#F99C4D"/>
<stop offset="0.866" stop-color="#F8924F"/>
<stop offset="1" stop-color="#F8924F"/>
</linearGradient>
<linearGradient id="paint18_linear_1_33064" x1="35.2602" y1="26.9277" x2="25.5003" y2="47.719" gradientUnits="userSpaceOnUse">
<stop stop-color="#FFDB44"/>
<stop offset="1" stop-color="#FEEF06"/>
</linearGradient>
<linearGradient id="paint19_linear_1_33064" x1="33.5145" y1="49.0186" x2="31.6239" y2="39.028" gradientUnits="userSpaceOnUse">
<stop stop-color="#FCB148"/>
<stop offset="0.052" stop-color="#FDBA46"/>
<stop offset="0.142" stop-color="#FFC244"/>
<stop offset="0.318" stop-color="#FFC444"/>
<stop offset="0.485" stop-color="#FDB946"/>
<stop offset="0.775" stop-color="#F99C4D"/>
<stop offset="0.866" stop-color="#F8924F"/>
<stop offset="1" stop-color="#F8924F"/>
</linearGradient>
<linearGradient id="paint20_linear_1_33064" x1="29.6444" y1="32.827" x2="37.4115" y2="48.74" gradientUnits="userSpaceOnUse">
<stop stop-color="#FCB148"/>
<stop offset="0.052" stop-color="#FDBA46"/>
<stop offset="0.142" stop-color="#FFC244"/>
<stop offset="0.318" stop-color="#FFC444"/>
<stop offset="0.485" stop-color="#FDB946"/>
<stop offset="0.775" stop-color="#F99C4D"/>
<stop offset="0.866" stop-color="#F8924F"/>
<stop offset="1" stop-color="#F8924F"/>
</linearGradient>
<linearGradient id="paint21_linear_1_33064" x1="29.3353" y1="29.3879" x2="37.5513" y2="40.2682" gradientUnits="userSpaceOnUse">
<stop stop-color="#FFDB44"/>
<stop offset="1" stop-color="#FEEF06"/>
</linearGradient>
<linearGradient id="paint22_linear_1_33064" x1="27.4248" y1="33.8691" x2="39.9348" y2="43.0389" gradientUnits="userSpaceOnUse">
<stop stop-color="#FCB148"/>
<stop offset="0.052" stop-color="#FDBA46"/>
<stop offset="0.142" stop-color="#FFC244"/>
<stop offset="0.318" stop-color="#FFC444"/>
<stop offset="0.485" stop-color="#FDB946"/>
<stop offset="0.775" stop-color="#F99C4D"/>
<stop offset="0.866" stop-color="#F8924F"/>
<stop offset="1" stop-color="#F8924F"/>
</linearGradient>
<linearGradient id="paint23_linear_1_33064" x1="197.503" y1="34.48" x2="14.9239" y2="134.628" gradientUnits="userSpaceOnUse">
<stop stop-color="#AB316D"/>
<stop offset="1" stop-color="#792D3D"/>
</linearGradient>
</defs>
</svg>
