<svg width="148" height="141" viewBox="0 0 148 141" fill="none" xmlns="http://www.w3.org/2000/svg">
<path d="M127.356 96.448C127.287 96.3876 127.214 96.3211 127.142 96.2517C122.612 91.9028 121.679 85.0776 115.605 82.1331C109.922 79.3879 102.74 79.5751 98.2283 84.4041C95.8727 86.9258 95.7398 91.5737 93.2422 93.6544C92.1037 94.6058 91.3427 91.3773 87.3562 92.7062C83.3698 94.035 83.1795 98.2117 81.6635 99.1599C80.1474 100.108 79.7518 95.7443 75.2218 95.9285C70.6918 96.1127 70.4773 100.673 68.768 100.483C67.0587 100.292 64.9719 98.2056 62.6948 99.1539C60.4177 100.102 56.999 102.95 53.0126 103.14C50.5866 103.259 48.1745 103.577 45.8008 104.092H146.772C146.887 104.092 145.498 100.054 145.38 99.8123C144.278 97.517 142.544 94.4306 139.732 94.1014C135.29 93.591 131.464 100.045 127.356 96.448Z" stroke="#272727" stroke-miterlimit="10"/>
<path d="M93.4949 97.6836C93.3983 98.043 93.3077 98.4144 93.1929 98.795C93.057 99.3053 92.8215 99.864 92.3232 100.036C91.9909 100.116 91.6429 100.098 91.3205 99.9848C89.9525 99.6406 88.8834 99.1694 87.5395 99.7312C85.2624 100.679 85.6399 102.008 84.1238 102.199C82.6078 102.389 82.4145 101.628 80.1374 102.008C77.8603 102.389 76.7188 103.518 76.7188 103.518" stroke="#272727" stroke-miterlimit="10"/>
<path d="M116.234 100.655C114.265 100.489 111.939 100.205 110.517 99.7307C107.461 98.7129 105.655 95.6657 102.873 94.0953C101.061 93.0715 98.6091 92.7031 96.634 93.4581C96.0067 93.6779 95.4384 94.039 94.9729 94.5134C94.5074 94.9878 94.1571 95.5629 93.9492 96.1942" stroke="#272727" stroke-miterlimit="10"/>
<path d="M119.82 100.869C119.82 100.869 119.086 100.848 118.008 100.781" stroke="#272727" stroke-miterlimit="10"/>
<path d="M69.5818 65.6705L69.4127 65.5165C65.8098 62.0586 65.0699 56.6256 60.2379 54.2911C55.7079 52.1076 50.0121 52.2556 46.4243 56.1031C44.5519 58.1054 44.4462 61.8019 42.459 63.4568C41.553 64.2118 40.949 61.6448 37.781 62.7018C34.613 63.7588 34.459 67.0809 33.251 67.8359C32.043 68.5909 31.741 65.1178 28.117 65.2719C24.4929 65.4259 24.345 69.0439 22.9829 68.8959C21.6209 68.7479 19.9629 67.0839 18.1509 67.8389C16.3389 68.5939 13.6209 70.8589 10.4529 71.0099C8.52271 71.1035 6.60354 71.3561 4.71484 71.7649H85.0171C85.1107 71.7649 84.0024 68.5546 83.9118 68.3613C83.036 66.5493 81.6589 64.085 79.421 63.8313C75.8906 63.3995 72.8465 68.5305 69.5818 65.6705Z" stroke="#272727" stroke-miterlimit="10"/>
<path d="M42.658 66.6523C42.5855 66.9392 42.51 67.2352 42.4284 67.5372C42.3167 67.9419 42.1264 68.3889 41.7369 68.5248C41.4725 68.5876 41.1957 68.5729 40.9396 68.4825C39.8524 68.2107 39.0007 67.8362 37.9195 68.2801C36.1075 69.0351 36.4095 70.0921 35.2015 70.2431C33.9935 70.3941 33.8425 69.7901 32.0305 70.0921C31.027 70.2243 30.0831 70.6438 29.3125 71.3002" stroke="#272727" stroke-miterlimit="10"/>
<path d="M60.7277 69.0174C59.1633 68.8845 57.315 68.658 56.1976 68.2805C53.7665 67.4711 52.332 65.0521 50.1214 63.8018C48.6808 62.9864 46.7329 62.6935 45.1595 63.2945C44.6606 63.469 44.2087 63.7563 43.8389 64.1339C43.4691 64.5116 43.1914 64.9694 43.0273 65.4719" stroke="#272727" stroke-miterlimit="10"/>
<path d="M63.589 69.1866C63.589 69.1866 63.0091 69.1685 62.1484 69.1172" stroke="#272727" stroke-miterlimit="10"/>
<path d="M62.9445 5.66326C62.9209 5.64373 62.8987 5.62253 62.8781 5.59984C61.4254 4.20761 61.1295 2.02414 59.1846 1.06981C57.3726 0.190986 55.0683 0.251386 53.6247 1.79764C52.8697 2.60398 52.8305 4.08983 52.0302 4.75725C51.6647 5.05926 51.4262 4.02943 50.1457 4.45525C48.8652 4.88107 48.8108 6.21592 48.3337 6.52094C47.8565 6.82597 47.7297 5.42468 46.268 5.4881C44.8063 5.55152 44.758 6.99811 44.2023 6.94375C43.6466 6.88939 42.9943 6.21592 42.2574 6.52094C41.5205 6.82597 40.4454 7.72895 39.1619 7.79539C38.3848 7.8329 37.6121 7.9339 36.8516 8.09739H69.1658C69.202 8.09739 68.755 6.80785 68.7188 6.72932C68.3655 5.99546 67.8128 5.00791 66.9068 4.91731C65.4844 4.74819 64.2582 6.81389 62.9445 5.66326Z" stroke="#272727" stroke-miterlimit="10"/>
<path d="M52.1066 6.05859C52.0764 6.17335 52.0462 6.29416 52.013 6.41496C52.0022 6.49848 51.9713 6.57814 51.9229 6.64706C51.8745 6.71598 51.8101 6.7721 51.7352 6.81058C51.6306 6.84062 51.5196 6.84062 51.415 6.81058C50.9771 6.69884 50.6359 6.55086 50.207 6.72904C49.4792 7.03104 49.603 7.45686 49.1138 7.51726C48.6245 7.57766 48.5672 7.33606 47.8393 7.45686C47.4354 7.5091 47.0554 7.67808 46.7461 7.94309" stroke="#272727" stroke-miterlimit="10"/>
<path d="M59.3881 7.00979C58.7695 6.97055 58.1564 6.86938 57.5579 6.70779C56.5795 6.38163 56.0026 5.40616 55.1117 4.89578C54.8124 4.72253 54.4797 4.61466 54.1356 4.57926C53.7915 4.54387 53.4439 4.58175 53.1155 4.69042C52.915 4.76087 52.7333 4.8765 52.5846 5.02836C52.4359 5.18022 52.3241 5.36425 52.2578 5.56622" stroke="#272727" stroke-miterlimit="10"/>
<path d="M60.5321 7.08C60.5321 7.08 60.2965 7.08 59.9492 7.0498" stroke="#272727" stroke-miterlimit="10"/>
<path d="M127.395 129.32L127.325 129.257C125.876 127.868 125.58 125.681 123.635 124.727C121.823 123.848 119.518 123.909 118.075 125.455C117.32 126.261 117.278 127.75 116.477 128.414C116.115 128.716 115.873 127.687 114.596 128.112C113.318 128.538 113.258 129.873 112.784 130.178C112.31 130.483 112.18 129.085 110.718 129.145C109.256 129.206 109.208 130.655 108.655 130.601C108.103 130.547 107.447 129.873 106.711 130.178C105.974 130.483 104.899 131.386 103.612 131.453C102.836 131.49 102.064 131.591 101.305 131.755H133.619C133.655 131.755 133.211 130.465 133.175 130.387C132.822 129.653 132.269 128.665 131.363 128.559C129.934 128.405 128.708 130.471 127.395 129.32Z" stroke="#272727" stroke-miterlimit="10"/>
<path d="M116.559 129.717C116.529 129.832 116.498 129.952 116.465 130.073C116.454 130.157 116.423 130.236 116.375 130.305C116.326 130.374 116.262 130.43 116.187 130.469C116.081 130.494 115.97 130.489 115.867 130.454C115.429 130.342 115.085 130.194 114.659 130.372C113.928 130.674 114.055 131.1 113.566 131.16C113.077 131.221 113.019 130.979 112.289 131.1C111.885 131.153 111.505 131.322 111.195 131.586" stroke="#272727" stroke-miterlimit="10"/>
<path d="M123.844 130.659C123.226 130.62 122.612 130.519 122.014 130.357C121.036 130.031 120.456 129.056 119.568 128.545C119.268 128.372 118.936 128.264 118.592 128.229C118.248 128.193 117.9 128.231 117.572 128.34C117.371 128.41 117.189 128.526 117.04 128.678C116.89 128.83 116.778 129.014 116.711 129.216" stroke="#272727" stroke-miterlimit="10"/>
<path d="M124.982 130.737C124.982 130.737 124.75 130.737 124.402 130.707" stroke="#272727" stroke-miterlimit="10"/>
<path d="M105.531 35.4249C107.026 31.1758 108.572 26.833 111.438 23.3449C114.839 19.2195 119.765 16.7008 124.542 14.309L132.603 10.2863C133.752 9.65257 134.967 9.14623 136.227 8.77629C136.574 8.68871 136.988 8.63737 137.257 8.87595C137.42 9.04824 137.516 9.27313 137.528 9.51015C137.667 10.5913 137.172 11.6785 136.447 12.4939C135.722 13.3093 134.783 13.8982 133.859 14.4781L123.591 20.9198L131.072 18.6155C132.455 18.1897 133.753 17.4377 135.124 16.9605C135.762 16.7401 136.785 16.272 137.474 16.4622C139.528 17.033 136.064 20.5393 135.405 21.104C134.137 22.1655 132.74 23.0625 131.247 23.7737C128.483 25.1176 125.509 25.93 122.531 26.7394L133.853 25.4196C134.737 25.2785 135.634 25.2471 136.526 25.326C137.078 25.3954 137.734 25.6672 137.791 26.232C137.801 26.4553 137.749 26.6769 137.64 26.8722C137.109 27.9504 136.042 28.651 134.976 29.2007C131.603 30.9402 127.813 31.665 124.08 32.3687C127.138 32.8208 130.164 33.4674 133.14 34.3045C135.022 34.8421 133.799 36.0138 132.663 36.494C130.831 37.2693 128.852 37.6342 126.865 37.5631C125.035 37.5057 122.44 37.3155 120.773 36.5121C122.906 37.5395 124.977 38.6921 126.973 39.964C127.632 40.3808 128.369 41.021 128.181 41.776C128.03 42.38 127.366 42.682 126.768 42.836C124.091 43.5598 121.245 43.3325 118.717 42.1928C119.925 43.0656 121.181 44.032 121.631 45.4453C122.081 46.8587 121.199 48.7674 119.716 48.7341C118.943 48.719 118.279 48.2147 117.678 47.7315L113.516 44.4095C114.832 46.119 116 47.9376 117.007 49.8455C117.225 50.2532 117.424 50.7878 117.131 51.1471C116.958 51.3276 116.723 51.4355 116.473 51.4491C114.736 51.6545 113.365 50.0781 112.338 48.6647C112.338 49.4499 112.722 50.1747 112.849 50.9599C112.976 51.7451 112.68 52.7175 111.907 52.8716C111.644 52.9004 111.38 52.8521 111.145 52.7324C110.91 52.6128 110.715 52.4271 110.584 52.1981C110.328 51.7369 110.165 51.23 110.104 50.7062C109.481 47.352 108.697 44.03 107.751 40.7402C107.235 38.8828 106.631 37.0135 105.531 35.4249Z" fill="#00C2CB" stroke="#272727" stroke-miterlimit="10"/>
<path d="M119.195 25.7911C120.6 25.2717 121.986 24.7341 123.369 24.1845C124.752 23.6348 126.126 23.0671 127.482 22.4661C128.838 21.8651 130.2 21.2581 131.541 20.6209C132.882 19.9836 134.217 19.3162 135.567 18.6699C134.345 19.5325 133.072 20.3211 131.756 21.0316C131.106 21.403 130.43 21.7262 129.765 22.0674C129.101 22.4087 128.409 22.7107 127.724 23.0097C126.35 23.6137 124.951 24.1452 123.529 24.6163C122.112 25.1041 120.664 25.4966 119.195 25.7911Z" fill="#272727"/>
<path d="M119.316 21.3936C120.524 20.5359 121.787 19.7266 123.04 18.9263C124.293 18.126 125.562 17.3528 126.827 16.5737C128.093 15.7945 129.37 15.0395 130.648 14.2784C131.925 13.5174 133.205 12.7684 134.447 11.9561C133.334 12.9497 132.147 13.8582 130.898 14.6741C129.669 15.5167 128.407 16.3049 127.141 17.0901C125.876 17.8753 124.583 18.6001 123.282 19.3309C121.98 20.0618 120.657 20.7534 119.316 21.3936Z" fill="#272727"/>
<path d="M120.066 30.3659C122.588 29.8615 125.113 29.4599 127.616 29.0008C128.876 28.7774 130.129 28.5418 131.376 28.2791C132.624 28.0163 133.868 27.7354 135.1 27.373C133.944 27.9565 132.729 28.4161 131.476 28.7441C130.872 28.9314 130.232 29.0703 129.604 29.2213C128.975 29.3723 128.344 29.4901 127.713 29.6018C126.445 29.8253 125.173 30.0125 123.896 30.1424C122.618 30.2723 121.353 30.3598 120.066 30.3659Z" fill="#272727"/>
<path d="M118.426 34.0322C119.525 34.1379 120.612 34.2799 121.696 34.4309L124.94 34.902C126.021 35.0741 127.099 35.2221 128.18 35.3761C129.262 35.5302 130.34 35.6781 131.439 35.7204C130.346 35.8884 129.238 35.9299 128.135 35.8442C127.033 35.7869 125.94 35.66 124.852 35.5C123.765 35.3399 122.684 35.1376 121.612 34.896C120.536 34.6634 119.472 34.3751 118.426 34.0322Z" fill="#272727"/>
<path d="M115.48 37.7285C116.232 38.0698 116.966 38.4261 117.697 38.7795C118.428 39.1328 119.156 39.4892 119.89 39.8244C120.624 40.1596 121.363 40.4858 122.109 40.8029C122.855 41.12 123.619 41.3827 124.396 41.6515C123.568 41.6178 122.747 41.4819 121.952 41.2468C121.161 41.0109 120.387 40.7192 119.636 40.3741C118.891 40.0219 118.167 39.6266 117.468 39.1902C116.765 38.7608 116.1 38.2718 115.48 37.7285Z" fill="#272727"/>
<path d="M113.23 40.8545C113.806 41.206 114.364 41.587 114.901 41.9961C115.441 42.3947 115.958 42.8205 116.474 43.2463C116.99 43.6722 117.489 44.1161 117.984 44.5691C118.479 45.0221 118.953 45.4751 119.452 45.9462C118.828 45.6776 118.236 45.3392 117.688 44.9376C117.132 44.554 116.607 44.1342 116.087 43.7084C115.568 43.2826 115.076 42.8266 114.599 42.3524C114.11 41.8839 113.653 41.3835 113.23 40.8545Z" fill="#272727"/>
<path d="M111.047 44.334C111.457 44.7251 111.845 45.1384 112.21 45.5722C112.574 46.001 112.926 46.4359 113.267 46.8768C113.607 47.3178 113.94 47.7657 114.266 48.2207L115.254 49.5888C114.755 49.3019 114.302 48.9438 113.907 48.5258C113.507 48.1241 113.133 47.6963 112.789 47.2453C112.445 46.7971 112.125 46.3314 111.829 45.85C111.526 45.3676 111.264 44.8604 111.047 44.334Z" fill="#272727"/>
<path d="M120.341 36.2096C120.574 35.2039 117.799 34.9261 117.799 34.9261C118.616 34.7684 119.425 34.5658 120.221 34.3191C121.429 33.9295 123.981 33.0446 123.715 31.6494C123.449 30.2541 117.977 31.4531 117.977 31.4531C117.977 31.4531 119.955 30.5682 122.096 29.3874C129.229 25.4614 118.252 27.065 118.252 27.065C118.252 27.065 122.036 24.8906 123.509 23.8185C128.16 20.4451 117.285 23.3141 117.285 23.3141C117.285 23.3141 121.909 20.1824 121.238 19.7264C120.568 19.2703 118.357 19.9076 118.357 19.9076C118.357 19.9076 124.751 15.0091 125.025 14.085L124.542 14.3235C119.765 16.7184 114.839 19.219 111.438 23.3564C108.572 26.8325 107.026 31.1752 105.531 35.4365C106.628 37.025 107.229 38.8944 107.76 40.7487C107.82 40.9571 107.875 41.1655 107.932 41.3708L109.575 41.398C109.575 41.398 112.058 43.2553 113.148 42.7268C114.238 42.1983 112.42 39.3323 112.42 39.3323C112.42 39.3323 116.092 42.0896 116.847 41.1443C117.602 40.1991 114.498 37.7377 114.498 37.7377C115.464 37.8446 116.438 37.8739 117.409 37.8253C118.753 37.7166 120.106 37.2183 120.341 36.2096Z" fill="white" stroke="#272727" stroke-miterlimit="10"/>
<path d="M113.485 25.0264C113.485 25.0264 115.475 25.3284 115.411 25.9324C115.348 26.5364 112.832 27.3306 112.832 27.3306C112.832 27.3306 115.928 28.0132 115.671 29.2121C115.414 30.4111 112.349 30.5077 112.349 30.5077C112.349 30.5077 113.859 32.0962 113.373 33.0355C112.887 33.9747 111.06 33.5942 111.06 33.5942C111.06 33.5942 112.032 35.527 111.362 36.1974C110.691 36.8679 108.906 35.9981 108.906 35.9981" fill="white"/>
<path d="M113.485 25.0264C113.485 25.0264 115.475 25.3284 115.411 25.9324C115.348 26.5364 112.832 27.3306 112.832 27.3306C112.832 27.3306 115.928 28.0132 115.671 29.2121C115.414 30.4111 112.349 30.5077 112.349 30.5077C112.349 30.5077 113.859 32.0962 113.373 33.0355C112.887 33.9747 111.06 33.5942 111.06 33.5942C111.06 33.5942 112.032 35.527 111.362 36.1974C110.691 36.8679 108.906 35.9981 108.906 35.9981" stroke="#272727" stroke-miterlimit="10"/>
<path d="M60.5313 35.5273C59.0213 31.2993 57.463 26.9445 54.5879 23.4775C51.1753 19.3733 46.2315 16.8787 41.4539 14.4959L33.3965 10.4854C32.2459 9.85851 31.0308 9.35828 29.7724 8.99347C29.4251 8.90891 29.0114 8.85757 28.7456 9.09615C28.5828 9.26874 28.4865 9.49346 28.4738 9.73036C28.3379 10.8145 28.8362 11.8987 29.5641 12.7111C30.3264 13.4886 31.1946 14.1545 32.1431 14.6892L42.4354 21.0977L34.9397 18.8085C33.5535 18.3857 32.2549 17.6398 30.8808 17.1656C30.2436 16.9452 29.2167 16.4831 28.5312 16.6764C26.4806 17.2532 29.9506 20.7504 30.615 21.3091C31.8847 22.3683 33.2842 23.2613 34.7796 23.9667C37.549 25.3016 40.5358 26.1079 43.5045 26.9052L32.1794 25.6217C31.2954 25.484 30.3978 25.4546 29.5067 25.5341C28.954 25.6096 28.2987 25.8814 28.2443 26.4401C28.2385 26.6624 28.2972 26.8817 28.4134 27.0713C28.9449 28.1464 30.014 28.844 31.0801 29.3907C34.4625 31.1181 38.2557 31.8339 41.9884 32.5254C38.9358 32.9872 35.9157 33.6429 32.9465 34.4885C31.068 35.0321 32.2941 36.2008 33.4297 36.678C35.256 37.4454 37.2272 37.8071 39.207 37.738C41.0371 37.6746 43.6313 37.4753 45.2983 36.6659C43.1673 37.701 41.099 38.8607 39.1043 40.1389C38.4489 40.5587 37.7151 41.1989 37.8963 41.9509C38.0473 42.5549 38.7147 42.8569 39.3097 43.0049C41.9887 43.7224 44.8338 43.4865 47.358 42.3375C46.1651 43.2163 44.9027 44.1888 44.4558 45.5991C44.0088 47.0095 44.8997 48.9211 46.3795 48.8819C47.1526 48.8668 47.817 48.3594 48.418 47.8762L52.5736 44.5421C51.2636 46.2528 50.1008 48.0713 49.0975 49.9781C48.8831 50.3889 48.6838 50.9234 48.9797 51.2828C49.1529 51.4652 49.3899 51.5734 49.6411 51.5848C51.3746 51.7841 52.7427 50.2046 53.7665 48.7882C53.7665 49.5765 53.3829 50.2983 53.2591 51.0865C53.1353 51.8747 53.4343 52.8441 54.2074 52.9951C54.4697 53.0225 54.7343 52.9732 54.9691 52.8531C55.204 52.733 55.3988 52.5474 55.5302 52.3186C55.7855 51.8512 55.9466 51.3381 56.0043 50.8086C56.6083 47.4504 57.3824 44.1284 58.3267 40.8426C58.8461 39.0034 59.4381 37.131 60.5313 35.5273Z" fill="#00C2CB" stroke="#272727" stroke-miterlimit="10"/>
<path d="M46.8341 25.9478C45.4247 25.4344 44.0325 24.9029 42.6574 24.3532C41.2742 23.8006 39.8971 23.2449 38.5381 22.6469C37.1791 22.0489 35.8201 21.4389 34.4731 20.8168C33.1262 20.1947 31.7944 19.5182 30.4414 18.8779C31.666 19.739 32.9407 20.5266 34.2587 21.2366C34.911 21.605 35.5875 21.9281 36.2549 22.2664C36.9224 22.6046 37.6109 22.9036 38.2965 23.2026C39.6736 23.8066 41.0719 24.3291 42.4973 24.7941C43.9157 25.2745 45.3645 25.6599 46.8341 25.9478Z" fill="#272727"/>
<path d="M46.7122 21.5505C45.489 20.6988 44.2388 19.8894 42.9824 19.0952C41.7261 18.3009 40.4577 17.5278 39.1893 16.7547C37.9209 15.9815 36.6434 15.2265 35.3629 14.4715C34.0824 13.7165 32.7989 12.9615 31.5547 12.1582C32.67 13.153 33.8593 14.0617 35.1123 14.8762C36.3444 15.7158 37.6068 16.498 38.8782 17.2922C40.1497 18.0865 41.4392 18.8022 42.7439 19.521C44.0485 20.2398 45.3652 20.9132 46.7122 21.5505Z" fill="#272727"/>
<path d="M45.982 30.526C43.4572 30.0277 40.9325 29.6381 38.4319 29.1821C37.1756 28.9647 35.9193 28.7321 34.672 28.4724C33.4247 28.2127 32.1805 27.9379 30.9453 27.5664C32.102 28.1468 33.3167 28.6033 34.5693 28.9284C35.1884 29.1127 35.8166 29.2486 36.4417 29.3996C37.0669 29.5506 37.7041 29.6623 38.3353 29.774C39.6037 29.9945 40.8751 30.1757 42.1556 30.3025C43.4361 30.4294 44.6955 30.526 45.982 30.526Z" fill="#272727"/>
<path d="M47.6322 34.1895C46.5359 34.2952 45.4487 34.4401 44.3646 34.5972L41.1211 35.0773C40.0429 35.2525 38.9648 35.4035 37.8836 35.5605C36.8024 35.7176 35.7243 35.8625 34.625 35.9139C35.7181 36.0803 36.8269 36.1188 37.9289 36.0286C39.0312 35.9682 40.1245 35.8384 41.2117 35.6753C42.2989 35.5122 43.38 35.3069 44.4521 35.0713C45.5242 34.8357 46.5873 34.5398 47.6322 34.1895Z" fill="#272727"/>
<path d="M50.5905 37.874C49.8415 38.2183 49.1077 38.5777 48.3799 38.934C47.652 39.2904 46.9212 39.6468 46.1873 39.985C45.4535 40.3233 44.7226 40.6615 43.9737 40.9635C43.2247 41.2655 42.4636 41.5494 41.6875 41.8212C42.5149 41.7849 43.3346 41.6459 44.1277 41.4074C44.9196 41.1684 45.6936 40.8737 46.444 40.5256C47.1876 40.173 47.9097 39.7767 48.6064 39.3387C49.3082 38.9078 49.972 38.4178 50.5905 37.874Z" fill="#272727"/>
<path d="M52.8519 40.9932C52.2752 41.3457 51.7177 41.7288 51.1818 42.1408C50.6443 42.5424 50.1279 42.9683 49.6145 43.3941C49.1011 43.8199 48.6028 44.2669 48.1044 44.7229C47.6061 45.1789 47.135 45.6289 46.6367 46.1061C47.2591 45.8336 47.8496 45.4933 48.3974 45.0913C48.9531 44.7048 49.4786 44.285 49.995 43.8561C50.5114 43.4273 51.0037 42.9713 51.4808 42.4941C51.9705 42.0247 52.4286 41.5232 52.8519 40.9932Z" fill="#272727"/>
<path d="M55.0433 44.4668C54.6335 44.8582 54.2464 45.2726 53.8837 45.708C53.5213 46.1369 53.1679 46.5717 52.8297 47.0157C52.4914 47.4596 52.1622 47.9217 51.8361 48.3626L50.8516 49.7216C51.349 49.4336 51.8018 49.0744 52.1955 48.6556C52.5941 48.2521 52.9664 47.8234 53.3099 47.3721C53.653 46.9225 53.9716 46.4547 54.2642 45.9708C54.5655 45.4921 54.8262 44.989 55.0433 44.4668Z" fill="#272727"/>
<path d="M45.7231 36.373C45.4846 35.3644 48.26 35.0805 48.26 35.0805C47.4371 34.9241 46.6235 34.7225 45.8228 34.4765C44.6148 34.0929 42.0629 33.2141 42.3226 31.8158C42.5823 30.4176 48.0606 31.6044 48.0606 31.6044C48.0606 31.6044 46.0825 30.7256 43.9353 29.5508C36.793 25.6459 47.7768 27.2194 47.7768 27.2194C47.7768 27.2194 43.9866 25.054 42.5098 23.9879C37.8469 20.6267 48.7311 23.4655 48.7311 23.4655C48.7311 23.4655 44.0954 20.3458 44.7658 19.8868C45.4362 19.4277 47.6469 20.0619 47.6469 20.0619C47.6469 20.0619 41.2445 15.1937 40.9727 14.2695L41.4528 14.5081C46.2426 16.8909 51.1743 19.3854 54.5869 23.5017C57.462 26.9687 59.0233 31.3085 60.5303 35.5516C59.437 37.1431 58.8451 39.0156 58.3166 40.8729C58.2562 41.0782 58.2049 41.2866 58.1475 41.495L56.5016 41.5282C56.5016 41.5282 54.0282 43.3916 52.9349 42.8661C51.8417 42.3406 53.6537 39.4535 53.6537 39.4535C53.6537 39.4535 49.9904 42.2198 49.2294 41.2655C48.4683 40.3111 51.5699 37.8498 51.5699 37.8498C50.6037 37.9604 49.6301 37.9938 48.6586 37.9495C47.3147 37.874 45.9617 37.3787 45.7231 36.373Z" fill="white" stroke="#272727" stroke-miterlimit="10"/>
<path d="M52.5463 25.166C52.5463 25.166 50.5561 25.468 50.6225 26.072C50.689 26.676 53.2046 27.4582 53.2046 27.4582C53.2046 27.4582 50.1152 28.1528 50.3749 29.3487C50.6346 30.5447 53.6969 30.6353 53.6969 30.6353C53.6969 30.6353 52.1869 32.2268 52.6822 33.166C53.1775 34.1053 54.9895 33.7157 54.9895 33.7157C54.9895 33.7157 54.0231 35.6515 54.6875 36.3189C55.3519 36.9864 57.1458 36.1136 57.1458 36.1136" fill="white"/>
<path d="M52.5463 25.166C52.5463 25.166 50.5561 25.468 50.6225 26.072C50.689 26.676 53.2046 27.4582 53.2046 27.4582C53.2046 27.4582 50.1152 28.1528 50.3749 29.3487C50.6346 30.5447 53.6969 30.6353 53.6969 30.6353C53.6969 30.6353 52.1869 32.2268 52.6822 33.166C53.1775 34.1053 54.9895 33.7157 54.9895 33.7157C54.9895 33.7157 54.0231 35.6515 54.6875 36.3189C55.3519 36.9864 57.1458 36.1136 57.1458 36.1136" stroke="#272727" stroke-miterlimit="10"/>
<path d="M70.4265 68.9404L66.7663 76.7562C66.7303 76.8335 66.7143 76.9186 66.7198 77.0036C66.7254 77.0887 66.7523 77.171 66.798 77.2429C66.8437 77.3149 66.9069 77.3741 66.9816 77.4152C67.0563 77.4563 67.1401 77.4779 67.2253 77.478C67.3048 77.4774 67.3831 77.4583 67.4539 77.4221C67.5246 77.3859 67.586 77.3337 67.633 77.2696L72.5406 70.5229L70.4265 68.9404Z" fill="#00C2CB" stroke="#272727" stroke-miterlimit="10"/>
<path d="M95.6909 68.9404L99.3572 76.7562C99.394 76.8332 99.4106 76.9182 99.4056 77.0033C99.4006 77.0885 99.3741 77.171 99.3285 77.2431C99.283 77.3152 99.2199 77.3745 99.1451 77.4156C99.0704 77.4567 98.9865 77.4782 98.9012 77.478C98.8212 77.4777 98.7424 77.4586 98.6711 77.4225C98.5998 77.3863 98.538 77.334 98.4905 77.2696L93.5859 70.5229L95.6909 68.9404Z" fill="#00C2CB" stroke="#272727" stroke-miterlimit="10"/>
<path d="M68.5357 13.9793L67.4922 14.4854L71.9527 23.6837L72.9962 23.1776L68.5357 13.9793Z" fill="#272727" stroke="#272727" stroke-miterlimit="10"/>
<path d="M80.3564 17.6096L63.1121 25.9781L61.3 22.3843C60.9748 21.7102 60.9305 20.9346 61.1769 20.2279C61.4232 19.5212 61.94 18.9412 62.6138 18.6153L74.7874 12.7112C75.4619 12.3847 76.2384 12.3393 76.9463 12.5851C77.6541 12.8309 78.2355 13.3476 78.5625 14.0218L80.3564 17.6096Z" fill="#00C2CB" stroke="#272727" stroke-miterlimit="10"/>
<path d="M92.7768 23.1756L93.8203 23.6816L98.2808 14.4833L97.2373 13.9773L92.7768 23.1756Z" fill="#272727" stroke="#272727" stroke-miterlimit="10"/>
<path d="M85.6719 17.4254L102.931 25.7909L104.459 22.3843C104.784 21.7105 104.828 20.9355 104.583 20.229C104.337 19.5226 103.821 18.9423 103.149 18.6153L90.975 12.7051C90.301 12.3788 89.525 12.3335 88.8176 12.5793C88.1102 12.8251 87.5294 13.3418 87.203 14.0158L85.6719 17.4254Z" fill="#00C2CB" stroke="#272727" stroke-miterlimit="10"/>
<path d="M83.296 16.4678H82.8672V21.7498H83.296V16.4678Z" fill="#272727" stroke="#272727" stroke-miterlimit="10"/>
<path d="M84.0807 15.2627H81.9909C81.6723 15.2627 81.4141 15.5209 81.4141 15.8395V16.1687C81.4141 16.4873 81.6723 16.7455 81.9909 16.7455H84.0807C84.3993 16.7455 84.6576 16.4873 84.6576 16.1687V15.8395C84.6576 15.5209 84.3993 15.2627 84.0807 15.2627Z" fill="#272727" stroke="#272727" stroke-miterlimit="10"/>
<path d="M83.0357 73.5226C97.5615 73.5226 109.337 61.7471 109.337 47.2213C109.337 32.6954 97.5615 20.9199 83.0357 20.9199C68.5099 20.9199 56.7344 32.6954 56.7344 47.2213C56.7344 61.7471 68.5099 73.5226 83.0357 73.5226Z" fill="#272727" stroke="#272727" stroke-miterlimit="10"/>
<path d="M105.66 50.528C107.619 38.1578 99.1797 26.5416 86.8096 24.5823C74.4394 22.6231 62.8232 31.0628 60.8639 43.4329C58.9047 55.8031 67.3444 67.4193 79.7145 69.3786C92.0847 71.3378 103.701 62.8981 105.66 50.528Z" fill="white" stroke="#272727" stroke-miterlimit="10"/>
<path d="M104.911 52.2108C107.67 40.1258 100.11 28.0925 88.0252 25.3335C75.9402 22.5746 63.9068 30.1348 61.1479 42.2198C58.3889 54.3048 65.9492 66.3381 78.0341 69.0971C90.1191 71.856 102.152 64.2958 104.911 52.2108Z" fill="white" stroke="#272727" stroke-miterlimit="10"/>
<path d="M82.6094 46.4295L82.8027 35.4971L83.3342 46.3329L82.6094 46.4295Z" fill="#00C2CB" stroke="#272727" stroke-miterlimit="10"/>
<path d="M82.5219 47.792L66.6094 56.3719L82.5913 46.6807L82.5219 47.792Z" fill="#00C2CB" stroke="#272727" stroke-miterlimit="10"/>
<path d="M84.0095 47.2205C84.0101 47.4137 83.9533 47.6027 83.8464 47.7636C83.7394 47.9244 83.5871 48.0499 83.4088 48.1241C83.2304 48.1984 83.034 48.2179 82.8445 48.1804C82.655 48.1428 82.4809 48.0499 82.3443 47.9133C82.2077 47.7767 82.1147 47.6026 82.0772 47.4131C82.0396 47.2236 82.0592 47.0272 82.1334 46.8488C82.2076 46.6705 82.3331 46.5181 82.494 46.4112C82.6549 46.3042 82.8439 46.2475 83.0371 46.2481C83.2947 46.2488 83.5416 46.3516 83.7238 46.5338C83.906 46.716 84.0087 46.9628 84.0095 47.2205Z" fill="#272727" stroke="#272727" stroke-miterlimit="10"/>
<path d="M104.982 47.2207H103.684" stroke="#272727" stroke-miterlimit="10"/>
<path d="M62.3885 47.2207H61.0898" stroke="#272727" stroke-miterlimit="10"/>
<path d="M102.647 37.3545L101.484 37.9404" stroke="#272727" stroke-miterlimit="10"/>
<path d="M64.5885 56.498L63.4258 57.0839" stroke="#272727" stroke-miterlimit="10"/>
<path d="M94.1271 28.2793L93.4688 29.4027" stroke="#272727" stroke-miterlimit="10"/>
<path d="M72.5998 65.0361L71.9414 66.1596" stroke="#272727" stroke-miterlimit="10"/>
<path d="M64.5885 37.9404L63.4258 37.3545" stroke="#272727" stroke-miterlimit="10"/>
<path d="M102.647 57.0839L101.484 56.498" stroke="#272727" stroke-miterlimit="10"/>
<path d="M72.5998 29.4027L71.9414 28.2793" stroke="#272727" stroke-miterlimit="10"/>
<path d="M94.1271 66.1596L93.4688 65.0361" stroke="#272727" stroke-miterlimit="10"/>
<path d="M83.0352 26.57V25.2744" stroke="#272727" stroke-miterlimit="10"/>
<path d="M83.0352 69.1677V67.8691" stroke="#272727" stroke-miterlimit="10"/>
<path d="M81.4323 31.1276V28.171L81.3175 28.2284L81.1816 28.2858L81.0427 28.3432L80.9219 28.3975V27.8298C80.9551 27.8086 81.0034 27.7845 81.0638 27.7543L81.2601 27.6455C81.3326 27.6063 81.396 27.564 81.4594 27.5247C81.5077 27.4923 81.5531 27.4559 81.5953 27.416H82.1993V31.1276H81.4323Z" fill="#272727"/>
<path d="M82.792 31.1268V30.5862L83.6829 29.2212L83.8732 28.9192C83.9331 28.8245 83.9817 28.7231 84.0181 28.6172C84.0565 28.5211 84.0759 28.4186 84.0755 28.3152C84.0824 28.2307 84.06 28.1465 84.0121 28.0766C83.9915 28.0502 83.9648 28.0293 83.9343 28.0156C83.9037 28.0019 83.8703 27.9959 83.8369 27.9981C83.8021 27.9956 83.7672 28.0005 83.7344 28.0125C83.7016 28.0244 83.6717 28.0432 83.6467 28.0675C83.598 28.1172 83.5654 28.1803 83.553 28.2487C83.5343 28.333 83.5251 28.4191 83.5259 28.5054V28.6897H82.7739V28.4934C82.7689 28.287 82.8049 28.0818 82.8796 27.8894C82.9466 27.7221 83.0637 27.5797 83.2148 27.4817C83.3971 27.3735 83.6071 27.321 83.8188 27.3307C83.9557 27.321 84.093 27.339 84.2228 27.3836C84.3525 27.4283 84.4719 27.4986 84.5738 27.5904C84.662 27.6878 84.7298 27.8018 84.7734 27.9257C84.817 28.0496 84.8353 28.181 84.8275 28.3122C84.829 28.4544 84.8045 28.5956 84.755 28.7289C84.7079 28.8609 84.6451 28.9866 84.5678 29.1034C84.4893 29.2242 84.4077 29.3511 84.3171 29.4809L83.6406 30.4956H84.7248V31.0996L82.792 31.1268Z" fill="#272727"/>
<path d="M92.1792 33.6336V30.677L92.0645 30.7313L91.9286 30.7887L91.7927 30.8461L91.6719 30.9005V30.3327C91.7051 30.3146 91.7504 30.2874 91.8138 30.2572L92.0101 30.1485C92.0796 30.1092 92.146 30.0699 92.2064 30.0277C92.2555 29.9951 92.302 29.9588 92.3453 29.9189H92.9493V33.6336H92.1792Z" fill="#272727"/>
<path d="M98.4918 40.5403V39.9997L99.3827 38.6347L99.573 38.3327C99.6297 38.2362 99.6782 38.1352 99.718 38.0306C99.7563 37.9346 99.7758 37.8321 99.7753 37.7286C99.7823 37.6442 99.7599 37.5599 99.7119 37.4901C99.6912 37.4639 99.6644 37.4431 99.6339 37.4294C99.6034 37.4158 99.5701 37.4096 99.5368 37.4115C99.5015 37.4092 99.4661 37.4142 99.4329 37.4261C99.3996 37.4381 99.3692 37.4567 99.3435 37.481C99.296 37.5315 99.2635 37.5943 99.2499 37.6622C99.2336 37.7468 99.2255 37.8328 99.2257 37.9189V38.1031H98.4767V37.9068C98.4738 37.7056 98.5096 37.5056 98.5824 37.3179C98.6476 37.1496 98.7651 37.0067 98.9177 36.9102C99.0998 36.8018 99.3099 36.7492 99.5217 36.7592C99.6618 36.7496 99.8025 36.7693 99.9346 36.8171C100.067 36.865 100.187 36.9399 100.289 37.0371C100.377 37.1342 100.446 37.2481 100.49 37.3721C100.534 37.496 100.553 37.6275 100.545 37.7588C100.547 37.901 100.522 38.0423 100.473 38.1756C100.425 38.3058 100.364 38.4304 100.289 38.5471L100.038 38.9246L99.3586 39.9393H100.446V40.5433L98.4918 40.5403Z" fill="#272727"/>
<path d="M101.859 48.8152C101.648 48.8251 101.438 48.7748 101.255 48.6702C101.107 48.5715 100.996 48.4273 100.937 48.2595C100.873 48.0647 100.842 47.8606 100.844 47.6555V47.5226H101.611V47.6555C101.609 47.7566 101.616 47.8577 101.632 47.9575C101.641 48.0209 101.67 48.0795 101.717 48.1236C101.762 48.1611 101.821 48.1795 101.88 48.1749C101.908 48.1773 101.937 48.1737 101.964 48.1643C101.991 48.155 102.016 48.1401 102.037 48.1206C102.077 48.0748 102.102 48.0179 102.109 47.9575C102.123 47.8655 102.129 47.7726 102.127 47.6796C102.135 47.5367 102.11 47.3939 102.052 47.2629C102.02 47.2128 101.975 47.1723 101.922 47.1457C101.869 47.1191 101.809 47.1074 101.75 47.1119H101.608V46.5864H101.732C101.793 46.5944 101.855 46.5864 101.912 46.5631C101.97 46.5398 102.02 46.502 102.058 46.4535C102.121 46.3251 102.149 46.1824 102.139 46.0398C102.146 45.9271 102.126 45.8145 102.082 45.7106C102.062 45.6725 102.032 45.6412 101.994 45.6208C101.956 45.6003 101.913 45.5916 101.871 45.5958C101.828 45.5918 101.785 45.602 101.748 45.6249C101.711 45.6479 101.683 45.6822 101.668 45.7227C101.635 45.8302 101.62 45.9424 101.623 46.0549V46.2451H100.856V46.0217C100.851 45.8265 100.892 45.6329 100.977 45.4569C101.054 45.3059 101.177 45.1825 101.327 45.1036C101.496 45.021 101.683 44.9806 101.871 44.9858C102.06 44.9816 102.248 45.0208 102.42 45.1006C102.569 45.174 102.692 45.2909 102.774 45.4358C102.86 45.6068 102.903 45.7968 102.897 45.9884C102.904 46.1798 102.857 46.3691 102.762 46.5351C102.695 46.6645 102.58 46.7622 102.441 46.8069C102.529 46.8375 102.608 46.887 102.674 46.9518C102.749 47.028 102.805 47.1212 102.837 47.2236C102.881 47.3654 102.901 47.5133 102.897 47.6615C102.902 47.8673 102.868 48.0721 102.798 48.2655C102.737 48.4339 102.624 48.578 102.475 48.6763C102.288 48.7841 102.073 48.8325 101.859 48.8152Z" fill="#272727"/>
<path d="M99.7353 56.5954V55.7619H98.5938V55.2001L99.5602 52.8838H100.466V55.1941H100.81V55.7619H100.466V56.5984L99.7353 56.5954ZM99.1766 55.1911H99.7353V53.6479L99.1766 55.1911Z" fill="#272727"/>
<path d="M92.3787 63.8884C92.1675 63.9004 91.9574 63.85 91.7747 63.7434C91.6358 63.6464 91.5361 63.5029 91.4938 63.3388C91.4429 63.1415 91.4186 62.9384 91.4214 62.7347H92.1341C92.1326 62.85 92.1407 62.9651 92.1582 63.079C92.1651 63.1499 92.1948 63.2167 92.2428 63.2693C92.2666 63.2901 92.2945 63.3056 92.3246 63.315C92.3548 63.3244 92.3866 63.3273 92.418 63.3237C92.4524 63.325 92.4864 63.3166 92.5163 63.2995C92.5462 63.2824 92.5707 63.2573 92.5871 63.227C92.6255 63.1435 92.6471 63.0532 92.6505 62.9612C92.6505 62.8465 92.6505 62.7106 92.6505 62.5475C92.6503 62.4385 92.6432 62.3295 92.6294 62.2213C92.6195 62.1402 92.5905 62.0626 92.5448 61.9948C92.5238 61.9662 92.4959 61.9435 92.4637 61.9287C92.4314 61.9139 92.3959 61.9075 92.3606 61.9103C92.3253 61.9094 92.2903 61.9162 92.2579 61.9303C92.2256 61.9444 92.1967 61.9654 92.1733 61.9918C92.1167 62.0669 92.0803 62.1553 92.0676 62.2485H91.4062L91.4757 60.1104H93.2092V60.7506H92.0888L92.0495 61.5177C92.095 61.4626 92.156 61.4226 92.2247 61.4029C92.3133 61.3712 92.4057 61.3509 92.4995 61.3425C92.6658 61.3162 92.8359 61.3528 92.9767 61.4452C93.1185 61.5465 93.2243 61.6904 93.2787 61.8559C93.3503 62.073 93.384 62.3008 93.3783 62.5294C93.3794 62.7122 93.3673 62.8949 93.3421 63.076C93.3225 63.2277 93.2744 63.3742 93.2001 63.5079C93.1294 63.6292 93.0243 63.7269 92.8981 63.7887C92.7351 63.8618 92.5572 63.896 92.3787 63.8884Z" fill="#272727"/>
<path d="M83.3782 66.7571C83.165 66.7693 82.9535 66.7132 82.7742 66.5971C82.621 66.4915 82.5048 66.3404 82.442 66.1652C82.3676 65.9643 82.3317 65.7512 82.3363 65.537V64.1931C82.3328 63.9747 82.3613 63.757 82.4209 63.5468C82.4686 63.3682 82.575 63.2108 82.7229 63.0999C82.9104 62.9794 83.1317 62.9222 83.3541 62.9368C83.5485 62.9286 83.7421 62.9669 83.9188 63.0485C84.0546 63.1156 84.1618 63.2292 84.2208 63.3687C84.2833 63.5356 84.313 63.713 84.3084 63.8911C84.3069 63.9032 84.3069 63.9153 84.3084 63.9274V63.9545H83.5896C83.5932 63.8428 83.582 63.7311 83.5564 63.6223C83.5323 63.5529 83.4688 63.5166 83.3662 63.5166C83.3364 63.5144 83.3065 63.5189 83.2788 63.5299C83.2511 63.5409 83.2262 63.558 83.2061 63.5801C83.1641 63.6474 83.1402 63.7243 83.1366 63.8035C83.1227 63.9531 83.1167 64.1033 83.1185 64.2535V64.5827C83.1605 64.5155 83.2229 64.4636 83.2967 64.4347C83.3857 64.3974 83.4811 64.3779 83.5776 64.3773C83.7445 64.364 83.9106 64.4112 84.0457 64.5102C84.1668 64.6109 84.2552 64.7455 84.2993 64.8968C84.3546 65.0747 84.3811 65.2602 84.3779 65.4464C84.3816 65.6782 84.351 65.9092 84.2873 66.132C84.2365 66.3126 84.131 66.473 83.9853 66.591C83.8064 66.7109 83.5933 66.7692 83.3782 66.7571ZM83.3782 66.1924C83.4077 66.1944 83.4371 66.1892 83.464 66.1771C83.4909 66.1649 83.5143 66.1463 83.5323 66.1229C83.568 66.0577 83.5896 65.9856 83.5957 65.9115C83.5957 65.8179 83.5957 65.7031 83.5957 65.5642C83.5957 65.4253 83.5957 65.3377 83.5957 65.2622C83.5939 65.1878 83.5731 65.115 83.5353 65.0508C83.5157 65.0251 83.4899 65.0047 83.4603 64.9915C83.4308 64.9783 83.3984 64.9727 83.3662 64.9753C83.3296 64.9755 83.2935 64.9837 83.2605 64.9995C83.2281 65.0133 83.1985 65.0328 83.1729 65.0568C83.1519 65.0765 83.1337 65.0989 83.1185 65.1233V65.7273C83.1176 65.8063 83.1247 65.8852 83.1397 65.9629C83.1491 66.0268 83.1752 66.0872 83.2152 66.138C83.2364 66.1589 83.2622 66.1746 83.2904 66.184C83.3187 66.1934 83.3487 66.1963 83.3782 66.1924Z" fill="#272727"/>
<path d="M72.9779 64.9119L73.7843 61.7831H72.7695V61.1973H74.5302V61.7228L73.7118 64.9119H72.9779Z" fill="#272727"/>
<path d="M66.4977 57.1267C66.2859 57.1376 66.0756 57.085 65.8937 56.9757C65.7444 56.8781 65.6318 56.7336 65.5736 56.5649C65.5052 56.3711 65.4724 56.1665 65.477 55.9609C65.4794 55.8706 65.4895 55.7807 65.5072 55.6922C65.5223 55.6088 65.5476 55.5277 65.5827 55.4506C65.6166 55.3787 65.6614 55.3125 65.7156 55.2543C65.7702 55.1962 65.8346 55.1482 65.9058 55.1123C65.8016 55.0308 65.7161 54.9278 65.6552 54.8103C65.5759 54.654 65.5345 54.4812 65.5344 54.306C65.5272 54.121 65.5634 53.9369 65.6401 53.7684C65.7067 53.621 65.8204 53.5 65.9632 53.4241C66.1276 53.3405 66.3104 53.3 66.4947 53.3063C66.6804 53.2998 66.8645 53.3414 67.0293 53.4271C67.1685 53.5057 67.2795 53.6262 67.3464 53.7714C67.4201 53.9395 67.4532 54.1227 67.443 54.306C67.4473 54.4826 67.409 54.6577 67.3313 54.8163C67.2739 54.9361 67.1878 55.0399 67.0806 55.1184C67.1518 55.1542 67.2162 55.2022 67.2709 55.2603C67.326 55.3177 67.3709 55.3841 67.4038 55.4566C67.4398 55.5336 67.4662 55.6147 67.4823 55.6982C67.5029 55.7863 67.513 55.8765 67.5125 55.967C67.5219 56.1723 67.4911 56.3775 67.4219 56.571C67.3615 56.7393 67.2481 56.8835 67.0987 56.9817C66.9169 57.0877 66.7079 57.138 66.4977 57.1267ZM66.4977 56.5619C66.5329 56.5645 66.5681 56.5574 66.5995 56.5414C66.6309 56.5255 66.6573 56.5012 66.6759 56.4713C66.7143 56.4035 66.7379 56.3284 66.7454 56.2509C66.7496 56.1744 66.7496 56.0978 66.7454 56.0213C66.7531 55.9299 66.7531 55.838 66.7454 55.7465C66.7403 55.6695 66.7164 55.5948 66.6759 55.5291C66.6566 55.5003 66.6298 55.4772 66.5984 55.4624C66.5671 55.4475 66.5323 55.4413 66.4977 55.4445C66.4636 55.4415 66.4294 55.4478 66.3985 55.4627C66.3677 55.4776 66.3415 55.5005 66.3226 55.5291C66.2828 55.5943 66.258 55.6675 66.2501 55.7435C66.2453 55.836 66.2453 55.9288 66.2501 56.0213C66.2461 56.0988 66.2461 56.1764 66.2501 56.2539C66.2561 56.3308 66.2799 56.4052 66.3196 56.4713C66.3384 56.501 66.3649 56.5251 66.3963 56.541C66.4276 56.5569 66.4627 56.5642 66.4977 56.5619ZM66.4977 54.8375C66.5221 54.8377 66.5462 54.8324 66.5681 54.8219C66.5901 54.8115 66.6094 54.7961 66.6246 54.7771C66.6647 54.7218 66.6906 54.6575 66.7001 54.5898C66.7197 54.4904 66.7288 54.3892 66.7273 54.2878C66.7317 54.1841 66.712 54.0807 66.6699 53.9858C66.6549 53.9527 66.6307 53.9246 66.6002 53.9048C66.5697 53.885 66.5341 53.8743 66.4977 53.8741C66.4605 53.8739 66.424 53.8843 66.3924 53.9041C66.3609 53.9239 66.3356 53.9522 66.3196 53.9858C66.2744 54.0799 66.2537 54.1837 66.2592 54.2878C66.2569 54.3891 66.265 54.4903 66.2833 54.5898C66.2933 54.6593 66.3214 54.725 66.3649 54.7801C66.3815 54.7987 66.402 54.8135 66.425 54.8234C66.4479 54.8334 66.4728 54.8381 66.4977 54.8375Z" fill="#272727"/>
<path d="M63.9603 48.8152C63.7671 48.8245 63.5745 48.7872 63.3986 48.7065C63.2618 48.6394 63.1543 48.5244 63.0966 48.3834C63.0327 48.2158 63.003 48.0371 63.009 47.8579V47.7975H63.7218C63.7178 47.9096 63.7311 48.0216 63.761 48.1297C63.7772 48.1669 63.8052 48.1977 63.8407 48.2174C63.8762 48.237 63.9172 48.2444 63.9573 48.2384C63.9866 48.2404 64.016 48.2358 64.0432 48.2248C64.0704 48.2138 64.0947 48.1968 64.1144 48.175C64.1549 48.105 64.1777 48.0262 64.1808 47.9455C64.1808 47.8398 64.1808 47.6888 64.1808 47.4985V47.1693C64.1379 47.2369 64.0744 47.2888 63.9996 47.3173C63.9128 47.3512 63.8209 47.3705 63.7278 47.3747C63.5574 47.3858 63.3888 47.3342 63.2537 47.2297C63.1304 47.1216 63.0412 46.9799 62.997 46.822C62.9439 46.6406 62.9174 46.4524 62.9184 46.2633C62.9135 46.0348 62.9472 45.8071 63.0181 45.5898C63.0762 45.4131 63.1895 45.2596 63.3412 45.1519C63.522 45.0398 63.7329 44.986 63.9452 44.9979C64.1565 44.9856 64.3666 45.036 64.5493 45.1429C64.6995 45.2417 64.8146 45.3855 64.8784 45.5536C64.9499 45.7531 64.9847 45.9639 64.9811 46.1757V47.5589C64.9847 47.7773 64.9562 47.995 64.8966 48.2052C64.8474 48.3831 64.7413 48.5401 64.5946 48.6521C64.4057 48.7723 64.1837 48.8294 63.9603 48.8152ZM63.9603 46.7888C63.9872 46.7908 64.0142 46.7874 64.0397 46.7785C64.0651 46.7697 64.0885 46.7557 64.1083 46.7374C64.1408 46.7094 64.1701 46.6781 64.1959 46.6438V46.0398C64.1964 45.9609 64.1903 45.8822 64.1778 45.8043C64.1689 45.7412 64.145 45.6812 64.1083 45.6291C64.0893 45.6064 64.0651 45.5885 64.0378 45.577C64.0105 45.5654 63.9809 45.5605 63.9513 45.5627C63.922 45.5609 63.8928 45.5666 63.8664 45.5793C63.84 45.592 63.8172 45.6112 63.8003 45.6351C63.7621 45.6995 63.7393 45.7719 63.7338 45.8465C63.7338 45.9402 63.7338 46.0549 63.7338 46.1908C63.7338 46.3267 63.7338 46.4143 63.7338 46.4928C63.7357 46.5673 63.7565 46.64 63.7942 46.7042C63.8144 46.7308 63.8412 46.7515 63.872 46.7643C63.9028 46.777 63.9364 46.7813 63.9694 46.7767L63.9603 46.7888Z" fill="#272727"/>
<path d="M65.8628 40.5436V37.587C65.8257 37.6075 65.7874 37.6256 65.7481 37.6414L65.6152 37.6988L65.4763 37.7562C65.431 37.7743 65.3917 37.7954 65.3555 37.8135V37.2427L65.4974 37.1672L65.6937 37.0616C65.7632 37.0223 65.8296 36.98 65.89 36.9377C65.9401 36.9078 65.9867 36.8724 66.0289 36.832H66.6329V40.5436H65.8628Z" fill="#272727"/>
<path d="M68.2972 40.6129C68.102 40.6198 67.9087 40.5728 67.7385 40.477C67.5918 40.389 67.4741 40.2598 67.4002 40.1056C67.3211 39.9312 67.2819 39.7413 67.2855 39.5499V37.8677C67.2813 37.6719 67.3183 37.4775 67.3942 37.2969C67.4608 37.1367 67.5773 37.0022 67.7264 36.9134C67.9034 36.8239 68.0989 36.7773 68.2972 36.7773C68.4955 36.7773 68.691 36.8239 68.868 36.9134C69.0156 37.0039 69.1316 37.1379 69.2002 37.2969C69.2736 37.4781 69.3096 37.6723 69.3059 37.8677V39.5499C69.3107 39.7405 69.2714 39.9296 69.1911 40.1025C69.1182 40.2582 69.0004 40.3886 68.8529 40.477C68.6836 40.5724 68.4914 40.6194 68.2972 40.6129ZM68.2972 39.9304C68.3279 39.9332 68.3587 39.928 68.3868 39.9153C68.4148 39.9025 68.4391 39.8828 68.4572 39.8579C68.4893 39.809 68.5089 39.753 68.5146 39.6948C68.5185 39.6405 68.5185 39.586 68.5146 39.5317V37.8858C68.5146 37.8345 68.5146 37.7741 68.5146 37.7077C68.5103 37.6464 68.4905 37.5872 68.4572 37.5355C68.4397 37.5091 68.4151 37.4881 68.3863 37.4748C68.3576 37.4615 68.3257 37.4564 68.2942 37.46C68.2627 37.457 68.2311 37.4624 68.2024 37.4757C68.1738 37.489 68.1491 37.5096 68.1311 37.5355C68.0991 37.5878 68.0795 37.6467 68.0737 37.7077C68.0737 37.7741 68.0737 37.8345 68.0737 37.8858V39.5317C68.075 39.5864 68.0801 39.6409 68.0888 39.6948C68.097 39.7529 68.1176 39.8085 68.1492 39.8579C68.166 39.8812 68.1883 39.9 68.2141 39.9126C68.2399 39.9253 68.2685 39.9314 68.2972 39.9304Z" fill="#272727"/>
<path d="M73.2808 33.7547V30.7981L73.166 30.8524L73.0301 30.9098L72.8942 30.9672L72.7734 31.0215V30.4538C72.8067 30.4357 72.852 30.4085 72.9154 30.3783L73.1117 30.2696C73.1811 30.2303 73.2476 30.188 73.308 30.1488C73.3571 30.1162 73.4035 30.0799 73.4469 30.04H74.0509V33.7547H73.2808Z" fill="#272727"/>
<path d="M75.0621 33.7547V30.7981L74.9503 30.8524L74.8144 30.9098L74.6755 30.9672L74.5547 31.0215V30.4538L74.6966 30.3783L74.8929 30.2696C74.9654 30.2303 75.0288 30.188 75.0892 30.1488C75.1389 30.117 75.1854 30.0806 75.2282 30.04H75.8322V33.7547H75.0621Z" fill="#272727"/>
<path d="M98.4773 15.5137C98.4773 15.5137 94.1556 13.1973 93.313 12.5631C92.4705 11.9289 92.7876 8.77 92.3648 7.08483C91.942 5.39966 91.2957 4.55405 87.7139 3.81717C86.7686 3.62654 85.814 3.48542 84.854 3.39437L81.2964 3.36719C80.2293 3.45316 79.1683 3.60343 78.1193 3.81717C74.5376 4.55405 73.8913 5.39966 73.4836 7.08483C73.0759 8.77 73.3779 11.9169 72.5353 12.5631C71.6927 13.2094 67.3711 15.5137 67.3711 15.5137" stroke="#272727" stroke-width="2" stroke-linecap="round" stroke-linejoin="round"/>
<path d="M66.6408 113.556C69.1746 115.413 71.7597 117.325 73.4993 119.937C75.568 123.042 76.2475 126.838 76.8787 130.507L77.9417 136.698C78.1287 137.592 78.2178 138.504 78.2075 139.416C78.2181 139.542 78.1988 139.667 78.151 139.784C78.1031 139.9 78.0283 140.003 77.9327 140.084C77.785 140.158 77.616 140.177 77.4555 140.138C77.0835 140.054 76.7334 139.892 76.428 139.664C76.1226 139.436 75.8687 139.145 75.6827 138.812C75.3175 138.149 75.0471 137.437 74.8794 136.698L72.6597 128.544C72.6597 130.356 72.6698 132.179 72.6899 134.011C72.6899 135.019 72.9315 136.037 72.9738 137.049C72.9919 137.52 73.0976 138.299 72.8318 138.719C72.0346 139.972 70.3947 136.952 70.1531 136.399C69.699 135.337 69.3824 134.22 69.2108 133.077C68.8726 130.963 68.933 128.804 68.9934 126.66C68.5263 129.277 68.0572 131.886 67.5861 134.485C67.4999 135.106 67.3397 135.714 67.1089 136.297C66.9488 136.65 66.6378 137.031 66.2542 136.958C66.1022 136.921 65.9639 136.842 65.8556 136.729C65.2516 136.158 64.9919 135.303 64.8409 134.482C64.3637 131.879 64.6446 129.2 64.9285 126.569C64.0085 128.516 62.9665 130.402 61.8088 132.217C61.0689 133.361 60.5343 132.307 60.4437 131.453C60.2965 130.079 60.449 128.69 60.8907 127.382C61.3014 126.174 61.9507 124.479 62.8265 123.528C61.7082 124.745 60.5193 125.894 59.2659 126.971C58.8552 127.324 58.2814 127.687 57.8163 127.406C57.4479 127.185 57.3844 126.681 57.3965 126.252C57.4518 124.313 58.1812 122.454 59.4592 120.994C58.6347 121.617 57.7318 122.266 56.6989 122.281C55.6661 122.296 54.5849 121.324 54.8869 120.339C55.053 119.826 55.5241 119.484 55.9681 119.179L59.0304 117.065C57.6204 117.601 56.1676 118.016 54.6876 118.307C54.3705 118.37 53.9748 118.394 53.7816 118.125C53.6984 117.973 53.6758 117.795 53.7181 117.627C53.9326 116.419 55.2614 115.815 56.412 115.432C55.8865 115.268 55.3188 115.38 54.7752 115.308C54.2315 115.235 53.6366 114.84 53.691 114.293C53.7248 114.112 53.8104 113.945 53.9375 113.812C54.0646 113.679 54.2276 113.586 54.4067 113.544C54.7667 113.469 55.1377 113.462 55.5 113.526C57.8677 113.79 60.2424 113.938 62.6242 113.97C63.9892 113.991 65.3603 113.967 66.6408 113.556Z" fill="#00C2CB" stroke="#272727" stroke-miterlimit="10"/>
<path d="M70.3059 124.618C70.3693 125.66 70.4478 126.696 70.5354 127.729C70.623 128.762 70.7226 129.794 70.8374 130.824C70.9521 131.854 71.0941 132.881 71.2481 133.905C71.4021 134.929 71.5803 135.952 71.7374 136.985C71.4064 135.996 71.1351 134.987 70.925 133.965C70.8072 133.458 70.7287 132.941 70.623 132.428C70.5173 131.915 70.4689 131.395 70.4085 130.876C70.2877 129.837 70.2092 128.795 70.1851 127.75C70.1557 126.704 70.196 125.658 70.3059 124.618Z" fill="#272727"/>
<path d="M73.2148 125.588C73.541 126.575 73.8188 127.572 74.1208 128.572C74.4229 129.571 74.6645 130.571 74.9272 131.574C75.1899 132.576 75.4376 133.582 75.6852 134.594C75.9329 135.605 76.1684 136.605 76.4674 137.599C76.029 136.655 75.6616 135.68 75.3681 134.681C75.0661 133.691 74.7853 132.688 74.5195 131.685C74.2537 130.683 74.0212 129.671 73.8037 128.665C73.5863 127.66 73.3719 126.618 73.2148 125.588Z" fill="#272727"/>
<path d="M67.0664 124.277C66.8943 126.062 66.6496 127.829 66.4624 129.599C66.3567 130.483 66.2601 131.365 66.1815 132.253C66.103 133.141 66.0426 134.026 66.0396 134.923C65.8863 134.036 65.8245 133.135 65.8554 132.235C65.8554 131.785 65.8916 131.329 65.9158 130.888C65.9399 130.447 65.9913 129.982 66.0426 129.55C66.1513 128.659 66.2842 127.772 66.4563 126.893C66.6285 126.014 66.8188 125.138 67.0664 124.277Z" fill="#272727"/>
<path d="M64.9522 122.444C64.6502 123.154 64.3482 123.852 64.0251 124.543L63.0556 126.615C62.7234 127.301 62.4063 127.992 62.0862 128.681C61.7661 129.369 61.455 130.064 61.1953 130.795C61.3053 130.032 61.5019 129.284 61.7812 128.566C62.0439 127.841 62.349 127.137 62.6872 126.452C63.0254 125.766 63.3667 125.078 63.7472 124.413C64.1155 123.737 64.5176 123.08 64.9522 122.444Z" fill="#272727"/>
<path d="M63.0893 119.729C62.7088 120.164 62.3222 120.581 61.9386 120.998C61.5551 121.415 61.1716 121.828 60.7971 122.251C60.4226 122.674 60.0572 123.1 59.6978 123.532C59.3384 123.964 59.0032 124.42 58.668 124.888C58.8575 124.342 59.1141 123.821 59.432 123.338C59.7496 122.858 60.1008 122.401 60.483 121.97C60.8674 121.544 61.2768 121.14 61.7091 120.762C62.1394 120.38 62.6011 120.034 63.0893 119.729Z" fill="#272727"/>
<path d="M61.4573 117.597C61.1068 117.911 60.7398 118.206 60.358 118.482C59.9835 118.759 59.597 119.019 59.2074 119.276C58.8178 119.533 58.4222 119.777 58.0205 120.016C57.6188 120.254 57.2111 120.478 56.8125 120.716C57.118 120.354 57.4634 120.028 57.8423 119.744C58.2108 119.442 58.5973 119.185 58.9869 118.925C59.3765 118.666 59.7812 118.427 60.1949 118.204C60.6029 117.976 61.0245 117.773 61.4573 117.597Z" fill="#272727"/>
<path d="M59.5766 115.435C59.2328 115.63 58.8778 115.806 58.5136 115.96C58.1542 116.117 57.7948 116.262 57.4294 116.404C57.064 116.546 56.6986 116.673 56.3331 116.8L55.2188 117.18C55.5112 116.906 55.8418 116.676 56.2003 116.498C56.5488 116.31 56.9101 116.148 57.2814 116.011C57.6498 115.87 58.0259 115.75 58.4079 115.652C58.7907 115.547 59.1817 115.474 59.5766 115.435Z" fill="#272727"/>
<path d="M63.1209 123.281C63.7461 123.64 64.489 121.843 64.489 121.843C64.433 122.426 64.4078 123.01 64.4135 123.595C64.4316 124.477 64.5041 126.361 65.4886 126.467C66.4732 126.573 66.7812 122.677 66.7812 122.677C66.7812 122.677 66.9715 124.187 67.3278 125.842C68.5056 131.396 69.6532 123.746 69.6532 123.746C69.6532 123.746 70.3418 126.712 70.7586 127.911C72.0692 131.698 72.3531 123.858 72.3531 123.858C72.3531 123.858 73.5068 127.578 73.9477 127.225C74.3886 126.872 74.4098 125.262 74.4098 125.262C74.4098 125.262 76.3788 130.514 76.9436 130.882L76.8771 130.511C76.2459 126.839 75.5664 123.042 73.4977 119.941C71.7582 117.329 69.173 115.411 66.6393 113.56C65.3588 113.97 63.9877 113.994 62.6438 113.973C62.4928 113.973 62.3418 113.973 62.1938 113.973L61.8435 115.067C61.8435 115.067 60.1009 116.347 60.2338 117.181C60.3667 118.014 62.6498 117.38 62.6498 117.38C62.6498 117.38 60.0677 119.276 60.5358 119.971C61.0039 120.666 63.287 119.092 63.287 119.092C63.0198 119.715 62.8026 120.358 62.6377 121.016C62.4354 121.919 62.4958 122.922 63.1209 123.281Z" fill="white" stroke="#272727" stroke-miterlimit="10"/>
<path d="M71.9709 120.967C71.9709 120.967 71.3669 122.236 70.9773 122.07C70.5877 121.903 70.5666 120.067 70.5666 120.067C70.5666 120.067 69.4854 121.994 68.7364 121.577C67.9875 121.161 68.5432 119.098 68.5432 119.098C68.5432 119.098 67.1781 119.783 66.6496 119.27C66.1211 118.757 66.7432 117.612 66.7432 117.612C66.7432 117.612 65.2574 117.872 64.9312 117.295C64.605 116.718 65.5594 115.694 65.5594 115.694" fill="white"/>
<path d="M71.9709 120.967C71.9709 120.967 71.3669 122.236 70.9773 122.07C70.5877 121.903 70.5666 120.067 70.5666 120.067C70.5666 120.067 69.4854 121.994 68.7364 121.577C67.9875 121.161 68.5432 119.098 68.5432 119.098C68.5432 119.098 67.1781 119.783 66.6496 119.27C66.1211 118.757 66.7432 117.612 66.7432 117.612C66.7432 117.612 65.2574 117.872 64.9312 117.295C64.605 116.718 65.5594 115.694 65.5594 115.694" stroke="#272727" stroke-miterlimit="10"/>
<path d="M31.6008 102.817C28.4812 102.473 25.283 102.134 22.2388 102.886C18.6148 103.777 15.5525 106.115 12.6019 108.395L7.63096 112.236C6.88553 112.77 6.20092 113.384 5.58943 114.066C5.49756 114.152 5.42721 114.257 5.38416 114.375C5.34111 114.492 5.32659 114.619 5.34179 114.743C5.40019 114.898 5.51285 115.027 5.65889 115.105C5.98988 115.294 6.35695 115.412 6.73624 115.45C7.11553 115.488 7.49857 115.445 7.86049 115.326C8.58193 115.082 9.26521 114.737 9.88994 114.302L17.0383 109.787L13.3116 113.798C12.6261 114.538 11.7623 115.126 11.0496 115.845C10.7174 116.177 10.1134 116.682 10.0258 117.171C9.76612 118.633 13.0157 117.515 13.5683 117.271C14.6189 116.794 15.6043 116.185 16.5008 115.459C18.1799 114.124 19.5933 112.493 20.9976 110.874L16.7605 117.597C16.4072 118.111 16.1172 118.665 15.8968 119.249C15.7729 119.62 15.7488 120.11 16.078 120.318C16.2162 120.391 16.3719 120.424 16.5279 120.415C17.3645 120.415 18.1255 119.949 18.7929 119.445C20.907 117.848 22.5046 115.682 24.075 113.55C23.4411 115.607 22.9368 117.702 22.565 119.823C22.3354 121.167 23.4408 120.753 24.075 120.185C25.1103 119.271 25.9347 118.142 26.491 116.878C27.0044 115.712 27.6688 114.024 27.6688 112.732C27.6712 114.383 27.772 116.033 27.9708 117.672C28.0342 118.21 28.2154 118.88 28.7469 118.977C29.1667 119.062 29.5563 118.732 29.8372 118.406C31.1014 116.943 31.8178 115.085 31.8636 113.151C32.0508 114.169 32.2773 115.265 33.0293 115.966C33.7813 116.667 35.243 116.694 35.6748 115.755C35.8983 115.265 35.7806 114.695 35.6748 114.169C35.397 112.961 35.1182 111.753 34.8383 110.545C35.5177 111.889 36.3097 113.173 37.206 114.384C37.3963 114.643 37.6741 114.93 37.9882 114.852C38.1544 114.799 38.294 114.684 38.3778 114.532C39.0301 113.505 38.4533 112.167 37.8764 111.095C38.3717 111.327 38.716 111.795 39.163 112.109C39.6099 112.424 40.3196 112.532 40.6488 112.094C40.7462 111.938 40.796 111.757 40.7922 111.573C40.7885 111.389 40.7313 111.211 40.6277 111.059C40.4138 110.759 40.1441 110.504 39.8334 110.307C37.9127 108.897 36.0624 107.402 34.2826 105.822C33.2619 104.925 32.2683 103.986 31.6008 102.817Z" fill="#00C2CB" stroke="#272727" stroke-miterlimit="10"/>
<path d="M21.4194 108.494C20.6705 109.222 19.9094 109.932 19.1514 110.632C18.3934 111.333 17.6172 112.031 16.826 112.701C16.0347 113.371 15.2495 114.045 14.4432 114.697C13.6368 115.35 12.8154 115.984 12 116.639C12.913 116.13 13.7953 115.567 14.6425 114.954C15.0714 114.652 15.4791 114.332 15.8958 114.015C16.3126 113.698 16.7082 113.359 17.1038 113.015C17.8951 112.333 18.6541 111.616 19.3809 110.865C20.113 110.121 20.7941 109.329 21.4194 108.494Z" fill="#272727"/>
<path d="M18.6226 107.238C17.7166 107.749 16.8317 108.286 15.9499 108.836C15.068 109.386 14.1983 109.944 13.3285 110.503C12.4587 111.062 11.595 111.638 10.7313 112.212C9.86755 112.786 9.01591 113.369 8.125 113.9C9.0831 113.501 10.0098 113.031 10.8974 112.493C11.8034 111.974 12.6731 111.418 13.549 110.856C14.4248 110.295 15.2764 109.709 16.122 109.108C16.9676 108.507 17.8132 107.894 18.6226 107.238Z" fill="#272727"/>
<path d="M24.036 110.425C22.9548 111.856 21.9431 113.324 20.8952 114.762C20.3757 115.486 19.8462 116.202 19.3066 116.909C18.763 117.609 18.2134 118.31 17.6094 118.971C18.322 118.422 18.9758 117.801 19.5603 117.117C19.8623 116.785 20.1402 116.432 20.424 116.084C20.7079 115.737 20.9737 115.372 21.2364 115.009C21.7589 114.281 22.2602 113.535 22.7253 112.771C23.2015 112.012 23.6389 111.229 24.036 110.425Z" fill="#272727"/>
<path d="M26.8339 110.5C26.5681 111.222 26.3295 111.95 26.097 112.674L25.4145 114.858C25.194 115.589 24.9614 116.311 24.7319 117.035C24.5024 117.76 24.2638 118.482 23.9648 119.189C24.402 118.554 24.7629 117.869 25.04 117.15C25.342 116.44 25.5866 115.716 25.8161 114.982C26.0456 114.248 26.2419 113.511 26.4201 112.762C26.596 112.015 26.7341 111.26 26.8339 110.5Z" fill="#272727"/>
<path d="M30.0473 109.767C30.0473 110.34 30.0473 110.908 30.0473 111.476C30.0473 112.044 30.0473 112.608 30.0473 113.17C30.0473 113.732 30.0202 114.297 29.993 114.858C29.9658 115.42 29.9024 115.982 29.8359 116.556C30.0643 116.025 30.2266 115.468 30.3191 114.898C30.409 114.328 30.4585 113.753 30.4671 113.176C30.4727 112.602 30.4435 112.028 30.3795 111.458C30.3188 110.885 30.2077 110.319 30.0473 109.767Z" fill="#272727"/>
<path d="M32.6914 109.295C32.7366 109.764 32.8082 110.229 32.9058 110.69C32.9934 111.149 33.1021 111.596 33.2078 112.055C33.3135 112.514 33.4494 112.961 33.5853 113.402C33.7212 113.843 33.8692 114.287 34.0081 114.74C34.027 114.267 33.9926 113.792 33.9055 113.327C33.833 112.862 33.7273 112.406 33.6035 111.95C33.4796 111.493 33.3558 111.044 33.2018 110.603C33.0608 110.156 32.8903 109.719 32.6914 109.295Z" fill="#272727"/>
<path d="M35.5391 108.972C35.6584 109.348 35.8006 109.718 35.9649 110.077C36.1249 110.433 36.291 110.787 36.4662 111.134C36.6414 111.481 36.8226 111.826 37.0098 112.17L37.5715 113.203C37.5412 112.803 37.4527 112.411 37.3088 112.037C37.1777 111.663 37.0213 111.299 36.8407 110.947C36.659 110.593 36.4573 110.251 36.2367 109.92C36.0297 109.586 35.7964 109.269 35.5391 108.972Z" fill="#272727"/>
<path d="M27.6274 112.364C26.9207 112.206 27.5851 110.376 27.5851 110.376C27.235 110.845 26.859 111.294 26.4586 111.72C25.8546 112.357 24.5228 113.698 23.7406 113.109C22.9584 112.521 25.3503 109.443 25.3503 109.443C25.3503 109.443 24.1846 110.425 22.7923 111.409C18.1717 114.704 22.4903 108.29 22.4903 108.29C22.4903 108.29 19.9807 110.011 18.8663 110.615C15.3389 112.521 20.4276 106.55 20.4276 106.55C20.4276 106.55 17.0603 108.513 16.9758 107.951C16.8912 107.39 17.9663 106.197 17.9663 106.197C17.9663 106.197 12.9652 108.736 12.3008 108.613C12.4004 108.537 12.5001 108.462 12.6028 108.383C15.5473 106.115 18.6126 103.781 22.2336 102.875C25.2838 102.123 28.482 102.461 31.5957 102.805C32.2631 103.974 33.2567 104.919 34.2624 105.81L34.6036 106.112L34.1234 107.154C34.1234 107.154 34.5402 109.268 33.8788 109.8C33.2174 110.331 31.9671 108.317 31.9671 108.317C31.9671 108.317 32.5893 111.458 31.7648 111.639C30.9403 111.82 30.3333 109.132 30.3333 109.132C30.1089 109.772 29.8342 110.393 29.5119 110.989C29.0528 111.82 28.331 112.521 27.6274 112.364Z" fill="white" stroke="#272727" stroke-miterlimit="10"/>
<path d="M22.6749 104.687C22.6749 104.687 22.2551 106.024 22.6749 106.172C23.0946 106.32 24.3298 104.964 24.3298 104.964C24.3298 104.964 23.8255 107.115 24.656 107.314C25.4865 107.513 26.468 105.617 26.468 105.617C26.468 105.617 27.0086 107.048 27.7455 107.024C28.4823 107 28.7964 105.741 28.7964 105.741C28.7964 105.741 29.7024 106.933 30.3397 106.722C30.9769 106.511 30.9437 105.118 30.9437 105.118" fill="white"/>
<path d="M22.6749 104.687C22.6749 104.687 22.2551 106.024 22.6749 106.172C23.0946 106.32 24.3298 104.964 24.3298 104.964C24.3298 104.964 23.8255 107.115 24.656 107.314C25.4865 107.513 26.468 105.617 26.468 105.617C26.468 105.617 27.0086 107.048 27.7455 107.024C28.4823 107 28.7964 105.741 28.7964 105.741C28.7964 105.741 29.7024 106.933 30.3397 106.722C30.9769 106.511 30.9437 105.118 30.9437 105.118" stroke="#272727" stroke-miterlimit="10"/>
<path d="M34.2856 121.659L29.8221 125.7C29.7784 125.74 29.7454 125.79 29.7262 125.846C29.707 125.902 29.7021 125.962 29.712 126.02C29.722 126.078 29.7463 126.133 29.783 126.18C29.8196 126.226 29.8673 126.263 29.9217 126.286C29.9732 126.307 30.029 126.316 30.0847 126.312C30.1403 126.308 30.1942 126.291 30.2418 126.262L35.2158 123.242L34.2856 121.659Z" fill="#00C2CB" stroke="#272727" stroke-miterlimit="10"/>
<path d="M50.5357 128.463L50.7894 134.476C50.792 134.535 50.7795 134.594 50.7531 134.648C50.7267 134.701 50.6873 134.747 50.6385 134.781C50.5897 134.815 50.5331 134.836 50.474 134.842C50.4148 134.849 50.355 134.84 50.3002 134.817C50.2487 134.796 50.2032 134.763 50.1674 134.72C50.1316 134.677 50.1067 134.627 50.0948 134.572L48.7539 128.913L50.5357 128.463Z" fill="#00C2CB" stroke="#272727" stroke-miterlimit="10"/>
<path d="M47.8667 85.7983L47.0586 85.8428L47.4502 92.9592L48.2584 92.9148L47.8667 85.7983Z" fill="#272727" stroke="#272727" stroke-miterlimit="10"/>
<path d="M54.5039 91.3169L41.1494 92.0538L40.9561 89.2543C40.9273 88.7328 41.1068 88.2213 41.4551 87.8322C41.8034 87.4431 42.292 87.2083 42.8134 87.1795L52.2359 86.6601C52.7576 86.6321 53.2691 86.8122 53.6581 87.161C54.0471 87.5098 54.2818 87.9987 54.3106 88.5204L54.5039 91.3169Z" fill="#00C2CB" stroke="#272727" stroke-miterlimit="10"/>
<path d="M60.9724 98.2378L61.5078 98.8447L66.8524 94.1295L66.3169 93.5226L60.9724 98.2378Z" fill="#272727" stroke="#272727" stroke-miterlimit="10"/>
<path d="M57.9648 92.6278L66.8135 102.657L68.7131 100.876C68.9073 100.705 69.0659 100.497 69.1799 100.265C69.2938 100.033 69.3609 99.7807 69.3771 99.5226C69.3934 99.2645 69.3586 99.0058 69.2747 98.7612C69.1908 98.5165 69.0595 98.2909 68.8882 98.0971L62.6459 91.0212C62.3006 90.6296 61.8139 90.3912 61.2929 90.3584C60.7719 90.3256 60.2592 90.501 59.8675 90.846L57.9648 92.6278Z" fill="#00C2CB" stroke="#272727" stroke-miterlimit="10"/>
<path d="M56.6937 91.3713L56.418 91.2559L54.9949 94.6544L55.2707 94.7699L56.6937 91.3713Z" fill="#272727" stroke="#272727" stroke-miterlimit="10"/>
<path d="M57.018 91.716L55.8945 91.2419C55.8318 91.2158 55.7749 91.1776 55.7271 91.1294C55.6792 91.0812 55.6414 91.024 55.6159 90.961C55.5903 90.8981 55.5775 90.8308 55.5781 90.7629C55.5788 90.6949 55.5929 90.6278 55.6197 90.5654C55.6458 90.5027 55.684 90.4458 55.7322 90.398C55.7804 90.3501 55.8376 90.3123 55.9006 90.2868C55.9635 90.2612 56.0308 90.2484 56.0988 90.249C56.1667 90.2497 56.2338 90.2638 56.2962 90.2906L57.4287 90.7647C57.4914 90.7908 57.5483 90.829 57.5962 90.8773C57.644 90.9255 57.6818 90.9827 57.7073 91.0456C57.7329 91.1085 57.7457 91.1759 57.7451 91.2438C57.7444 91.3117 57.7303 91.3788 57.7035 91.4412C57.6775 91.5051 57.6389 91.563 57.5901 91.6116C57.5412 91.6602 57.483 91.6985 57.4191 91.7241C57.3551 91.7498 57.2866 91.7623 57.2177 91.7609C57.1488 91.7595 57.0809 91.7442 57.018 91.716Z" fill="#272727" stroke="#272727" stroke-miterlimit="10"/>
<path d="M65.5994 117.027C68.8771 107.443 63.7646 97.0165 54.1804 93.7389C44.5961 90.4612 34.1695 95.5737 30.8918 105.158C27.6141 114.742 32.7266 125.169 42.3108 128.446C51.8951 131.724 62.3218 126.612 65.5994 117.027Z" fill="#272727" stroke="#272727" stroke-miterlimit="10"/>
<path d="M59.6339 122.177C65.8092 116.002 65.8092 105.99 59.6339 99.8147C53.4586 93.6395 43.4465 93.6395 37.2712 99.8147C31.0959 105.99 31.0959 116.002 37.2712 122.177C43.4465 128.353 53.4586 128.353 59.6339 122.177Z" fill="white" stroke="#272727" stroke-miterlimit="10"/>
<path d="M48.2426 126.736C56.8874 126.736 63.8953 119.728 63.8953 111.083C63.8953 102.439 56.8874 95.4307 48.2426 95.4307C39.5978 95.4307 32.5898 102.439 32.5898 111.083C32.5898 119.728 39.5978 126.736 48.2426 126.736Z" fill="white" stroke="#272727" stroke-miterlimit="10"/>
<path d="M47.7085 111.403L40.0859 111.602L47.6209 110.901L47.7085 111.403Z" fill="#00C2CB" stroke="#272727" stroke-miterlimit="10"/>
<path d="M48.6863 111.388L56.0582 121.613L47.9102 111.442L48.6863 111.388Z" fill="#00C2CB" stroke="#272727" stroke-miterlimit="10"/>
<path d="M48.8733 111.346C48.8217 111.47 48.7344 111.576 48.6225 111.65C48.5106 111.725 48.3791 111.765 48.2447 111.764C48.1102 111.764 47.9789 111.724 47.8672 111.649C47.7556 111.574 47.6687 111.468 47.6175 111.343C47.5664 111.219 47.5532 111.082 47.5798 110.951C47.6063 110.819 47.6714 110.698 47.7667 110.603C47.862 110.508 47.9833 110.444 48.1153 110.418C48.2472 110.392 48.3839 110.406 48.5079 110.458C48.6735 110.528 48.8047 110.66 48.8731 110.827C48.9416 110.993 48.9416 111.179 48.8733 111.346Z" fill="#272727" stroke="#272727" stroke-miterlimit="10"/>
<path d="M62.3639 116.993L61.5273 116.646" stroke="#272727" stroke-miterlimit="10"/>
<path d="M34.9655 105.523L34.1289 105.173" stroke="#272727" stroke-miterlimit="10"/>
<path d="M63.5154 110.017L62.6094 110.083" stroke="#272727" stroke-miterlimit="10"/>
<path d="M33.8826 112.086L32.9766 112.149" stroke="#272727" stroke-miterlimit="10"/>
<path d="M60.4826 101.887L59.7578 102.433" stroke="#272727" stroke-miterlimit="10"/>
<path d="M36.7356 119.732L36.0078 120.279" stroke="#272727" stroke-miterlimit="10"/>
<path d="M38.878 100.148L38.2891 99.4561" stroke="#272727" stroke-miterlimit="10"/>
<path d="M58.2022 122.71L57.6133 122.019" stroke="#272727" stroke-miterlimit="10"/>
<path d="M46.3278 96.813L46.207 95.9131" stroke="#272727" stroke-miterlimit="10"/>
<path d="M50.281 126.253L50.1602 125.353" stroke="#272727" stroke-miterlimit="10"/>
<path d="M53.8086 97.8013L54.1559 96.9678" stroke="#272727" stroke-miterlimit="10"/>
<path d="M42.3359 125.202L42.6863 124.365" stroke="#272727" stroke-miterlimit="10"/>
<path d="M51.5469 100.299L52.3411 98.3989H51.9667L52.1207 98.0335H52.2324L52.3864 98.0154L52.5465 97.9912C52.5869 97.9848 52.6265 97.9737 52.6643 97.958L53.0508 98.1211L52.0512 100.51L51.5469 100.299Z" fill="#272727"/>
<path d="M52.4258 100.667L52.5707 100.32L53.51 99.6794L53.7123 99.5405C53.7743 99.4979 53.8319 99.4494 53.8845 99.3955C53.9343 99.3427 53.9742 99.2813 54.0022 99.2143C54.0294 99.1613 54.0379 99.1007 54.0264 99.0422C54.0191 99.0205 54.0072 99.0007 53.9916 98.9841C53.9759 98.9674 53.9569 98.9543 53.9358 98.9455C53.9133 98.936 53.8892 98.9311 53.8648 98.9311C53.8404 98.9311 53.8163 98.936 53.7938 98.9455C53.7483 98.9637 53.7093 98.9953 53.6821 99.0362C53.6479 99.0861 53.6195 99.1398 53.5975 99.1962L53.5492 99.314L53.069 99.1117L53.1234 98.9848C53.1773 98.8554 53.254 98.7367 53.3499 98.6345C53.438 98.5445 53.5521 98.4843 53.6761 98.4623C53.8214 98.4437 53.9691 98.4667 54.1019 98.5288C54.1926 98.5592 54.276 98.6078 54.3472 98.6717C54.4183 98.7356 54.4757 98.8134 54.5156 98.9002C54.547 98.9862 54.5605 99.0777 54.5553 99.1691C54.5501 99.2605 54.5263 99.3499 54.4854 99.4318C54.4476 99.5236 54.3945 99.6083 54.3284 99.6824C54.2616 99.7535 54.1866 99.8164 54.1049 99.8697C54.0234 99.9271 53.9358 99.9875 53.8422 100.048L53.1355 100.516L53.8331 100.818L53.6731 101.205L52.4258 100.667Z" fill="#272727"/>
<path d="M57.7852 104.804L58.5824 102.902H58.4949H58.1929L58.3469 102.536H58.4586L58.6157 102.521L58.7757 102.497C58.8148 102.489 58.8531 102.478 58.8905 102.464L59.277 102.627L58.2774 105.013L57.7852 104.804Z" fill="#272727"/>
<path d="M59.9844 110.95L60.1293 110.603L61.0716 109.963L61.2709 109.824C61.3329 109.781 61.3905 109.733 61.443 109.679C61.494 109.626 61.5349 109.565 61.5638 109.498C61.5886 109.444 61.597 109.384 61.588 109.326C61.5805 109.304 61.5683 109.283 61.5521 109.267C61.5359 109.25 61.5162 109.237 61.4944 109.229C61.4719 109.219 61.4478 109.214 61.4234 109.214C61.399 109.214 61.3749 109.219 61.3524 109.229C61.3072 109.246 61.269 109.278 61.2437 109.32C61.2084 109.369 61.1799 109.423 61.1592 109.48L61.1078 109.597L60.6307 109.395L60.685 109.268C60.7366 109.138 60.8136 109.019 60.9115 108.918C60.9988 108.828 61.1117 108.768 61.2347 108.746C61.38 108.727 61.5278 108.75 61.6605 108.812C61.7513 108.843 61.835 108.892 61.9066 108.956C61.9782 109.019 62.0362 109.097 62.0772 109.184C62.1077 109.27 62.1208 109.361 62.1156 109.452C62.1104 109.544 62.0871 109.633 62.047 109.715C62.0079 109.807 61.9538 109.892 61.887 109.966C61.8213 110.037 61.7472 110.1 61.6665 110.153C61.585 110.21 61.4974 110.271 61.4038 110.331L60.6941 110.799L61.3947 111.101L61.2316 111.488L59.9844 110.95Z" fill="#272727"/>
<path d="M59.9252 117.174C59.7839 117.125 59.6607 117.034 59.5719 116.914C59.5015 116.813 59.4684 116.69 59.4783 116.567C59.4873 116.423 59.5221 116.282 59.581 116.15L59.6172 116.065L60.1095 116.271L60.0944 116.304L60.0732 116.355C60.0452 116.42 60.0229 116.486 60.0068 116.555C59.9941 116.597 59.9941 116.642 60.0068 116.685C60.0264 116.721 60.0586 116.749 60.0974 116.763C60.116 116.771 60.136 116.775 60.1563 116.775C60.1765 116.775 60.1966 116.771 60.2152 116.763C60.2537 116.744 60.2853 116.713 60.3058 116.675C60.3387 116.621 60.367 116.563 60.3903 116.503C60.4381 116.41 60.46 116.306 60.4537 116.201C60.4537 116.126 60.3933 116.065 60.2937 116.02H60.2605L60.2031 115.996L60.345 115.658H60.3843L60.4235 115.676C60.4608 115.697 60.503 115.708 60.5458 115.708C60.5887 115.708 60.6309 115.697 60.6682 115.676C60.7444 115.612 60.8018 115.528 60.8343 115.434C60.8662 115.362 60.8837 115.284 60.8856 115.205C60.8824 115.175 60.8707 115.147 60.8519 115.124C60.8332 115.101 60.8082 115.084 60.7799 115.075C60.7535 115.06 60.7227 115.055 60.6929 115.061C60.6631 115.066 60.6362 115.082 60.6168 115.105C60.564 115.163 60.523 115.231 60.496 115.304L60.4719 115.365L60.4447 115.428L59.9524 115.22L60.0128 115.075C60.0613 114.948 60.1401 114.835 60.2423 114.746C60.3327 114.669 60.4446 114.623 60.5625 114.613C60.693 114.605 60.8236 114.629 60.943 114.682C61.0664 114.731 61.1769 114.807 61.2661 114.906C61.3419 114.99 61.3894 115.095 61.402 115.208C61.4124 115.341 61.3885 115.475 61.3326 115.597C61.2832 115.717 61.203 115.821 61.1 115.899C61.0222 115.963 60.9226 115.995 60.8222 115.987C60.8691 116.031 60.9061 116.084 60.9309 116.144C60.9589 116.213 60.9693 116.288 60.9611 116.361C60.9531 116.466 60.9266 116.568 60.8826 116.663C60.8302 116.796 60.7533 116.918 60.6561 117.023C60.5724 117.115 60.4611 117.177 60.339 117.201C60.2012 117.23 60.058 117.221 59.9252 117.174Z" fill="#272727"/>
<path d="M56.4635 121.599L56.687 121.062L55.9531 120.76L56.1041 120.397L57.3514 119.168L57.9222 119.41L57.3001 120.895L57.5205 120.986L57.3695 121.351L57.146 121.261L56.9226 121.795L56.4635 121.599ZM56.4816 120.545L56.841 120.696L57.2578 119.703L56.4816 120.545Z" fill="#272727"/>
<path d="M49.769 124.316C49.6268 124.267 49.5019 124.178 49.4096 124.06C49.3459 123.959 49.3201 123.839 49.3371 123.721C49.3581 123.581 49.3977 123.444 49.4549 123.314L49.9291 123.51C49.8962 123.584 49.87 123.661 49.8506 123.739C49.8365 123.787 49.8365 123.837 49.8506 123.884C49.872 123.923 49.9077 123.953 49.9502 123.966C49.9724 123.975 49.9967 123.978 50.0206 123.975C50.0445 123.972 50.0671 123.963 50.0861 123.948C50.1332 123.906 50.1713 123.854 50.1979 123.797C50.2311 123.724 50.2734 123.637 50.3156 123.531C50.3456 123.461 50.3708 123.39 50.3911 123.317C50.4044 123.262 50.4044 123.205 50.3911 123.151C50.3858 123.126 50.3741 123.103 50.3571 123.085C50.3401 123.066 50.3185 123.052 50.2945 123.045C50.2725 123.034 50.2482 123.028 50.2235 123.028C50.1989 123.028 50.1746 123.034 50.1526 123.045C50.0958 123.077 50.0488 123.124 50.0166 123.181L49.5908 123.003L50.2099 121.644L51.3273 122.112L51.1522 122.525L50.4334 122.223L50.2009 122.704C50.245 122.682 50.2942 122.674 50.3428 122.679C50.4085 122.682 50.4735 122.693 50.5361 122.713C50.6508 122.741 50.7509 122.811 50.817 122.909C50.8788 123.011 50.9063 123.131 50.8955 123.25C50.8836 123.41 50.8437 123.566 50.7777 123.712C50.7283 123.83 50.6708 123.944 50.6056 124.054C50.5525 124.145 50.4829 124.226 50.4002 124.292C50.3211 124.353 50.2251 124.388 50.1254 124.392C50.0024 124.394 49.8805 124.368 49.769 124.316Z" fill="#272727"/>
<path d="M43.2089 123.74C43.0722 123.69 42.9542 123.599 42.8707 123.48C42.802 123.37 42.7683 123.241 42.7741 123.112C42.7813 122.963 42.8161 122.816 42.8767 122.68L43.2361 121.816C43.2938 121.674 43.3711 121.541 43.4656 121.42C43.5467 121.32 43.6578 121.248 43.7827 121.215C43.936 121.19 44.0934 121.213 44.2327 121.282C44.3605 121.327 44.4748 121.404 44.5649 121.505C44.6322 121.584 44.6687 121.685 44.6676 121.789C44.664 121.914 44.6353 122.037 44.5831 122.151C44.5817 122.158 44.5817 122.165 44.5831 122.172V122.194L44.121 121.997C44.1541 121.928 44.1765 121.853 44.1874 121.777C44.1874 121.722 44.1633 121.683 44.0968 121.656C44.0781 121.646 44.0574 121.642 44.0364 121.642C44.0154 121.642 43.9947 121.646 43.976 121.656C43.9297 121.688 43.8931 121.732 43.8703 121.783C43.8206 121.875 43.7762 121.97 43.7374 122.067L43.6499 122.278C43.6944 122.245 43.7486 122.228 43.8039 122.23C43.8712 122.23 43.9379 122.244 44.0002 122.269C44.111 122.306 44.2052 122.381 44.266 122.48C44.3131 122.574 44.333 122.678 44.3233 122.783C44.3114 122.912 44.2788 123.038 44.2267 123.157C44.1663 123.307 44.085 123.447 43.9851 123.574C43.9016 123.677 43.7874 123.751 43.6589 123.785C43.5082 123.822 43.3494 123.806 43.2089 123.74ZM43.366 123.38C43.3841 123.39 43.4043 123.395 43.4249 123.395C43.4454 123.395 43.4657 123.39 43.4838 123.38C43.5255 123.35 43.5588 123.31 43.5804 123.263C43.6136 123.205 43.6468 123.133 43.6861 123.045C43.7151 122.977 43.7403 122.908 43.7616 122.837C43.7804 122.789 43.7867 122.737 43.7797 122.686C43.7734 122.664 43.7619 122.644 43.7461 122.628C43.7303 122.611 43.7107 122.599 43.6891 122.592C43.6653 122.586 43.6404 122.586 43.6166 122.592C43.5927 122.587 43.5681 122.587 43.5442 122.592L43.4928 122.619L43.3297 123.009C43.3077 123.06 43.2905 123.112 43.2784 123.166C43.2677 123.21 43.2677 123.255 43.2784 123.299C43.2849 123.317 43.2952 123.334 43.3088 123.348C43.3223 123.362 43.3387 123.373 43.3569 123.38H43.366Z" fill="#272727"/>
<path d="M37.0117 119.756L38.3768 117.974L37.7244 117.7L37.8815 117.325L39.014 117.799L38.8721 118.141L37.4949 119.971L37.0117 119.756Z" fill="#272727"/>
<path d="M34.9409 113.001C34.8023 112.951 34.6814 112.862 34.5936 112.744C34.524 112.64 34.4901 112.516 34.497 112.391C34.507 112.248 34.5417 112.108 34.5996 111.977C34.625 111.92 34.6554 111.865 34.6902 111.814C34.7227 111.764 34.7613 111.718 34.805 111.678C34.8459 111.64 34.8929 111.61 34.9439 111.587C34.9946 111.565 35.0488 111.552 35.104 111.548C35.058 111.468 35.0311 111.378 35.0255 111.285C35.0154 111.163 35.035 111.039 35.0828 110.926C35.1286 110.806 35.2009 110.697 35.2942 110.609C35.3785 110.534 35.4841 110.488 35.5962 110.476C35.7237 110.466 35.8517 110.489 35.9677 110.542C36.0858 110.588 36.19 110.664 36.2697 110.763C36.3377 110.85 36.3777 110.955 36.3845 111.065C36.3849 111.193 36.3559 111.319 36.2999 111.433C36.2558 111.549 36.1843 111.653 36.0915 111.735C36.0225 111.797 35.9396 111.84 35.8499 111.862C35.8858 111.903 35.9145 111.95 35.9345 112.001C35.9533 112.054 35.9645 112.109 35.9677 112.164C35.9751 112.223 35.9751 112.283 35.9677 112.342C35.9552 112.404 35.937 112.465 35.9133 112.524C35.8641 112.658 35.7893 112.781 35.6929 112.886C35.6134 112.976 35.5077 113.038 35.3909 113.064C35.2379 113.089 35.0809 113.067 34.9409 113.001ZM35.0919 112.638C35.1128 112.651 35.1368 112.658 35.1614 112.658C35.1859 112.658 35.2099 112.651 35.2308 112.638C35.2741 112.607 35.3092 112.565 35.3335 112.518C35.3613 112.471 35.3855 112.423 35.406 112.373C35.4321 112.314 35.4543 112.253 35.4724 112.191C35.484 112.14 35.484 112.086 35.4724 112.034C35.4662 112.011 35.4549 111.99 35.4393 111.972C35.4237 111.955 35.4043 111.941 35.3825 111.931C35.3608 111.922 35.3371 111.918 35.3135 111.919C35.2898 111.92 35.2667 111.926 35.2459 111.938C35.2028 111.969 35.1676 112.011 35.1432 112.058C35.1104 112.114 35.0811 112.171 35.0557 112.231C35.0354 112.281 35.0182 112.332 35.0043 112.385C34.9863 112.436 34.9811 112.491 34.9892 112.545C34.9966 112.568 35.01 112.589 35.028 112.605C35.046 112.622 35.0681 112.633 35.0919 112.638ZM35.557 111.53C35.572 111.537 35.5885 111.541 35.6053 111.541C35.6221 111.541 35.6386 111.537 35.6536 111.53C35.6942 111.505 35.7284 111.471 35.7533 111.43C35.7927 111.37 35.8261 111.307 35.8529 111.24C35.8835 111.175 35.898 111.104 35.8952 111.032C35.8953 111.006 35.8875 110.982 35.8729 110.961C35.8583 110.941 35.8376 110.925 35.8137 110.917C35.7906 110.906 35.7648 110.902 35.7395 110.906C35.7143 110.91 35.6907 110.921 35.6717 110.938C35.619 110.985 35.5786 111.044 35.554 111.11C35.5245 111.176 35.5013 111.245 35.4845 111.316C35.4735 111.363 35.4735 111.413 35.4845 111.461C35.4911 111.477 35.5009 111.491 35.5134 111.503C35.5259 111.515 35.5407 111.524 35.557 111.53Z" fill="#272727"/>
<path d="M35.5482 106.964C35.4209 106.918 35.3068 106.841 35.216 106.74C35.1478 106.66 35.1113 106.558 35.1134 106.453C35.1184 106.329 35.1471 106.207 35.1979 106.094V106.076V106.055L35.657 106.248C35.6248 106.319 35.6034 106.394 35.5935 106.472C35.5935 106.526 35.6237 106.565 35.6902 106.595C35.7085 106.604 35.7286 106.609 35.7491 106.609C35.7695 106.609 35.7897 106.604 35.808 106.595C35.8528 106.562 35.8882 106.517 35.9106 106.465C35.9469 106.399 35.9892 106.305 36.0405 106.185L36.1311 105.97C36.0846 106.001 36.0298 106.017 35.9741 106.016C35.9093 106.014 35.8451 106.003 35.7838 105.982C35.6706 105.943 35.5759 105.864 35.518 105.759C35.4694 105.656 35.4505 105.542 35.4637 105.43C35.4777 105.299 35.5113 105.17 35.5633 105.049C35.6206 104.9 35.7034 104.762 35.808 104.641C35.8931 104.544 36.0075 104.476 36.1341 104.448C36.2789 104.424 36.4276 104.445 36.56 104.509C36.6953 104.559 36.8136 104.647 36.9012 104.762C36.9697 104.866 37.0045 104.988 37.0009 105.113C36.9947 105.261 36.9598 105.406 36.8982 105.541L36.5267 106.432C36.469 106.573 36.3918 106.705 36.2972 106.825C36.2201 106.923 36.1147 106.995 35.9952 107.03C35.8429 107.056 35.6863 107.033 35.5482 106.964ZM36.1009 105.662C36.1181 105.669 36.1366 105.673 36.1553 105.673C36.1739 105.673 36.1924 105.669 36.2096 105.662C36.2379 105.652 36.2652 105.638 36.2912 105.623L36.4542 105.233C36.475 105.182 36.4921 105.13 36.5056 105.076C36.5161 105.034 36.5161 104.989 36.5056 104.946C36.4987 104.927 36.4875 104.909 36.4729 104.895C36.4582 104.88 36.4405 104.869 36.421 104.862C36.4037 104.851 36.3839 104.846 36.3637 104.846C36.3434 104.846 36.3236 104.851 36.3063 104.862C36.2628 104.891 36.2283 104.932 36.2066 104.98C36.1672 105.05 36.1329 105.122 36.1039 105.197C36.0737 105.264 36.0475 105.332 36.0254 105.402C36.0085 105.451 36.0023 105.502 36.0073 105.553C36.0109 105.579 36.0216 105.602 36.0382 105.622C36.0548 105.641 36.0765 105.655 36.1009 105.662Z" fill="#272727"/>
<path d="M39 102.165L39.7943 100.262H39.7067H39.4047L39.5557 99.8967H39.6674L39.8245 99.8816C39.8783 99.876 39.9318 99.8669 39.9845 99.8544C40.0248 99.8488 40.0643 99.8387 40.1023 99.8242L40.4889 99.9843L39.4892 102.373L39 102.165Z" fill="#272727"/>
<path d="M40.5469 102.874C40.4196 102.825 40.308 102.743 40.2238 102.636C40.1524 102.539 40.1114 102.424 40.106 102.304C40.1014 102.171 40.1272 102.038 40.1815 101.917L40.6345 100.833C40.6848 100.706 40.7609 100.591 40.858 100.495C40.9412 100.414 41.0463 100.361 41.16 100.341C41.2976 100.328 41.4363 100.349 41.5641 100.401C41.6919 100.454 41.8051 100.537 41.8938 100.643C41.9663 100.739 42.0046 100.857 42.0026 100.978C42.0033 101.114 41.9744 101.249 41.918 101.373L41.465 102.455C41.4168 102.578 41.3415 102.688 41.2445 102.778C41.1553 102.859 41.0438 102.911 40.9244 102.929C40.796 102.944 40.6659 102.925 40.5469 102.874ZM40.7311 102.433C40.7495 102.444 40.7703 102.45 40.7915 102.45C40.8127 102.45 40.8336 102.444 40.8519 102.433C40.8865 102.411 40.9146 102.38 40.9335 102.343C40.9523 102.311 40.9695 102.277 40.9848 102.243L41.4288 101.183L41.471 101.068C41.4799 101.026 41.4799 100.981 41.471 100.939C41.4659 100.917 41.4554 100.898 41.4406 100.882C41.4258 100.866 41.4072 100.855 41.3865 100.848C41.3676 100.837 41.3462 100.832 41.3246 100.832C41.3029 100.832 41.2816 100.837 41.2627 100.848C41.2269 100.873 41.1979 100.906 41.1781 100.945L41.1237 101.056L40.6798 102.116C40.6662 102.152 40.6551 102.188 40.6466 102.225C40.6376 102.265 40.6376 102.306 40.6466 102.346C40.6532 102.365 40.6644 102.382 40.6792 102.396C40.6939 102.409 40.7117 102.419 40.7311 102.424V102.433Z" fill="#272727"/>
<path d="M45.5977 99.7942L46.3919 97.8916H46.3043H46.0023L46.1564 97.5261H46.2681H46.4221C46.4795 97.5261 46.5308 97.511 46.5822 97.499C46.6221 97.4919 46.6615 97.4818 46.7 97.4688L47.0865 97.6288L46.0869 100.018L45.5977 99.7942Z" fill="#272727"/>
<path d="M46.7422 100.274L47.5395 98.3715H47.4519H47.1499L47.3009 98.0061H47.4126L47.5697 97.991C47.624 97.991 47.6784 97.9759 47.7297 97.9638C47.7696 97.9563 47.809 97.9462 47.8475 97.9336L48.2341 98.0937L47.2345 100.482L46.7422 100.274Z" fill="#272727"/>
<path d="M66.706 94.8412C66.706 94.8412 64.5527 92.1866 64.1812 91.5554C63.8098 90.9242 64.8637 88.9824 65.0449 87.7744C65.2261 86.5664 65.0449 85.8627 62.9309 84.4252C62.3755 84.0467 61.7998 83.6989 61.2065 83.3833L58.9264 82.4048C58.2162 82.1745 57.4932 81.9859 56.761 81.84C54.2574 81.3508 53.6232 81.7223 52.8984 82.6917C52.1736 83.6611 51.5243 85.7842 50.8116 85.9624C50.0989 86.1405 46.6953 86.4697 46.6953 86.4697" stroke="#272727" stroke-width="2" stroke-linecap="round" stroke-linejoin="round"/>
</svg>
