<svg width="37" height="37" viewBox="0 0 37 37" fill="none" xmlns="http://www.w3.org/2000/svg">
<path fill-rule="evenodd" clip-rule="evenodd" d="M6.72398 16.1487C7.12833 15.677 7.83854 15.6223 8.31029 16.0267L18.0781 24.3991L27.846 16.0267C28.3177 15.6223 29.028 15.677 29.4323 16.1487C29.8367 16.6205 29.782 17.3307 29.3103 17.735L18.8103 26.735C18.389 27.0961 17.7673 27.0961 17.346 26.735L6.84601 17.735C6.37426 17.3307 6.31963 16.6205 6.72398 16.1487Z" fill="white"/>
<path d="M7.5782 9.75586C7.10741 9.75586 6.68642 10.049 6.52308 10.4905C6.35974 10.9321 6.48861 11.4286 6.84606 11.735L17.3461 20.735C17.7674 21.0961 18.389 21.0961 18.8103 20.735L29.3103 11.735C29.6678 11.4286 29.7967 10.9321 29.6333 10.4905C29.47 10.049 29.049 9.75586 28.5782 9.75586H7.5782Z" fill="white"/>
<path fill-rule="evenodd" clip-rule="evenodd" d="M6.72398 16.1487C7.12833 15.677 7.83854 15.6223 8.31029 16.0267L18.0781 24.3991L27.846 16.0267C28.3177 15.6223 29.028 15.677 29.4323 16.1487C29.8367 16.6205 29.782 17.3307 29.3103 17.735L18.8103 26.735C18.389 27.0961 17.7673 27.0961 17.346 26.735L6.84601 17.735C6.37426 17.3307 6.31963 16.6205 6.72398 16.1487Z" stroke="white" stroke-width="0.5" stroke-linecap="round" stroke-linejoin="round"/>
<path d="M7.5782 9.75586C7.10741 9.75586 6.68642 10.049 6.52308 10.4905C6.35974 10.9321 6.48861 11.4286 6.84606 11.735L17.3461 20.735C17.7674 21.0961 18.389 21.0961 18.8103 20.735L29.3103 11.735C29.6678 11.4286 29.7967 10.9321 29.6333 10.4905C29.47 10.049 29.049 9.75586 28.5782 9.75586H7.5782Z" stroke="white" stroke-width="0.5" stroke-linecap="round" stroke-linejoin="round"/>
</svg>
