<svg width="22" height="20" viewBox="0 0 22 20" fill="none" xmlns="http://www.w3.org/2000/svg">
<path d="M3.08852 18.2646L2.67713 18.8917L2.67713 18.8917L3.08852 18.2646ZM1.86231 17.0607L1.24227 17.4826L1.24227 17.4826L1.86231 17.0607ZM20.3643 17.0607L20.9843 17.4826L20.9843 17.4826L20.3643 17.0607ZM19.138 18.2646L19.5494 18.8917L19.5494 18.8917L19.138 18.2646ZM20.3643 5.6666L20.9843 5.24464L20.9843 5.24464L20.3643 5.6666ZM19.138 4.46268L19.5494 3.83558L19.5494 3.83558L19.138 4.46268ZM0.363281 11.3636C0.363281 11.7779 0.699068 12.1136 1.11328 12.1136C1.52749 12.1136 1.86328 11.7779 1.86328 11.3636H0.363281ZM1.86231 5.6666L1.24227 5.24464L1.24227 5.24464L1.86231 5.6666ZM3.08852 4.46268L3.49992 5.08978L3.49992 5.08978L3.08852 4.46268ZM7.44661 2.63636L8.18152 2.78607L8.18152 2.78607L7.44661 2.63636ZM6.09128 3.76086V3.01086H6.07489L6.05851 3.01157L6.09128 3.76086ZM14.7799 2.63636L15.5149 2.48666L15.5149 2.48666L14.7799 2.63636ZM16.1353 3.76086L16.1681 3.01157L16.1517 3.01086H16.1353V3.76086ZM18.1133 8.75C18.5275 8.75 18.8633 8.41421 18.8633 8C18.8633 7.58579 18.5275 7.25 18.1133 7.25V8.75ZM17.1133 7.25C16.6991 7.25 16.3633 7.58579 16.3633 8C16.3633 8.41421 16.6991 8.75 17.1133 8.75V7.25ZM13.3633 11C13.3633 12.2426 12.3559 13.25 11.1133 13.25V14.75C13.1843 14.75 14.8633 13.0711 14.8633 11H13.3633ZM11.1133 13.25C9.87064 13.25 8.86328 12.2426 8.86328 11H7.36328C7.36328 13.0711 9.04221 14.75 11.1133 14.75V13.25ZM8.86328 11C8.86328 9.75736 9.87064 8.75 11.1133 8.75V7.25C9.04221 7.25 7.36328 8.92893 7.36328 11H8.86328ZM11.1133 8.75C12.3559 8.75 13.3633 9.75736 13.3633 11H14.8633C14.8633 8.92893 13.1843 7.25 11.1133 7.25V8.75ZM13.3355 18.25H8.89106V19.75H13.3355V18.25ZM8.89106 18.25C7.31522 18.25 6.18877 18.2491 5.31432 18.1618C4.45172 18.0756 3.91745 17.9114 3.49992 17.6375L2.67713 18.8917C3.38059 19.3532 4.18707 19.5567 5.16524 19.6544C6.13155 19.7509 7.34588 19.75 8.89106 19.75V18.25ZM3.49992 17.6375C3.09637 17.3728 2.7508 17.0332 2.48234 16.6387L1.24227 17.4826C1.62233 18.0411 2.1101 18.5197 2.67713 18.8917L3.49992 17.6375ZM20.3633 11.3636C20.3633 12.9117 20.3623 14.0152 20.2736 14.8712C20.1863 15.714 20.0204 16.2329 19.7442 16.6387L20.9843 17.4826C21.4572 16.7878 21.6657 15.9903 21.7657 15.0258C21.8642 14.0746 21.8633 12.8799 21.8633 11.3636H20.3633ZM13.3355 19.75C14.8807 19.75 16.095 19.7509 17.0613 19.6544C18.0395 19.5567 18.846 19.3532 19.5494 18.8917L18.7266 17.6375C18.3091 17.9114 17.7748 18.0756 16.9122 18.1618C16.0378 18.2491 14.9113 18.25 13.3355 18.25V19.75ZM19.7442 16.6387C19.4758 17.0332 19.1302 17.3728 18.7266 17.6375L19.5494 18.8917C20.1165 18.5197 20.6042 18.0411 20.9843 17.4826L19.7442 16.6387ZM21.8633 11.3636C21.8633 9.84739 21.8642 8.65271 21.7657 7.70145C21.6657 6.73694 21.4572 5.93947 20.9843 5.24464L19.7442 6.08857C20.0204 6.49435 20.1863 7.01325 20.2736 7.85604C20.3623 8.71207 20.3633 9.8156 20.3633 11.3636H21.8633ZM18.7266 5.08978C19.1302 5.35452 19.4758 5.6941 19.7442 6.08857L20.9843 5.24464C20.6042 4.68617 20.1165 4.20757 19.5494 3.83558L18.7266 5.08978ZM1.86328 11.3636C1.86328 9.8156 1.86422 8.71207 1.95292 7.85604C2.04024 7.01325 2.20619 6.49435 2.48234 6.08857L1.24227 5.24464C0.769399 5.93947 0.560836 6.73694 0.460903 7.70145C0.362341 8.65271 0.363281 9.84739 0.363281 11.3636H1.86328ZM2.67713 3.83558C2.1101 4.20757 1.62233 4.68617 1.24227 5.24464L2.48234 6.08857C2.7508 5.6941 3.09637 5.35452 3.49992 5.08978L2.67713 3.83558ZM9.47962 1.75H12.7469V0.25H9.47962V1.75ZM6.71171 2.48666C6.65011 2.78905 6.37616 3.01086 6.09128 3.01086V4.51086C7.12411 4.51086 7.98469 3.75231 8.18152 2.78607L6.71171 2.48666ZM14.045 2.78607C14.2419 3.75231 15.1025 4.51086 16.1353 4.51086V3.01086C15.8504 3.01086 15.5765 2.78905 15.5149 2.48666L14.045 2.78607ZM12.7469 1.75C13.3881 1.75 13.9242 2.19299 14.045 2.78607L15.5149 2.48666C15.248 1.17678 14.0824 0.25 12.7469 0.25V1.75ZM9.47962 0.25C8.14416 0.25 6.97853 1.17678 6.71171 2.48666L8.18152 2.78607C8.30233 2.19299 8.8385 1.75 9.47962 1.75V0.25ZM16.1025 4.51014C17.4604 4.56952 18.186 4.7351 18.7266 5.08978L19.5494 3.83558C18.6495 3.24517 17.5715 3.07294 16.1681 3.01157L16.1025 4.51014ZM6.05851 3.01157C4.65508 3.07294 3.57711 3.24517 2.67713 3.83558L3.49992 5.08978C4.04056 4.7351 4.76615 4.56952 6.12404 4.51014L6.05851 3.01157ZM0.665809 16.195C0.793106 16.6677 0.976664 17.0924 1.24227 17.4826L2.48234 16.6387C2.32483 16.4073 2.20477 16.1413 2.11421 15.805L0.665809 16.195ZM18.1133 7.25H17.1133V8.75H18.1133V7.25Z" fill="#00C2CB"/>
</svg>
