<svg width="28" height="27" viewBox="0 0 28 27" fill="none" xmlns="http://www.w3.org/2000/svg">
<path fill-rule="evenodd" clip-rule="evenodd" d="M27.3346 13.5C27.3346 20.6337 21.3651 26.4167 14.0013 26.4167C6.63751 26.4167 0.667969 20.6337 0.667969 13.5C0.667969 6.36636 6.63751 0.583374 14.0013 0.583374C21.3651 0.583374 27.3346 6.36636 27.3346 13.5ZM19.3751 9.58586C19.7656 9.96418 19.7656 10.5776 19.3751 10.9559L12.7084 17.4142C12.3179 17.7925 11.6847 17.7925 11.2942 17.4142L8.62753 14.8309C8.237 14.4526 8.237 13.8392 8.62753 13.4609C9.01805 13.0825 9.65122 13.0825 10.0417 13.4609L12.0013 15.3592L14.9811 12.4725L17.9609 9.58586C18.3514 9.20754 18.9846 9.20754 19.3751 9.58586Z" fill="#00C2CB"/>
</svg>
