<svg width="37" height="37" viewBox="0 0 37 37" fill="none" xmlns="http://www.w3.org/2000/svg">
<rect width="36" height="36" transform="translate(0.078125 0.380859)" fill="#FF66C4"/>
<path fill-rule="evenodd" clip-rule="evenodd" d="M33.0781 18.3809C33.0781 26.6651 26.3624 33.3809 18.0781 33.3809C9.79385 33.3809 3.07812 26.6651 3.07812 18.3809C3.07812 10.0966 9.79385 3.38086 18.0781 3.38086C26.3624 3.38086 33.0781 10.0966 33.0781 18.3809ZM24.1236 13.8354C24.563 14.2747 24.563 14.987 24.1236 15.4264L16.6236 22.9264C16.1843 23.3657 15.472 23.3657 15.0326 22.9264L12.0326 19.9264C11.5933 19.487 11.5933 18.7747 12.0326 18.3354C12.472 17.896 13.1843 17.896 13.6236 18.3354L15.8281 20.5399L19.1804 17.1876L22.5326 13.8354C22.972 13.396 23.6843 13.396 24.1236 13.8354Z" fill="white" stroke="white" stroke-width="0.5" stroke-linecap="round"/>
</svg>
