<svg width="29" height="29" viewBox="0 0 29 29" fill="none" xmlns="http://www.w3.org/2000/svg">
<path d="M3.44258 8.20813C3.22503 7.7005 2.63715 7.46535 2.12952 7.68291C1.62189 7.90046 1.38674 8.48834 1.60429 8.99597L3.44258 8.20813ZM18.3752 15.9855L18.0089 15.055L18.3752 15.9855ZM10.8432 16.5309C11.1444 16.068 11.0134 15.4486 10.5504 15.1474C10.0875 14.8461 9.46807 14.9772 9.16687 15.4401L10.8432 16.5309ZM7.51859 17.9733C7.21738 18.4362 7.34847 19.0557 7.81138 19.3569C8.2743 19.6581 8.89375 19.527 9.19496 19.0641L7.51859 17.9733ZM26.7759 8.99597C26.9935 8.48834 26.7583 7.90046 26.2507 7.68291C25.7431 7.46535 25.1552 7.7005 24.9376 8.20813L26.7759 8.99597ZM22.3568 13.419L21.6724 12.6899L21.6724 12.6899L22.3568 13.419ZM23.3997 15.8761C23.7902 16.2667 24.4234 16.2667 24.8139 15.8761C25.2044 15.4856 25.2044 14.8524 24.8139 14.4619L23.3997 15.8761ZM13.1901 19.6854C13.1901 20.2377 13.6378 20.6854 14.1901 20.6854C14.7424 20.6854 15.1901 20.2377 15.1901 19.6854H13.1901ZM19.1853 19.0641C19.4865 19.527 20.1059 19.6581 20.5688 19.3569C21.0317 19.0557 21.1628 18.4362 20.8616 17.9733L19.1853 19.0641ZM6.73054 14.1261C7.12107 13.7356 7.12107 13.1024 6.73054 12.7119C6.34002 12.3214 5.70685 12.3214 5.31633 12.7119L6.73054 14.1261ZM3.56633 14.4619C3.17581 14.8524 3.17581 15.4856 3.56633 15.8761C3.95685 16.2667 4.59002 16.2667 4.98054 15.8761L3.56633 14.4619ZM14.1901 15.7687C10.4749 15.7687 7.80521 13.9199 6.02706 12.0049C5.13829 11.0478 4.48631 10.0875 4.05721 9.36661C3.84322 9.00711 3.68622 8.70977 3.58421 8.50575C3.53324 8.40381 3.49611 8.3254 3.47257 8.27443C3.4608 8.24896 3.45244 8.23036 3.44745 8.21914C3.44496 8.21353 3.44331 8.20977 3.4425 8.20791C3.44209 8.20699 3.4419 8.20653 3.44191 8.20657C3.44192 8.20659 3.44198 8.20672 3.44209 8.20698C3.44215 8.20711 3.44227 8.2074 3.4423 8.20747C3.44243 8.20778 3.44258 8.20813 2.52344 8.60205C1.60429 8.99597 1.60447 8.99638 1.60466 8.99682C1.60474 8.99701 1.60494 8.99749 1.60511 8.99786C1.60543 8.99862 1.60581 8.9995 1.60625 9.00051C1.60712 9.00252 1.60821 9.00503 1.60951 9.00803C1.61213 9.01402 1.61563 9.02197 1.62 9.03181C1.62876 9.0515 1.64104 9.07876 1.65691 9.1131C1.68862 9.18176 1.73467 9.27881 1.79535 9.40018C1.91665 9.64277 2.09688 9.98345 2.33862 10.3896C2.82098 11.1999 3.55442 12.2813 4.56148 13.3658C6.575 15.5342 9.73863 17.7687 14.1901 17.7687V15.7687ZM18.0089 15.055C16.8907 15.4952 15.6224 15.7687 14.1901 15.7687V17.7687C15.8844 17.7687 17.4007 17.4438 18.7414 16.916L18.0089 15.055ZM9.16687 15.4401L7.51859 17.9733L9.19496 19.0641L10.8432 16.5309L9.16687 15.4401ZM25.8568 8.60205C24.9376 8.20813 24.9377 8.20793 24.9378 8.20774C24.9378 8.20768 24.9379 8.2075 24.9379 8.2074C24.938 8.20719 24.9381 8.20702 24.9382 8.20689C24.9383 8.20664 24.9383 8.20653 24.9383 8.20658C24.9383 8.20667 24.938 8.20737 24.9374 8.20867C24.9362 8.21126 24.9341 8.21624 24.9308 8.22352C24.9243 8.23807 24.9136 8.2618 24.8985 8.29402C24.8685 8.35848 24.8214 8.45676 24.7568 8.58337C24.6275 8.83682 24.4291 9.20238 24.1587 9.63635C23.6161 10.5072 22.7936 11.6376 21.6724 12.6899L23.0411 14.1482C24.3217 12.9462 25.2492 11.6681 25.8561 10.694C26.1605 10.2055 26.3867 9.78953 26.5385 9.49202C26.6144 9.34315 26.6718 9.22362 26.7112 9.13912C26.7309 9.09686 26.7461 9.06334 26.7569 9.03925C26.7623 9.0272 26.7665 9.01752 26.7697 9.01027C26.7713 9.00665 26.7726 9.00364 26.7736 9.00126C26.7742 9.00006 26.7746 8.99902 26.775 8.99814C26.7752 8.9977 26.7753 8.9973 26.7755 8.99694C26.7756 8.99676 26.7757 8.99651 26.7757 8.99642C26.7758 8.99619 26.7759 8.99597 25.8568 8.60205ZM21.6724 12.6899C20.6792 13.6221 19.4628 14.4827 18.0089 15.055L18.7414 16.916C20.4783 16.2324 21.9044 15.2151 23.0411 14.1482L21.6724 12.6899ZM21.6497 14.1261L23.3997 15.8761L24.8139 14.4619L23.0639 12.7119L21.6497 14.1261ZM13.1901 16.7687V19.6854H15.1901V16.7687H13.1901ZM17.537 16.5309L19.1853 19.0641L20.8616 17.9733L19.2133 15.4401L17.537 16.5309ZM5.31633 12.7119L3.56633 14.4619L4.98054 15.8761L6.73054 14.1261L5.31633 12.7119Z" fill="#F0516D"/>
</svg>
