<svg width="23" height="23" viewBox="0 0 23 23" fill="none" xmlns="http://www.w3.org/2000/svg">
<g clip-path="url(#clip0_1_32939)">
<path d="M3.61044 5.70075C3.40849 5.18671 2.82807 4.93371 2.31404 5.13565C1.8 5.3376 1.54699 5.91802 1.74894 6.43206L3.61044 5.70075ZM15.1346 12.3951L14.7401 11.4762L14.7401 11.4762L15.1346 12.3951ZM9.41693 12.9074C9.69984 12.433 9.54467 11.8192 9.07035 11.5363C8.59603 11.2534 7.98217 11.4085 7.69926 11.8829L9.41693 12.9074ZM6.40419 14.0542C6.12128 14.5285 6.27645 15.1423 6.75077 15.4252C7.22509 15.7082 7.83894 15.553 8.12185 15.0787L6.40419 14.0542ZM21.9438 6.43206C22.1457 5.91802 21.8927 5.3376 21.3787 5.13565C20.8646 4.93371 20.2842 5.18671 20.0823 5.70075L21.9438 6.43206ZM18.263 10.1952L17.5476 9.49655L17.5476 9.49655L18.263 10.1952ZM18.9009 12.371C19.2741 12.7781 19.9066 12.8056 20.3137 12.4324C20.7209 12.0592 20.7484 11.4266 20.3752 11.0195L18.9009 12.371ZM10.8464 15.5664C10.8464 16.1187 11.2941 16.5664 11.8464 16.5664C12.3986 16.5664 12.8464 16.1187 12.8464 15.5664H10.8464ZM15.5709 15.0787C15.8538 15.553 16.4676 15.7082 16.9419 15.4252C17.4163 15.1423 17.5714 14.5285 17.2885 14.0542L15.5709 15.0787ZM6.16684 10.871C6.54003 10.4638 6.51253 9.83128 6.10541 9.45809C5.69829 9.0849 5.06573 9.1124 4.69253 9.51952L6.16684 10.871ZM3.31753 11.0195C2.94434 11.4266 2.97184 12.0592 3.37896 12.4324C3.78608 12.8056 4.41865 12.7781 4.79184 12.371L3.31753 11.0195ZM11.8464 12.0664C9.04074 12.0664 7.00273 10.5447 5.61826 8.91823C4.92892 8.10838 4.42191 7.29412 4.08746 6.68118C3.92085 6.37582 3.79868 6.1234 3.71945 5.95053C3.67987 5.86418 3.65112 5.79792 3.63299 5.75512C3.62394 5.73372 3.61754 5.71821 3.61379 5.709C3.61191 5.7044 3.6107 5.70138 3.61014 5.69998C3.60986 5.69929 3.60975 5.699 3.6098 5.69912C3.60982 5.69919 3.60989 5.69935 3.60999 5.69963C3.61005 5.69976 3.61016 5.70004 3.61019 5.70011C3.61031 5.70042 3.61044 5.70075 2.67969 6.06641C1.74894 6.43206 1.74909 6.43245 1.74925 6.43286C1.74932 6.43304 1.74949 6.43348 1.74963 6.43383C1.74991 6.43452 1.75023 6.43533 1.75059 6.43624C1.75131 6.43806 1.7522 6.44031 1.75327 6.44298C1.75541 6.44831 1.75823 6.45533 1.76176 6.46397C1.7688 6.48125 1.77863 6.50505 1.79128 6.53492C1.81657 6.59466 1.85317 6.67879 1.90132 6.78384C1.99754 6.99379 2.14035 7.28824 2.33181 7.63913C2.71351 8.33869 3.29504 9.27444 4.09528 10.2146C5.68998 12.0881 8.2353 14.0664 11.8464 14.0664V12.0664ZM14.7401 11.4762C13.8913 11.8407 12.9311 12.0664 11.8464 12.0664V14.0664C13.2182 14.0664 14.4459 13.7791 15.5292 13.314L14.7401 11.4762ZM7.69926 11.8829L6.40419 14.0542L8.12185 15.0787L9.41693 12.9074L7.69926 11.8829ZM21.013 6.06641C20.0823 5.70075 20.0823 5.70056 20.0824 5.70037C20.0824 5.70032 20.0825 5.70015 20.0825 5.70004C20.0826 5.69984 20.0827 5.69967 20.0827 5.69953C20.0829 5.69926 20.0829 5.69911 20.0829 5.6991C20.0829 5.69907 20.0827 5.69956 20.0823 5.70056C20.0815 5.70256 20.0799 5.7066 20.0774 5.7126C20.0725 5.72461 20.0643 5.74447 20.0527 5.77158C20.0295 5.82583 19.993 5.90898 19.9428 6.01631C19.8423 6.23123 19.6879 6.54165 19.4773 6.91027C19.0543 7.65097 18.4152 8.60815 17.5476 9.49655L18.9784 10.8939C19.9979 9.85011 20.7338 8.74288 21.214 7.90221C21.4551 7.48015 21.6343 7.12065 21.7546 6.86332C21.8148 6.73453 21.8604 6.63098 21.8918 6.55755C21.9075 6.52082 21.9196 6.4916 21.9283 6.47049C21.9326 6.45994 21.9361 6.45141 21.9386 6.44498C21.9399 6.44176 21.941 6.43907 21.9419 6.43691C21.9423 6.43584 21.9427 6.43489 21.943 6.43408C21.9431 6.43368 21.9433 6.43331 21.9434 6.43297C21.9435 6.4328 21.9436 6.43257 21.9436 6.43249C21.9437 6.43227 21.9438 6.43206 21.013 6.06641ZM17.5476 9.49655C16.7788 10.2837 15.8458 11.0014 14.7401 11.4762L15.5292 13.314C16.9305 12.7123 18.0737 11.8204 18.9784 10.8939L17.5476 9.49655ZM17.5259 10.871L18.9009 12.371L20.3752 11.0195L19.0002 9.51952L17.5259 10.871ZM10.8464 13.0664V15.5664H12.8464V13.0664H10.8464ZM14.2758 12.9074L15.5709 15.0787L17.2885 14.0542L15.9934 11.8829L14.2758 12.9074ZM4.69253 9.51952L3.31753 11.0195L4.79184 12.371L6.16684 10.871L4.69253 9.51952Z" fill="#00C2CB"/>
</g>
<defs>
<clipPath id="clip0_1_32939">
<rect width="22" height="22" fill="white" transform="translate(0.847656 0.0664062)"/>
</clipPath>
</defs>
</svg>
