<svg width="24" height="24" viewBox="0 0 24 24" fill="none" xmlns="http://www.w3.org/2000/svg">
<path d="M15 22.75H9C3.57 22.75 1.25 20.43 1.25 15V9C1.25 3.57 3.57 1.25 9 1.25H15C20.43 1.25 22.75 3.57 22.75 9V15C22.75 20.43 20.43 22.75 15 22.75ZM9 2.75C4.39 2.75 2.75 4.39 2.75 9V15C2.75 19.61 4.39 21.25 9 21.25H15C19.61 21.25 21.25 19.61 21.25 15V9C21.25 4.39 19.61 2.75 15 2.75H9Z" fill="white"/>
<path d="M15 22.75H9C3.57 22.75 1.25 20.43 1.25 15V9C1.25 3.57 3.57 1.25 9 1.25H15C20.43 1.25 22.75 3.57 22.75 9V15C22.75 20.43 20.43 22.75 15 22.75ZM9 2.75C4.39 2.75 2.75 4.39 2.75 9V15C2.75 19.61 4.39 21.25 9 21.25H15C19.61 21.25 21.25 19.61 21.25 15V9C21.25 4.39 19.61 2.75 15 2.75H9Z" fill="white"/>
<path fill-rule="evenodd" clip-rule="evenodd" d="M18 2H6C3.79086 2 2 3.79086 2 6V18C2 20.2091 3.79086 22 6 22H18C20.2091 22 22 20.2091 22 18V6C22 3.79086 20.2091 2 18 2ZM5.93842 4.93842C6.44118 4.43566 7.13439 4.25 7.875 4.25H9.125C9.86561 4.25 10.5588 4.43566 11.0616 4.93842C11.5643 5.44118 11.75 6.13439 11.75 6.875V8.125C11.75 8.86561 11.5643 9.55882 11.0616 10.0616C10.5588 10.5643 9.86561 10.75 9.125 10.75H7.875C7.13439 10.75 6.44118 10.5643 5.93842 10.0616C5.43566 9.55882 5.25 8.86561 5.25 8.125V6.875C5.25 6.13439 5.43566 5.44118 5.93842 4.93842ZM6.99908 5.99908C6.87684 6.12132 6.75 6.36561 6.75 6.875V8.125C6.75 8.63439 6.87684 8.87868 6.99908 9.00092C7.12132 9.12316 7.36561 9.25 7.875 9.25H9.125C9.63439 9.25 9.87868 9.12316 10.0009 9.00092C10.1232 8.87868 10.25 8.63439 10.25 8.125V6.875C10.25 6.36561 10.1232 6.12132 10.0009 5.99908C9.87868 5.87684 9.63439 5.75 9.125 5.75H7.875C7.36561 5.75 7.12132 5.87684 6.99908 5.99908ZM7.875 12.25C7.13439 12.25 6.44118 12.4357 5.93842 12.9384C5.43566 13.4412 5.25 14.1344 5.25 14.875V16.125C5.25 16.8656 5.43566 17.5588 5.93842 18.0616C6.44118 18.5643 7.13439 18.75 7.875 18.75H9.125C9.86561 18.75 10.5588 18.5643 11.0616 18.0616C11.5643 17.5588 11.75 16.8656 11.75 16.125V14.875C11.75 14.1344 11.5643 13.4412 11.0616 12.9384C10.5588 12.4357 9.86561 12.25 9.125 12.25H7.875ZM6.75 14.875C6.75 14.3656 6.87684 14.1213 6.99908 13.9991C7.12132 13.8768 7.36561 13.75 7.875 13.75H9.125C9.63439 13.75 9.87868 13.8768 10.0009 13.9991C10.1232 14.1213 10.25 14.3656 10.25 14.875V16.125C10.25 16.6344 10.1232 16.8787 10.0009 17.0009C9.87868 17.1232 9.63439 17.25 9.125 17.25H7.875C7.36561 17.25 7.12132 17.1232 6.99908 17.0009C6.87684 16.8787 6.75 16.6344 6.75 16.125V14.875ZM13.25 7C13.25 6.58579 13.5858 6.25 14 6.25H18C18.4142 6.25 18.75 6.58579 18.75 7C18.75 7.41421 18.4142 7.75 18 7.75H14C13.5858 7.75 13.25 7.41421 13.25 7ZM14 14.25C13.5858 14.25 13.25 14.5858 13.25 15C13.25 15.4142 13.5858 15.75 14 15.75H18C18.4142 15.75 18.75 15.4142 18.75 15C18.75 14.5858 18.4142 14.25 18 14.25H14Z" fill="white"/>
</svg>
