<svg width="19" height="18" viewBox="0 0 19 18" fill="none" xmlns="http://www.w3.org/2000/svg">
<path d="M8.44337 14.4563C8.68201 14.2702 8.89847 14.0537 9.33133 13.6209L14.8782 8.07399C14.1233 7.75978 13.2291 7.24365 12.3835 6.39801C11.5377 5.55224 11.0216 4.65794 10.7074 3.90293L5.16037 9.44992L5.16032 9.44997C4.72749 9.8828 4.51105 10.0992 4.32492 10.3379C4.10535 10.6194 3.9171 10.924 3.76351 11.2463C3.6333 11.5195 3.53651 11.8099 3.34292 12.3906L2.32209 15.4531C2.22682 15.7389 2.3012 16.054 2.51422 16.267C2.72724 16.48 3.04233 16.5544 3.32813 16.4592L6.39063 15.4383C6.97139 15.2447 7.26177 15.1479 7.53498 15.0177C7.85727 14.8641 8.16186 14.6759 8.44337 14.4563Z" fill="white"/>
<path d="M16.4174 6.53479C17.5692 5.38301 17.5692 3.51561 16.4174 2.36383C15.2656 1.21206 13.3982 1.21206 12.2465 2.36383L11.5812 3.02911C11.5903 3.05662 11.5997 3.08451 11.6095 3.11277C11.8534 3.81562 12.3135 4.737 13.179 5.60252C14.0445 6.46803 14.9659 6.92811 15.6687 7.17196C15.6969 7.18172 15.7246 7.19113 15.752 7.2002L16.4174 6.53479Z" fill="white"/>
</svg>
