<svg width="26" height="26" viewBox="0 0 26 26" fill="none" xmlns="http://www.w3.org/2000/svg">
<path fill-rule="evenodd" clip-rule="evenodd" d="M13.2799 23.4168C8.36948 23.4168 5.91425 23.4168 4.38877 21.8913C2.86328 20.3659 2.86328 17.9106 2.86328 13.0002C2.86328 8.0897 2.86328 5.63447 4.38877 4.10898C5.91425 2.5835 8.36948 2.5835 13.2799 2.5835C18.1904 2.5835 20.6456 2.5835 22.1711 4.10898C23.6966 5.63447 23.6966 8.0897 23.6966 13.0002C23.6966 17.9106 23.6966 20.3659 22.1711 21.8913C20.6456 23.4168 18.1904 23.4168 13.2799 23.4168ZM13.2799 9.09391C13.7114 9.09391 14.0612 9.44369 14.0612 9.87516V12.2189H16.4049C16.8364 12.2189 17.1862 12.5687 17.1862 13.0002C17.1862 13.4317 16.8364 13.7814 16.4049 13.7814H14.0612L14.0612 16.1252C14.0612 16.5566 13.7114 16.9064 13.2799 16.9064C12.8485 16.9064 12.4987 16.5566 12.4987 16.1252V13.7814H10.1549C9.72348 13.7814 9.3737 13.4317 9.3737 13.0002C9.3737 12.5687 9.72348 12.2189 10.1549 12.2189H12.4987L12.4987 9.87516C12.4987 9.44369 12.8485 9.09391 13.2799 9.09391Z" fill="white"/>
</svg>
