<svg width="37" height="37" viewBox="0 0 37 37" fill="none" xmlns="http://www.w3.org/2000/svg">
<path fill-rule="evenodd" clip-rule="evenodd" d="M7.8755 5.32963C8.77882 3.38086 11.8786 3.38086 18.0781 3.38086C24.2777 3.38086 27.3774 3.38086 28.2807 5.32963C28.3584 5.49714 28.4239 5.67114 28.4766 5.85C29.0903 7.9308 26.8984 10.3425 22.5147 15.166L19.5781 18.3809L22.5147 21.5957C26.8984 26.4192 29.0903 28.8309 28.4766 30.9117C28.4239 31.0906 28.3584 31.2646 28.2807 31.4321C27.3774 33.3809 24.2777 33.3809 18.0781 33.3809C11.8786 33.3809 8.77882 33.3809 7.8755 31.4321C7.79785 31.2646 7.73235 31.0906 7.6796 30.9117C7.06597 28.8309 9.25784 26.4192 13.6416 21.5957L16.5781 18.3809L13.6416 15.166C9.25784 10.3425 7.06597 7.9308 7.6796 5.85C7.73235 5.67114 7.79785 5.49714 7.8755 5.32963ZM15.0781 27.0059C14.4568 27.0059 13.9531 27.5095 13.9531 28.1309C13.9531 28.7522 14.4568 29.2559 15.0781 29.2559H21.0781C21.6994 29.2559 22.2031 28.7522 22.2031 28.1309C22.2031 27.5095 21.6994 27.0059 21.0781 27.0059H15.0781ZM13.9531 8.63086C13.9531 8.00954 14.4568 7.50586 15.0781 7.50586H21.0781C21.6994 7.50586 22.2031 8.00954 22.2031 8.63086C22.2031 9.25218 21.6994 9.75586 21.0781 9.75586H15.0781C14.4568 9.75586 13.9531 9.25218 13.9531 8.63086Z" fill="white"/>
<path d="M7.8755 5.32963L7.64868 5.22449L7.64868 5.22449L7.8755 5.32963ZM13.6416 15.166L13.4566 15.3341L13.457 15.3346L13.6416 15.166ZM7.6796 5.85L7.43981 5.77929L7.43981 5.77929L7.6796 5.85ZM28.2807 5.32963L28.5076 5.22449L28.5076 5.22449L28.2807 5.32963ZM22.5147 15.166L22.6993 15.3346L22.6997 15.3341L22.5147 15.166ZM28.4766 5.85L28.7164 5.77929L28.7164 5.77929L28.4766 5.85ZM16.5781 18.3809L16.7627 18.5495L16.9167 18.3809L16.7627 18.2123L16.5781 18.3809ZM19.5781 18.3809L19.3935 18.2123L19.2395 18.3809L19.3935 18.5495L19.5781 18.3809ZM7.8755 31.4321L7.64868 31.5372L7.64868 31.5372L7.8755 31.4321ZM13.6416 21.5957L13.457 21.4271L13.4566 21.4276L13.6416 21.5957ZM7.6796 30.9117L7.91939 30.841L7.91939 30.841L7.6796 30.9117ZM28.2807 31.4321L28.5076 31.5372L28.5076 31.5372L28.2807 31.4321ZM22.5147 21.5957L22.6997 21.4276L22.6993 21.4271L22.5147 21.5957ZM28.4766 30.9117L28.7164 30.9824L28.7164 30.9824L28.4766 30.9117ZM18.0781 3.13086C14.9869 3.13086 12.6398 3.1302 10.9545 3.3771C9.27286 3.62345 8.15651 4.12894 7.64868 5.22449L8.10232 5.43477C8.49781 4.58155 9.383 4.11265 11.027 3.87182C12.6673 3.63152 14.9698 3.63086 18.0781 3.63086V3.13086ZM13.8266 14.9978C11.6296 12.5805 9.99947 10.7861 8.99184 9.33678C7.9806 7.88231 7.64688 6.84479 7.91939 5.92072L7.43981 5.77929C7.09869 6.93602 7.5541 8.14476 8.58132 9.62221C9.61215 11.1049 11.2698 12.928 13.4566 15.3341L13.8266 14.9978ZM7.64868 5.22449C7.56582 5.40326 7.496 5.58877 7.43981 5.77929L7.91939 5.92072C7.9687 5.75352 8.02989 5.59103 8.10232 5.43477L7.64868 5.22449ZM18.0781 3.63086C21.1865 3.63086 23.489 3.63152 25.1293 3.87182C26.7732 4.11265 27.6584 4.58155 28.0539 5.43477L28.5076 5.22449C27.9997 4.12894 26.8834 3.62345 25.2018 3.3771C23.5165 3.1302 21.1693 3.13086 18.0781 3.13086V3.63086ZM22.6997 15.3341C24.8865 12.928 26.5441 11.1049 27.5749 9.62221C28.6021 8.14476 29.0576 6.93602 28.7164 5.77929L28.2369 5.92072C28.5094 6.84479 28.1757 7.88231 27.1644 9.33678C26.1568 10.7861 24.5266 12.5805 22.3297 14.9978L22.6997 15.3341ZM28.0539 5.43477C28.1264 5.59103 28.1875 5.75352 28.2369 5.92072L28.7164 5.77929C28.6603 5.58877 28.5904 5.40326 28.5076 5.22449L28.0539 5.43477ZM13.457 15.3346L16.3935 18.5495L16.7627 18.2123L13.8262 14.9974L13.457 15.3346ZM19.7627 18.5495L22.6993 15.3346L22.3301 14.9974L19.3935 18.2123L19.7627 18.5495ZM18.0781 33.1309C14.9698 33.1309 12.6673 33.1302 11.027 32.8899C9.383 32.6491 8.49781 32.1802 8.10232 31.327L7.64868 31.5372C8.15651 32.6328 9.27286 33.1383 10.9545 33.3846C12.6398 33.6315 14.9869 33.6309 18.0781 33.6309V33.1309ZM13.4566 21.4276C11.2698 23.8337 9.61215 25.6569 8.58132 27.1395C7.5541 28.617 7.09869 29.8257 7.43981 30.9824L7.91939 30.841C7.64688 29.9169 7.9806 28.8794 8.99184 27.4249C9.99947 25.9757 11.6296 24.1812 13.8266 21.7639L13.4566 21.4276ZM8.10232 31.327C8.02989 31.1707 7.9687 31.0082 7.91939 30.841L7.43981 30.9824C7.496 31.173 7.56582 31.3585 7.64868 31.5372L8.10232 31.327ZM18.0781 33.6309C21.1693 33.6309 23.5165 33.6315 25.2018 33.3846C26.8834 33.1383 27.9997 32.6328 28.5076 31.5372L28.0539 31.327C27.6584 32.1802 26.7732 32.6491 25.1293 32.8899C23.489 33.1302 21.1865 33.1309 18.0781 33.1309V33.6309ZM22.3297 21.7639C24.5266 24.1812 26.1568 25.9757 27.1644 27.4249C28.1757 28.8794 28.5094 29.9169 28.2369 30.841L28.7164 30.9824C29.0576 29.8257 28.6021 28.617 27.5749 27.1395C26.5441 25.6569 24.8865 23.8337 22.6997 21.4276L22.3297 21.7639ZM28.5076 31.5372C28.5904 31.3585 28.6603 31.173 28.7164 30.9824L28.2369 30.841C28.1875 31.0082 28.1264 31.1707 28.0539 31.327L28.5076 31.5372ZM13.8262 21.7644L16.7627 18.5495L16.3935 18.2123L13.457 21.4271L13.8262 21.7644ZM19.3935 18.5495L22.3301 21.7644L22.6993 21.4271L19.7627 18.2123L19.3935 18.5495ZM15.0781 7.25586C14.3187 7.25586 13.7031 7.87147 13.7031 8.63086H14.2031C14.2031 8.14761 14.5949 7.75586 15.0781 7.75586V7.25586ZM21.0781 7.25586H15.0781V7.75586H21.0781V7.25586ZM22.4531 8.63086C22.4531 7.87147 21.8375 7.25586 21.0781 7.25586V7.75586C21.5614 7.75586 21.9531 8.14761 21.9531 8.63086H22.4531ZM21.0781 10.0059C21.8375 10.0059 22.4531 9.39025 22.4531 8.63086H21.9531C21.9531 9.11411 21.5614 9.50586 21.0781 9.50586V10.0059ZM15.0781 10.0059H21.0781V9.50586H15.0781V10.0059ZM13.7031 8.63086C13.7031 9.39025 14.3187 10.0059 15.0781 10.0059V9.50586C14.5949 9.50586 14.2031 9.11411 14.2031 8.63086H13.7031ZM15.0781 26.7559C14.3187 26.7559 13.7031 27.3715 13.7031 28.1309H14.2031C14.2031 27.6476 14.5949 27.2559 15.0781 27.2559V26.7559ZM21.0781 26.7559H15.0781V27.2559H21.0781V26.7559ZM22.4531 28.1309C22.4531 27.3715 21.8375 26.7559 21.0781 26.7559V27.2559C21.5614 27.2559 21.9531 27.6476 21.9531 28.1309H22.4531ZM21.0781 29.5059C21.8375 29.5059 22.4531 28.8903 22.4531 28.1309H21.9531C21.9531 28.6141 21.5614 29.0059 21.0781 29.0059V29.5059ZM15.0781 29.5059H21.0781V29.0059H15.0781V29.5059ZM13.7031 28.1309C13.7031 28.8903 14.3187 29.5059 15.0781 29.5059V29.0059C14.5949 29.0059 14.2031 28.6141 14.2031 28.1309H13.7031Z" fill="white"/>
</svg>
