<svg width="22" height="23" viewBox="0 0 22 23" fill="none" xmlns="http://www.w3.org/2000/svg">
<g id="send-message-filled-white" filter="url(#filter0_dd_1_32055)">
<path id="Mask" fill-rule="evenodd" clip-rule="evenodd" d="M9.43392 19.1458C9.45142 19.1458 9.46808 19.145 9.48475 19.1441C9.86142 19.1216 10.1756 18.8483 10.2506 18.4783L11.5322 12.1725C11.5989 11.8441 11.8547 11.5883 12.1831 11.5216L18.4889 10.2391C18.8589 10.165 19.1322 9.8508 19.1547 9.47413C19.1772 9.09663 18.9447 8.75163 18.5864 8.6333L5.25308 4.18913C4.95392 4.08747 4.62392 4.1658 4.40058 4.38997C4.17725 4.6133 4.09975 4.9433 4.19892 5.24247L8.64392 18.5758C8.75725 18.9183 9.07725 19.1458 9.43392 19.1458Z" fill="#231F20"/>
<mask id="mask0_1_32055" style="mask-type:luminance" maskUnits="userSpaceOnUse" x="4" y="4" width="16" height="16">
<path id="Mask_2" fill-rule="evenodd" clip-rule="evenodd" d="M9.43392 19.1458C9.45142 19.1458 9.46808 19.145 9.48475 19.1441C9.86142 19.1216 10.1756 18.8483 10.2506 18.4783L11.5322 12.1725C11.5989 11.8441 11.8547 11.5883 12.1831 11.5216L18.4889 10.2391C18.8589 10.165 19.1322 9.8508 19.1547 9.47413C19.1772 9.09663 18.9447 8.75163 18.5864 8.6333L5.25308 4.18913C4.95392 4.08747 4.62392 4.1658 4.40058 4.38997C4.17725 4.6133 4.09975 4.9433 4.19892 5.24247L8.64392 18.5758C8.75725 18.9183 9.07725 19.1458 9.43392 19.1458Z" fill="white"/>
</mask>
<g mask="url(#mask0_1_32055)">
<g id="&#240;&#159;&#142;&#168; Color">
<rect id="Base" width="20" height="20" transform="matrix(-1 0 0 1 20.8242 0.8125)" fill="white"/>
</g>
</g>
</g>
<defs>
<filter id="filter0_dd_1_32055" x="-1.17578" y="-0.1875" width="24" height="24" filterUnits="userSpaceOnUse" color-interpolation-filters="sRGB">
<feFlood flood-opacity="0" result="BackgroundImageFix"/>
<feColorMatrix in="SourceAlpha" type="matrix" values="0 0 0 0 0 0 0 0 0 0 0 0 0 0 0 0 0 0 127 0" result="hardAlpha"/>
<feOffset dy="1"/>
<feGaussianBlur stdDeviation="0.5"/>
<feColorMatrix type="matrix" values="0 0 0 0 0 0 0 0 0 0 0 0 0 0 0 0 0 0 0.03 0"/>
<feBlend mode="normal" in2="BackgroundImageFix" result="effect1_dropShadow_1_32055"/>
<feColorMatrix in="SourceAlpha" type="matrix" values="0 0 0 0 0 0 0 0 0 0 0 0 0 0 0 0 0 0 127 0" result="hardAlpha"/>
<feOffset dy="1"/>
<feGaussianBlur stdDeviation="1"/>
<feColorMatrix type="matrix" values="0 0 0 0 0 0 0 0 0 0 0 0 0 0 0 0 0 0 0.03 0"/>
<feBlend mode="normal" in2="effect1_dropShadow_1_32055" result="effect2_dropShadow_1_32055"/>
<feBlend mode="normal" in="SourceGraphic" in2="effect2_dropShadow_1_32055" result="shape"/>
</filter>
</defs>
</svg>
