<svg width="24" height="25" viewBox="0 0 24 25" fill="none" xmlns="http://www.w3.org/2000/svg">
<path d="M6.03954 8.0689C3.57986 8.62543 2.35002 8.90369 2.05742 9.84461C1.76482 10.7855 2.60325 11.7659 4.2801 13.7268L4.71392 14.2341C5.19043 14.7913 5.42868 15.0699 5.53586 15.4146C5.64305 15.7593 5.60703 16.131 5.53498 16.8744L5.4694 17.5513C5.21588 20.1675 5.08912 21.4756 5.85515 22.0571C6.62118 22.6386 7.77268 22.1084 10.0757 21.048L10.6715 20.7737C11.3259 20.4724 11.6531 20.3217 12 20.3217C12.3469 20.3217 12.6741 20.4724 13.3285 20.7737L13.9243 21.048C16.2273 22.1084 17.3788 22.6386 18.1449 22.0571C18.9109 21.4756 18.7841 20.1675 18.5306 17.5513M19.7199 13.7268C21.3968 11.7659 22.2352 10.7855 21.9426 9.84461C21.65 8.90369 20.4201 8.62543 17.9605 8.0689L17.3241 7.92492C16.6251 7.76678 16.2757 7.6877 15.9951 7.47468C15.7144 7.26166 15.5345 6.93881 15.1745 6.29311L14.8468 5.70525C13.5802 3.433 12.9469 2.29687 12 2.29688C11.0531 2.29688 10.4198 3.433 9.15316 5.70525" stroke="white" stroke-width="1.5" stroke-linecap="round"/>
</svg>
