<svg width="15" height="15" viewBox="0 0 15 15" fill="none" xmlns="http://www.w3.org/2000/svg">
<path fill-rule="evenodd" clip-rule="evenodd" d="M6.11111 13.125H8.88889C10.8395 13.125 11.8149 13.125 12.5155 12.6654C12.8188 12.4664 13.0792 12.2107 13.2819 11.9129C13.75 11.225 13.75 10.2674 13.75 8.35227C13.75 6.4371 13.75 5.47951 13.2819 4.79163C13.0792 4.49384 12.8188 4.23815 12.5155 4.03917C12.0653 3.74383 11.5017 3.63827 10.6388 3.60054C10.227 3.60054 9.87243 3.29418 9.79167 2.89773C9.67053 2.30305 9.13872 1.875 8.52104 1.875H6.47896C5.86128 1.875 5.32947 2.30306 5.20833 2.89773C5.12758 3.29418 4.77303 3.60054 4.36125 3.60054C3.49833 3.63827 2.93472 3.74383 2.48453 4.03917C2.18122 4.23815 1.9208 4.49384 1.71814 4.79163C1.25 5.47951 1.25 6.4371 1.25 8.35227C1.25 10.2674 1.25 11.225 1.71814 11.9129C1.9208 12.2107 2.18122 12.4664 2.48453 12.6654C3.18515 13.125 4.16047 13.125 6.11111 13.125ZM7.5 5.79545C6.06176 5.79545 4.89583 6.94018 4.89583 8.35227C4.89583 9.76436 6.06176 10.9091 7.5 10.9091C8.93824 10.9091 10.1042 9.76436 10.1042 8.35227C10.1042 6.94018 8.93824 5.79545 7.5 5.79545ZM7.5 6.81818C6.63705 6.81818 5.9375 7.50502 5.9375 8.35227C5.9375 9.19953 6.63705 9.88636 7.5 9.88636C8.36294 9.88636 9.0625 9.19953 9.0625 8.35227C9.0625 7.50502 8.36294 6.81818 7.5 6.81818ZM10.4514 6.30682C10.4514 6.0244 10.6846 5.79545 10.9722 5.79545H11.6667C11.9543 5.79545 12.1875 6.0244 12.1875 6.30682C12.1875 6.58924 11.9543 6.81818 11.6667 6.81818H10.9722C10.6846 6.81818 10.4514 6.58924 10.4514 6.30682Z" fill="white"/>
</svg>
