<svg width="25" height="25" viewBox="0 0 25 25" fill="none" xmlns="http://www.w3.org/2000/svg">
<path d="M22.5469 12.1475C22.5469 15.9187 22.5469 17.8043 21.3753 18.9759C20.2037 20.1475 18.3181 20.1475 14.5469 20.1475H10.5469C6.77564 20.1475 4.89002 20.1475 3.71845 18.9759C2.54688 17.8043 2.54688 15.9187 2.54688 12.1475C2.54688 8.37622 2.54688 6.49061 3.71845 5.31903C4.89002 4.14746 6.77564 4.14746 10.5469 4.14746H14.5469C18.3181 4.14746 20.2037 4.14746 21.3753 5.31903C22.0285 5.97222 22.3175 6.84735 22.4454 8.14746" stroke="white" stroke-width="1.5" stroke-linecap="round"/>
<path d="M18.5469 8.14746L16.388 9.94654C14.5513 11.4771 13.633 12.2423 12.5469 12.2423C11.8976 12.2423 11.3083 11.9689 10.5469 11.4219M6.54688 8.14746L7.44688 8.89746L8.34688 9.64746" stroke="white" stroke-width="1.5" stroke-linecap="round"/>
</svg>
