<svg width="28" height="44" viewBox="0 0 28 44" fill="none" xmlns="http://www.w3.org/2000/svg">
<path d="M14.6526 1C11.3933 1 8.26744 2.29476 5.96274 4.59946C3.65805 6.90416 2.36328 10.03 2.36328 13.2893C2.36328 19.4197 13.6999 33.8668 13.6999 33.8668H14.6526C14.6526 33.8668 26.9419 20.0761 26.9419 13.2893C26.9419 10.03 25.6472 6.90416 23.3425 4.59946C21.0378 2.29476 17.9119 1 14.6526 1ZM14.6526 19.2911C13.4656 19.2911 12.3052 18.9391 11.3182 18.2796C10.3312 17.6201 9.56196 16.6828 9.1077 15.5861C8.65344 14.4894 8.53459 13.2827 8.76617 12.1184C8.99775 10.9542 9.56936 9.8848 10.4087 9.04544C11.2481 8.20608 12.3175 7.63446 13.4817 7.40288C14.646 7.17131 15.8527 7.29016 16.9494 7.74442C18.0461 8.19868 18.9834 8.96794 19.6429 9.95493C20.3024 10.9419 20.6544 12.1023 20.6544 13.2893C20.6544 14.0775 20.4991 14.8579 20.1975 15.5861C19.8959 16.3143 19.4538 16.9759 18.8965 17.5332C18.3392 18.0905 17.6776 18.5326 16.9494 18.8342C16.2212 19.1359 15.4408 19.2911 14.6526 19.2911Z" fill="#272727" stroke="#272727" stroke-linecap="round" stroke-linejoin="round"/>
<path d="M13.6995 1C10.4402 1 7.31431 2.29476 5.00962 4.59946C2.70492 6.90416 1.41016 10.03 1.41016 13.2893C1.41016 20.0761 13.6995 33.8668 13.6995 33.8668C13.6995 33.8668 25.9888 20.0761 25.9888 13.2893C25.9888 10.03 24.694 6.90416 22.3894 4.59946C20.0847 2.29476 16.9588 1 13.6995 1ZM13.6995 19.2911C12.5124 19.2911 11.3521 18.9391 10.3651 18.2796C9.3781 17.6201 8.60884 16.6828 8.15458 15.5861C7.70032 14.4894 7.58146 13.2827 7.81304 12.1184C8.04462 10.9542 8.61623 9.8848 9.4556 9.04544C10.295 8.20608 11.3644 7.63446 12.5286 7.40288C13.6928 7.17131 14.8996 7.29016 15.9963 7.74442C17.0929 8.19868 18.0303 8.96794 18.6898 9.95493C19.3493 10.9419 19.7013 12.1023 19.7013 13.2893C19.7013 14.8811 19.0689 16.4077 17.9434 17.5332C16.8178 18.6588 15.2913 19.2911 13.6995 19.2911Z" fill="#00C2CB" stroke="#272727" stroke-linecap="round" stroke-linejoin="round"/>
<circle cx="3.53761" cy="3.53761" r="3.53761" transform="matrix(-1 0 0 1 17.6406 35.9609)" fill="#272727"/>
<circle cx="2.91333" cy="2.91333" r="2.91333" transform="matrix(-1 0 0 1 16.8086 36.7935)" fill="#00C2CB"/>
</svg>
