<svg width="25" height="25" viewBox="0 0 25 25" fill="none" xmlns="http://www.w3.org/2000/svg">
<path d="M13.0469 15.106C12.8843 15.1333 12.7172 15.1475 12.5469 15.1475C10.89 15.1475 9.54688 13.8043 9.54688 12.1475C9.54688 10.4906 10.89 9.14746 12.5469 9.14746C14.2037 9.14746 15.5469 10.4906 15.5469 12.1475C15.5469 12.3178 15.5327 12.4849 15.5054 12.6475" stroke="white" stroke-width="1.5" stroke-linecap="round"/>
<path d="M2.54687 12.1475L4.54688 12.1475" stroke="white" stroke-width="1.5" stroke-linecap="round"/>
<path d="M20.5469 12.1475L22.5469 12.1475" stroke="white" stroke-width="1.5" stroke-linecap="round"/>
<path d="M12.5469 4.14746V2.14746" stroke="white" stroke-width="1.5" stroke-linecap="round"/>
<path d="M12.5469 22.1475V20.1475" stroke="white" stroke-width="1.5" stroke-linecap="round"/>
<path d="M8.54688 5.21772C9.72357 4.53704 11.0897 4.14746 12.5469 4.14746C16.9652 4.14746 20.5469 7.72918 20.5469 12.1475C20.5469 16.5657 16.9652 20.1475 12.5469 20.1475C8.1286 20.1475 4.54687 16.5657 4.54688 12.1475C4.54688 10.6903 4.93645 9.32415 5.61713 8.14746" stroke="white" stroke-width="1.5" stroke-linecap="round"/>
</svg>
