<svg width="25" height="25" viewBox="0 0 25 25" fill="none" xmlns="http://www.w3.org/2000/svg">
<path d="M9.34007 20.859C10.1812 21.9282 11.5025 22.6172 12.9883 22.6172C14.4741 22.6172 15.7954 21.9282 16.6365 20.859C14.2147 21.1872 11.7619 21.1872 9.34007 20.859Z" fill="#00C2CB"/>
<path fill-rule="evenodd" clip-rule="evenodd" d="M19.7374 10.3213V9.61719C19.7374 5.75119 16.7157 2.61719 12.9883 2.61719C9.26084 2.61719 6.23915 5.75119 6.23915 9.61719V10.3213C6.23915 11.1663 5.998 11.9924 5.54608 12.6954L4.43864 14.4183C3.4271 15.992 4.19933 18.1311 5.95864 18.6287C10.561 19.9306 15.4155 19.9306 20.0179 18.6287C21.7772 18.1311 22.5495 15.992 21.5379 14.4183L20.4305 12.6954C19.9786 11.9924 19.7374 11.1663 19.7374 10.3213ZM12.9883 5.86719C13.4025 5.86719 13.7383 6.20297 13.7383 6.61719V10.6172C13.7383 11.0314 13.4025 11.3672 12.9883 11.3672C12.5741 11.3672 12.2383 11.0314 12.2383 10.6172V6.61719C12.2383 6.20297 12.5741 5.86719 12.9883 5.86719Z" fill="#00C2CB"/>
</svg>
