<svg width="25" height="25" viewBox="0 0 25 25" fill="none" xmlns="http://www.w3.org/2000/svg">
<path d="M8.69978 21.0849C9.57591 22.1986 10.9523 22.9163 12.5 22.9163C14.0477 22.9163 15.4241 22.1986 16.3002 21.0849C13.7775 21.4267 11.2225 21.4267 8.69978 21.0849Z" fill="white"/>
<path fill-rule="evenodd" clip-rule="evenodd" d="M19.5303 10.1081V9.37467C19.5303 5.3476 16.3828 2.08301 12.5 2.08301C8.61725 2.08301 5.46966 5.3476 5.46966 9.37467V10.1081C5.46966 10.9883 5.21845 11.8488 4.74771 12.5812L3.59412 14.3759C2.54044 16.0151 3.34484 18.2433 5.17746 18.7617C9.9716 20.1178 15.0284 20.1178 19.8225 18.7617C21.6552 18.2433 22.4596 16.0151 21.4059 14.3759L20.2523 12.5812C19.7815 11.8488 19.5303 10.9883 19.5303 10.1081ZM12.5 5.46842C12.9315 5.46842 13.2812 5.8182 13.2812 6.24967V10.4163C13.2812 10.8478 12.9315 11.1976 12.5 11.1976C12.0685 11.1976 11.7187 10.8478 11.7187 10.4163V6.24967C11.7187 5.8182 12.0685 5.46842 12.5 5.46842Z" fill="white"/>
</svg>
