<svg width="24" height="24" viewBox="0 0 24 24" fill="none" xmlns="http://www.w3.org/2000/svg">
<path d="M12.8359 2C12.8359 2 15.2193 2.21667 18.2526 5.25C21.2859 8.28333 21.5026 10.6667 21.5026 10.6667" stroke="white" stroke-width="1.5" stroke-linecap="round"/>
<path d="M13.0586 5.83008C13.0586 5.83008 14.131 6.13649 15.7397 7.74516C17.3484 9.35383 17.6548 10.4263 17.6548 10.4263" stroke="white" stroke-width="1.5" stroke-linecap="round"/>
<path d="M2.0071 8.42686C1.92873 10.494 2.45189 14.0045 5.97334 17.526C6.8229 18.3756 7.67183 19.0506 8.5 19.5848M3.66596 5.18135C5.17498 3.67232 7.5826 3.87507 8.54072 5.59187L9.24382 6.85171C9.87833 7.98865 9.62361 9.48012 8.62427 10.4795C8.62427 10.4795 8.62427 10.4795 8.62427 10.4795C8.62415 10.4796 7.41219 11.6918 9.60989 13.8895C11.8069 16.0865 13.0191 14.8759 13.0199 14.8751C13.0199 14.8751 13.0199 14.8751 13.0199 14.875C14.0193 13.8757 15.5107 13.621 16.6476 14.2555L17.9075 14.9586C19.6243 15.9167 19.827 18.3244 18.318 19.8334C17.4112 20.7401 16.3004 21.4457 15.0725 21.4923C14.1906 21.5257 13.046 21.4496 11.75 21.078" stroke="white" stroke-width="1.5" stroke-linecap="round"/>
</svg>
