<svg width="17" height="18" viewBox="0 0 17 18" fill="none" xmlns="http://www.w3.org/2000/svg">
<path d="M0.613281 4.09375C0.613281 3.68974 0.920516 3.36222 1.29951 3.36222L3.6695 3.36183C4.14039 3.3491 4.5558 3.02992 4.71604 2.55772C4.72025 2.54531 4.72509 2.52999 4.74247 2.47443L4.84459 2.14778C4.90708 1.94751 4.96152 1.77302 5.0377 1.61706C5.33868 1.00092 5.89553 0.57307 6.53903 0.463529C6.70191 0.435802 6.8744 0.435919 7.0724 0.436054H10.1663C10.3643 0.435919 10.5368 0.435802 10.6997 0.463529C11.3432 0.57307 11.9 1.00092 12.201 1.61706C12.2772 1.77302 12.3316 1.94751 12.3941 2.14778L12.4962 2.47443C12.5136 2.52999 12.5185 2.54531 12.5227 2.55772C12.6829 3.02992 13.1807 3.3495 13.6516 3.36222H15.939C16.318 3.36222 16.6253 3.68974 16.6253 4.09375C16.6253 4.49777 16.318 4.82529 15.939 4.82529H1.29951C0.920516 4.82529 0.613281 4.49777 0.613281 4.09375Z" fill="white"/>
<path fill-rule="evenodd" clip-rule="evenodd" d="M8.25954 17.1153H8.97901C11.4544 17.1153 12.6921 17.1153 13.4968 16.3765C14.3015 15.6376 14.3839 14.4257 14.5485 12.0019L14.7858 8.50936C14.8751 7.19421 14.9198 6.53664 14.5161 6.11994C14.1124 5.70325 13.4306 5.70325 12.0672 5.70325H5.1714C3.80791 5.70325 3.12617 5.70325 2.72246 6.11994C2.31876 6.53664 2.36343 7.19421 2.45277 8.50936L2.69003 12.0019C2.85469 14.4257 2.93702 15.6376 3.74175 16.3765C4.54648 17.1153 5.78417 17.1153 8.25954 17.1153ZM7.05925 8.93291C7.02258 8.57109 6.69564 8.30712 6.329 8.3433C5.96237 8.37948 5.69487 8.70212 5.73154 9.06393L6.17631 13.4532C6.21298 13.815 6.53992 14.079 6.90655 14.0428C7.27319 14.0066 7.54069 13.684 7.50402 13.3222L7.05925 8.93291ZM10.9096 8.3433C11.2762 8.37948 11.5437 8.70212 11.507 9.06393L11.0622 13.4532C11.0256 13.815 10.6986 14.079 10.332 14.0428C9.96537 14.0066 9.69787 13.684 9.73454 13.3222L10.1793 8.93291C10.216 8.57109 10.5429 8.30712 10.9096 8.3433Z" fill="white"/>
</svg>
