<svg width="28" height="27" viewBox="0 0 28 27" fill="none" xmlns="http://www.w3.org/2000/svg">
<path fill-rule="evenodd" clip-rule="evenodd" d="M27.3346 13.5C27.3346 20.6337 21.3651 26.4167 14.0013 26.4167C6.63751 26.4167 0.667969 20.6337 0.667969 13.5C0.667969 6.36636 6.63751 0.583374 14.0013 0.583374C21.3651 0.583374 27.3346 6.36636 27.3346 13.5ZM9.96081 9.58584C10.3513 9.20752 10.9845 9.20752 11.375 9.58584L14.0013 12.13L16.6275 9.58586C17.018 9.20754 17.6512 9.20754 18.0417 9.58586C18.4322 9.96418 18.4322 10.5776 18.0417 10.9559L15.4155 13.5L18.0417 16.0441C18.4322 16.4225 18.4322 17.0358 18.0417 17.4142C17.6511 17.7925 17.018 17.7925 16.6274 17.4142L14.0013 14.87L11.375 17.4142C10.9845 17.7925 10.3514 17.7925 9.96083 17.4142C9.57031 17.0359 9.57031 16.4225 9.96083 16.0442L12.587 13.5L9.96081 10.9559C9.57028 10.5775 9.57028 9.96416 9.96081 9.58584Z" fill="#F0516D"/>
</svg>
